<svg width="168" height="71" viewBox="0 0 168 71" fill="none" xmlns="http://www.w3.org/2000/svg">
<path d="M69.2933 28.24C69.3893 28.624 69.4373 29.104 69.4373 29.68C69.4373 30.232 69.3893 30.712 69.2933 31.12H67.8533C67.9493 31.504 67.9973 31.984 67.9973 32.56C67.9973 33.112 67.9493 33.592 67.8533 34H60.6533C60.5573 33.592 60.5093 33.112 60.5093 32.56C60.5093 31.984 60.5573 31.504 60.6533 31.12H59.2133C59.1173 30.712 59.0693 30.232 59.0693 29.68C59.0693 29.104 59.1173 28.624 59.2133 28.24H57.7733C57.6773 27.832 57.6293 27.352 57.6293 26.8C57.6293 26.224 57.6773 25.744 57.7733 25.36C57.6773 24.952 57.6293 24.472 57.6293 23.92C57.6293 23.344 57.6773 22.864 57.7733 22.48C57.6773 22.072 57.6293 21.592 57.6293 21.04C57.6293 20.464 57.6773 19.984 57.7733 19.6H59.2133C59.1173 19.192 59.0693 18.712 59.0693 18.16C59.0693 17.584 59.1173 17.104 59.2133 16.72H60.6533C60.5573 16.312 60.5093 15.832 60.5093 15.28C60.5093 14.704 60.5573 14.224 60.6533 13.84H67.8533C67.9493 14.224 67.9973 14.704 67.9973 15.28C67.9973 15.832 67.9493 16.312 67.8533 16.72H69.2933C69.3893 17.104 69.4373 17.584 69.4373 18.16C69.4373 18.712 69.3893 19.192 69.2933 19.6H66.4133C66.3173 19.192 66.2693 18.712 66.2693 18.16C66.2693 17.584 66.3173 17.104 66.4133 16.72H62.0933C62.1893 17.104 62.2373 17.584 62.2373 18.16C62.2373 18.712 62.1893 19.192 62.0933 19.6H60.6533C60.7493 19.984 60.7973 20.464 60.7973 21.04C60.7973 21.592 60.7493 22.072 60.6533 22.48C60.7493 22.864 60.7973 23.344 60.7973 23.92C60.7973 24.472 60.7493 24.952 60.6533 25.36C60.7493 25.744 60.7973 26.224 60.7973 26.8C60.7973 27.352 60.7493 27.832 60.6533 28.24H62.0933C62.1893 28.624 62.2373 29.104 62.2373 29.68C62.2373 30.232 62.1893 30.712 62.0933 31.12H66.4133C66.3173 30.712 66.2693 30.232 66.2693 29.68C66.2693 29.104 66.3173 28.624 66.4133 28.24H69.2933ZM83.1313 15.28C83.1313 15.832 83.0833 16.312 82.9873 16.72C83.0833 17.104 83.1313 17.584 83.1313 18.16C83.1313 18.712 83.0833 19.192 82.9873 19.6H81.5473C81.6433 19.984 81.6913 20.464 81.6913 21.04C81.6913 21.592 81.6433 22.072 81.5473 22.48H80.1073C80.2033 22.864 80.2513 23.344 80.2513 23.92C80.2513 24.472 80.2033 24.952 80.1073 25.36H78.6673C78.7633 25.744 78.8113 26.224 78.8113 26.8C78.8113 27.352 78.7633 27.832 78.6673 28.24C78.7633 28.624 78.8113 29.104 78.8113 29.68C78.8113 30.232 78.7633 30.712 78.6673 31.12C78.7633 31.504 78.8113 31.984 78.8113 32.56C78.8113 33.112 78.7633 33.592 78.6673 34H75.7873C75.6913 33.592 75.6433 33.112 75.6433 32.56C75.6433 31.984 75.6913 31.504 75.7873 31.12C75.6913 30.712 75.6433 30.232 75.6433 29.68C75.6433 29.104 75.6913 28.624 75.7873 28.24C75.6913 27.832 75.6433 27.352 75.6433 26.8C75.6433 26.224 75.6913 25.744 75.7873 25.36H74.3473C74.2513 24.952 74.2033 24.472 74.2033 23.92C74.2033 23.344 74.2513 22.864 74.3473 22.48H72.9073C72.8113 22.072 72.7633 21.592 72.7633 21.04C72.7633 20.464 72.8113 19.984 72.9073 19.6H71.4673C71.3713 19.192 71.3233 18.712 71.3233 18.16C71.3233 17.584 71.3713 17.104 71.4673 16.72C71.3713 16.312 71.3233 15.832 71.3233 15.28C71.3233 14.704 71.3713 14.224 71.4673 13.84H74.3473C74.4433 14.224 74.4913 14.704 74.4913 15.28C74.4913 15.832 74.4433 16.312 74.3473 16.72C74.4433 17.104 74.4913 17.584 74.4913 18.16C74.4913 18.712 74.4433 19.192 74.3473 19.6H75.7873C75.8833 19.984 75.9313 20.464 75.9313 21.04C75.9313 21.592 75.8833 22.072 75.7873 22.48H78.6673C78.5713 22.072 78.5233 21.592 78.5233 21.04C78.5233 20.464 78.5713 19.984 78.6673 19.6H80.1073C80.0113 19.192 79.9633 18.712 79.9633 18.16C79.9633 17.584 80.0113 17.104 80.1073 16.72C80.0113 16.312 79.9633 15.832 79.9633 15.28C79.9633 14.704 80.0113 14.224 80.1073 13.84H82.9873C83.0833 14.224 83.1313 14.704 83.1313 15.28ZM96.8254 21.04C96.8254 21.592 96.7774 22.072 96.6814 22.48H95.2414C95.3374 22.864 95.3854 23.344 95.3854 23.92C95.3854 24.472 95.3374 24.952 95.2414 25.36H96.6814C96.7774 25.744 96.8254 26.224 96.8254 26.8C96.8254 27.352 96.7774 27.832 96.6814 28.24C96.7774 28.624 96.8254 29.104 96.8254 29.68C96.8254 30.232 96.7774 30.712 96.6814 31.12H95.2414C95.3374 31.504 95.3854 31.984 95.3854 32.56C95.3854 33.112 95.3374 33.592 95.2414 34H85.1614C85.0654 33.592 85.0174 33.112 85.0174 32.56C85.0174 31.984 85.0654 31.504 85.1614 31.12C85.0654 30.712 85.0174 30.232 85.0174 29.68C85.0174 29.104 85.0654 28.624 85.1614 28.24C85.0654 27.832 85.0174 27.352 85.0174 26.8C85.0174 26.224 85.0654 25.744 85.1614 25.36C85.0654 24.952 85.0174 24.472 85.0174 23.92C85.0174 23.344 85.0654 22.864 85.1614 22.48C85.0654 22.072 85.0174 21.592 85.0174 21.04C85.0174 20.464 85.0654 19.984 85.1614 19.6C85.0654 19.192 85.0174 18.712 85.0174 18.16C85.0174 17.584 85.0654 17.104 85.1614 16.72C85.0654 16.312 85.0174 15.832 85.0174 15.28C85.0174 14.704 85.0654 14.224 85.1614 13.84H95.2414C95.3374 14.224 95.3854 14.704 95.3854 15.28C95.3854 15.832 95.3374 16.312 95.2414 16.72H96.6814C96.7774 17.104 96.8254 17.584 96.8254 18.16C96.8254 18.712 96.7774 19.192 96.6814 19.6C96.7774 19.984 96.8254 20.464 96.8254 21.04ZM93.8014 22.48C93.7054 22.072 93.6574 21.592 93.6574 21.04C93.6574 20.464 93.7054 19.984 93.8014 19.6C93.7054 19.192 93.6574 18.712 93.6574 18.16C93.6574 17.584 93.7054 17.104 93.8014 16.72H88.0414C88.1374 17.104 88.1854 17.584 88.1854 18.16C88.1854 18.712 88.1374 19.192 88.0414 19.6C88.1374 19.984 88.1854 20.464 88.1854 21.04C88.1854 21.592 88.1374 22.072 88.0414 22.48H93.8014ZM93.8014 28.24C93.7054 27.832 93.6574 27.352 93.6574 26.8C93.6574 26.224 93.7054 25.744 93.8014 25.36H88.0414C88.1374 25.744 88.1854 26.224 88.1854 26.8C88.1854 27.352 88.1374 27.832 88.0414 28.24C88.1374 28.624 88.1854 29.104 88.1854 29.68C88.1854 30.232 88.1374 30.712 88.0414 31.12H93.8014C93.7054 30.712 93.6574 30.232 93.6574 29.68C93.6574 29.104 93.7054 28.624 93.8014 28.24ZM103.175 25.36C103.271 25.744 103.319 26.224 103.319 26.8C103.319 27.352 103.271 27.832 103.175 28.24C103.271 28.624 103.319 29.104 103.319 29.68C103.319 30.232 103.271 30.712 103.175 31.12H108.935C109.031 31.504 109.079 31.984 109.079 32.56C109.079 33.112 109.031 33.592 108.935 34H100.295C100.199 33.592 100.151 33.112 100.151 32.56C100.151 31.984 100.199 31.504 100.295 31.12C100.199 30.712 100.151 30.232 100.151 29.68C100.151 29.104 100.199 28.624 100.295 28.24C100.199 27.832 100.151 27.352 100.151 26.8C100.151 26.224 100.199 25.744 100.295 25.36C100.199 24.952 100.151 24.472 100.151 23.92C100.151 23.344 100.199 22.864 100.295 22.48C100.199 22.072 100.151 21.592 100.151 21.04C100.151 20.464 100.199 19.984 100.295 19.6C100.199 19.192 100.151 18.712 100.151 18.16C100.151 17.584 100.199 17.104 100.295 16.72C100.199 16.312 100.151 15.832 100.151 15.28C100.151 14.704 100.199 14.224 100.295 13.84H108.935C109.031 14.224 109.079 14.704 109.079 15.28C109.079 15.832 109.031 16.312 108.935 16.72H103.175C103.271 17.104 103.319 17.584 103.319 18.16C103.319 18.712 103.271 19.192 103.175 19.6C103.271 19.984 103.319 20.464 103.319 21.04C103.319 21.592 103.271 22.072 103.175 22.48H108.935C109.031 22.864 109.079 23.344 109.079 23.92C109.079 24.472 109.031 24.952 108.935 25.36H103.175ZM124.07 31.12C124.166 31.504 124.214 31.984 124.214 32.56C124.214 33.112 124.166 33.592 124.07 34H121.19C121.094 33.592 121.046 33.112 121.046 32.56C121.046 31.984 121.094 31.504 121.19 31.12H120.11C120.014 30.712 119.966 30.232 119.966 29.68C119.966 29.104 120.014 28.624 120.11 28.24H119.03C118.934 27.832 118.886 27.352 118.886 26.8C118.886 26.224 118.934 25.744 119.03 25.36H115.43C115.526 25.744 115.574 26.224 115.574 26.8C115.574 27.352 115.526 27.832 115.43 28.24C115.526 28.624 115.574 29.104 115.574 29.68C115.574 30.232 115.526 30.712 115.43 31.12C115.526 31.504 115.574 31.984 115.574 32.56C115.574 33.112 115.526 33.592 115.43 34H112.55C112.454 33.592 112.406 33.112 112.406 32.56C112.406 31.984 112.454 31.504 112.55 31.12C112.454 30.712 112.406 30.232 112.406 29.68C112.406 29.104 112.454 28.624 112.55 28.24C112.454 27.832 112.406 27.352 112.406 26.8C112.406 26.224 112.454 25.744 112.55 25.36C112.454 24.952 112.406 24.472 112.406 23.92C112.406 23.344 112.454 22.864 112.55 22.48C112.454 22.072 112.406 21.592 112.406 21.04C112.406 20.464 112.454 19.984 112.55 19.6C112.454 19.192 112.406 18.712 112.406 18.16C112.406 17.584 112.454 17.104 112.55 16.72C112.454 16.312 112.406 15.832 112.406 15.28C112.406 14.704 112.454 14.224 112.55 13.84H122.63C122.726 14.224 122.774 14.704 122.774 15.28C122.774 15.832 122.726 16.312 122.63 16.72H124.07C124.166 17.104 124.214 17.584 124.214 18.16C124.214 18.712 124.166 19.192 124.07 19.6H123.35C123.446 19.984 123.494 20.464 123.494 21.04C123.494 21.592 123.446 22.072 123.35 22.48H121.19C121.286 22.864 121.334 23.344 121.334 23.92C121.334 24.472 121.286 24.952 121.19 25.36H121.91C122.006 25.744 122.054 26.224 122.054 26.8C122.054 27.352 122.006 27.832 121.91 28.24H122.99C123.086 28.624 123.134 29.104 123.134 29.68C123.134 30.232 123.086 30.712 122.99 31.12H124.07ZM120.47 22.48C120.374 22.072 120.326 21.592 120.326 21.04C120.326 20.464 120.374 19.984 120.47 19.6C120.374 19.192 120.326 18.712 120.326 18.16C120.326 17.584 120.374 17.104 120.47 16.72H115.43C115.526 17.104 115.574 17.584 115.574 18.16C115.574 18.712 115.526 19.192 115.43 19.6C115.526 19.984 115.574 20.464 115.574 21.04C115.574 21.592 115.526 22.072 115.43 22.48H120.47ZM137.764 25.36C137.86 25.744 137.908 26.224 137.908 26.8C137.908 27.352 137.86 27.832 137.764 28.24C137.86 28.624 137.908 29.104 137.908 29.68C137.908 30.232 137.86 30.712 137.764 31.12H136.324C136.42 31.504 136.468 31.984 136.468 32.56C136.468 33.112 136.42 33.592 136.324 34H127.684C127.588 33.592 127.54 33.112 127.54 32.56C127.54 31.984 127.588 31.504 127.684 31.12H126.244C126.148 30.712 126.1 30.232 126.1 29.68C126.1 29.104 126.148 28.624 126.244 28.24H129.124C129.22 28.624 129.268 29.104 129.268 29.68C129.268 30.232 129.22 30.712 129.124 31.12H134.884C134.788 30.712 134.74 30.232 134.74 29.68C134.74 29.104 134.788 28.624 134.884 28.24C134.788 27.832 134.74 27.352 134.74 26.8C134.74 26.224 134.788 25.744 134.884 25.36H127.684C127.588 24.952 127.54 24.472 127.54 23.92C127.54 23.344 127.588 22.864 127.684 22.48H126.244C126.148 22.072 126.1 21.592 126.1 21.04C126.1 20.464 126.148 19.984 126.244 19.6C126.148 19.192 126.1 18.712 126.1 18.16C126.1 17.584 126.148 17.104 126.244 16.72H127.684C127.588 16.312 127.54 15.832 127.54 15.28C127.54 14.704 127.588 14.224 127.684 13.84H136.324C136.42 14.224 136.468 14.704 136.468 15.28C136.468 15.832 136.42 16.312 136.324 16.72H137.764C137.86 17.104 137.908 17.584 137.908 18.16C137.908 18.712 137.86 19.192 137.764 19.6H134.884C134.788 19.192 134.74 18.712 134.74 18.16C134.74 17.584 134.788 17.104 134.884 16.72H129.124C129.22 17.104 129.268 17.584 129.268 18.16C129.268 18.712 129.22 19.192 129.124 19.6C129.22 19.984 129.268 20.464 129.268 21.04C129.268 21.592 129.22 22.072 129.124 22.48H136.324C136.42 22.864 136.468 23.344 136.468 23.92C136.468 24.472 136.42 24.952 136.324 25.36H137.764ZM144.258 25.36C144.354 25.744 144.402 26.224 144.402 26.8C144.402 27.352 144.354 27.832 144.258 28.24C144.354 28.624 144.402 29.104 144.402 29.68C144.402 30.232 144.354 30.712 144.258 31.12H150.018C150.114 31.504 150.162 31.984 150.162 32.56C150.162 33.112 150.114 33.592 150.018 34H141.378C141.282 33.592 141.234 33.112 141.234 32.56C141.234 31.984 141.282 31.504 141.378 31.12C141.282 30.712 141.234 30.232 141.234 29.68C141.234 29.104 141.282 28.624 141.378 28.24C141.282 27.832 141.234 27.352 141.234 26.8C141.234 26.224 141.282 25.744 141.378 25.36C141.282 24.952 141.234 24.472 141.234 23.92C141.234 23.344 141.282 22.864 141.378 22.48C141.282 22.072 141.234 21.592 141.234 21.04C141.234 20.464 141.282 19.984 141.378 19.6C141.282 19.192 141.234 18.712 141.234 18.16C141.234 17.584 141.282 17.104 141.378 16.72C141.282 16.312 141.234 15.832 141.234 15.28C141.234 14.704 141.282 14.224 141.378 13.84H150.018C150.114 14.224 150.162 14.704 150.162 15.28C150.162 15.832 150.114 16.312 150.018 16.72H144.258C144.354 17.104 144.402 17.584 144.402 18.16C144.402 18.712 144.354 19.192 144.258 19.6C144.354 19.984 144.402 20.464 144.402 21.04C144.402 21.592 144.354 22.072 144.258 22.48H150.018C150.114 22.864 150.162 23.344 150.162 23.92C150.162 24.472 150.114 24.952 150.018 25.36H144.258ZM165.152 28.24C165.248 28.624 165.296 29.104 165.296 29.68C165.296 30.232 165.248 30.712 165.152 31.12H163.712C163.808 31.504 163.856 31.984 163.856 32.56C163.856 33.112 163.808 33.592 163.712 34H156.512C156.416 33.592 156.368 33.112 156.368 32.56C156.368 31.984 156.416 31.504 156.512 31.12H155.072C154.976 30.712 154.928 30.232 154.928 29.68C154.928 29.104 154.976 28.624 155.072 28.24H153.632C153.536 27.832 153.488 27.352 153.488 26.8C153.488 26.224 153.536 25.744 153.632 25.36C153.536 24.952 153.488 24.472 153.488 23.92C153.488 23.344 153.536 22.864 153.632 22.48C153.536 22.072 153.488 21.592 153.488 21.04C153.488 20.464 153.536 19.984 153.632 19.6H155.072C154.976 19.192 154.928 18.712 154.928 18.16C154.928 17.584 154.976 17.104 155.072 16.72H156.512C156.416 16.312 156.368 15.832 156.368 15.28C156.368 14.704 156.416 14.224 156.512 13.84H163.712C163.808 14.224 163.856 14.704 163.856 15.28C163.856 15.832 163.808 16.312 163.712 16.72H165.152C165.248 17.104 165.296 17.584 165.296 18.16C165.296 18.712 165.248 19.192 165.152 19.6H162.272C162.176 19.192 162.128 18.712 162.128 18.16C162.128 17.584 162.176 17.104 162.272 16.72H157.952C158.048 17.104 158.096 17.584 158.096 18.16C158.096 18.712 158.048 19.192 157.952 19.6H156.512C156.608 19.984 156.656 20.464 156.656 21.04C156.656 21.592 156.608 22.072 156.512 22.48C156.608 22.864 156.656 23.344 156.656 23.92C156.656 24.472 156.608 24.952 156.512 25.36C156.608 25.744 156.656 26.224 156.656 26.8C156.656 27.352 156.608 27.832 156.512 28.24H157.952C158.048 28.624 158.096 29.104 158.096 29.68C158.096 30.232 158.048 30.712 157.952 31.12H162.272C162.176 30.712 162.128 30.232 162.128 29.68C162.128 29.104 162.176 28.624 162.272 28.24H165.152ZM64.9733 53.08C65.0373 53.336 65.0693 53.656 65.0693 54.04C65.0693 54.408 65.0373 54.728 64.9733 55H63.0533C62.9893 54.728 62.9573 54.408 62.9573 54.04C62.9573 53.656 62.9893 53.336 63.0533 53.08H62.3333C62.2693 52.808 62.2373 52.488 62.2373 52.12C62.2373 51.736 62.2693 51.416 62.3333 51.16H61.6133C61.5493 50.888 61.5173 50.568 61.5173 50.2C61.5173 49.816 61.5493 49.496 61.6133 49.24H59.2133C59.2773 49.496 59.3093 49.816 59.3093 50.2C59.3093 50.568 59.2773 50.888 59.2133 51.16C59.2773 51.416 59.3093 51.736 59.3093 52.12C59.3093 52.488 59.2773 52.808 59.2133 53.08C59.2773 53.336 59.3093 53.656 59.3093 54.04C59.3093 54.408 59.2773 54.728 59.2133 55H57.2933C57.2293 54.728 57.1973 54.408 57.1973 54.04C57.1973 53.656 57.2293 53.336 57.2933 53.08C57.2293 52.808 57.1973 52.488 57.1973 52.12C57.1973 51.736 57.2293 51.416 57.2933 51.16C57.2293 50.888 57.1973 50.568 57.1973 50.2C57.1973 49.816 57.2293 49.496 57.2933 49.24C57.2293 48.968 57.1973 48.648 57.1973 48.28C57.1973 47.896 57.2293 47.576 57.2933 47.32C57.2293 47.048 57.1973 46.728 57.1973 46.36C57.1973 45.976 57.2293 45.656 57.2933 45.4C57.2293 45.128 57.1973 44.808 57.1973 44.44C57.1973 44.056 57.2293 43.736 57.2933 43.48C57.2293 43.208 57.1973 42.888 57.1973 42.52C57.1973 42.136 57.2293 41.816 57.2933 41.56H64.0133C64.0773 41.816 64.1093 42.136 64.1093 42.52C64.1093 42.888 64.0773 43.208 64.0133 43.48H64.9733C65.0373 43.736 65.0693 44.056 65.0693 44.44C65.0693 44.808 65.0373 45.128 64.9733 45.4H64.4933C64.5573 45.656 64.5893 45.976 64.5893 46.36C64.5893 46.728 64.5573 47.048 64.4933 47.32H63.0533C63.1173 47.576 63.1493 47.896 63.1493 48.28C63.1493 48.648 63.1173 48.968 63.0533 49.24H63.5333C63.5973 49.496 63.6293 49.816 63.6293 50.2C63.6293 50.568 63.5973 50.888 63.5333 51.16H64.2533C64.3173 51.416 64.3493 51.736 64.3493 52.12C64.3493 52.488 64.3173 52.808 64.2533 53.08H64.9733ZM62.5733 47.32C62.5093 47.048 62.4773 46.728 62.4773 46.36C62.4773 45.976 62.5093 45.656 62.5733 45.4C62.5093 45.128 62.4773 44.808 62.4773 44.44C62.4773 44.056 62.5093 43.736 62.5733 43.48H59.2133C59.2773 43.736 59.3093 44.056 59.3093 44.44C59.3093 44.808 59.2773 45.128 59.2133 45.4C59.2773 45.656 59.3093 45.976 59.3093 46.36C59.3093 46.728 59.2773 47.048 59.2133 47.32H62.5733ZM69.3026 49.24C69.3666 49.496 69.3986 49.816 69.3986 50.2C69.3986 50.568 69.3666 50.888 69.3026 51.16C69.3666 51.416 69.3986 51.736 69.3986 52.12C69.3986 52.488 69.3666 52.808 69.3026 53.08H73.1426C73.2066 53.336 73.2386 53.656 73.2386 54.04C73.2386 54.408 73.2066 54.728 73.1426 55H67.3826C67.3186 54.728 67.2866 54.408 67.2866 54.04C67.2866 53.656 67.3186 53.336 67.3826 53.08C67.3186 52.808 67.2866 52.488 67.2866 52.12C67.2866 51.736 67.3186 51.416 67.3826 51.16C67.3186 50.888 67.2866 50.568 67.2866 50.2C67.2866 49.816 67.3186 49.496 67.3826 49.24C67.3186 48.968 67.2866 48.648 67.2866 48.28C67.2866 47.896 67.3186 47.576 67.3826 47.32C67.3186 47.048 67.2866 46.728 67.2866 46.36C67.2866 45.976 67.3186 45.656 67.3826 45.4C67.3186 45.128 67.2866 44.808 67.2866 44.44C67.2866 44.056 67.3186 43.736 67.3826 43.48C67.3186 43.208 67.2866 42.888 67.2866 42.52C67.2866 42.136 67.3186 41.816 67.3826 41.56H73.1426C73.2066 41.816 73.2386 42.136 73.2386 42.52C73.2386 42.888 73.2066 43.208 73.1426 43.48H69.3026C69.3666 43.736 69.3986 44.056 69.3986 44.44C69.3986 44.808 69.3666 45.128 69.3026 45.4C69.3666 45.656 69.3986 45.976 69.3986 46.36C69.3986 46.728 69.3666 47.048 69.3026 47.32H73.1426C73.2066 47.576 73.2386 47.896 73.2386 48.28C73.2386 48.648 73.2066 48.968 73.1426 49.24H69.3026ZM83.232 49.24C83.296 49.496 83.328 49.816 83.328 50.2C83.328 50.568 83.296 50.888 83.232 51.16C83.296 51.416 83.328 51.736 83.328 52.12C83.328 52.488 83.296 52.808 83.232 53.08H82.272C82.336 53.336 82.368 53.656 82.368 54.04C82.368 54.408 82.336 54.728 82.272 55H76.512C76.448 54.728 76.416 54.408 76.416 54.04C76.416 53.656 76.448 53.336 76.512 53.08H75.552C75.488 52.808 75.456 52.488 75.456 52.12C75.456 51.736 75.488 51.416 75.552 51.16H77.472C77.536 51.416 77.568 51.736 77.568 52.12C77.568 52.488 77.536 52.808 77.472 53.08H81.312C81.248 52.808 81.216 52.488 81.216 52.12C81.216 51.736 81.248 51.416 81.312 51.16C81.248 50.888 81.216 50.568 81.216 50.2C81.216 49.816 81.248 49.496 81.312 49.24H76.512C76.448 48.968 76.416 48.648 76.416 48.28C76.416 47.896 76.448 47.576 76.512 47.32H75.552C75.488 47.048 75.456 46.728 75.456 46.36C75.456 45.976 75.488 45.656 75.552 45.4C75.488 45.128 75.456 44.808 75.456 44.44C75.456 44.056 75.488 43.736 75.552 43.48H76.512C76.448 43.208 76.416 42.888 76.416 42.52C76.416 42.136 76.448 41.816 76.512 41.56H82.272C82.336 41.816 82.368 42.136 82.368 42.52C82.368 42.888 82.336 43.208 82.272 43.48H83.232C83.296 43.736 83.328 44.056 83.328 44.44C83.328 44.808 83.296 45.128 83.232 45.4H81.312C81.248 45.128 81.216 44.808 81.216 44.44C81.216 44.056 81.248 43.736 81.312 43.48H77.472C77.536 43.736 77.568 44.056 77.568 44.44C77.568 44.808 77.536 45.128 77.472 45.4C77.536 45.656 77.568 45.976 77.568 46.36C77.568 46.728 77.536 47.048 77.472 47.32H82.272C82.336 47.576 82.368 47.896 82.368 48.28C82.368 48.648 82.336 48.968 82.272 49.24H83.232ZM87.5614 49.24C87.6254 49.496 87.6574 49.816 87.6574 50.2C87.6574 50.568 87.6254 50.888 87.5614 51.16C87.6254 51.416 87.6574 51.736 87.6574 52.12C87.6574 52.488 87.6254 52.808 87.5614 53.08H91.4014C91.4654 53.336 91.4974 53.656 91.4974 54.04C91.4974 54.408 91.4654 54.728 91.4014 55H85.6414C85.5774 54.728 85.5454 54.408 85.5454 54.04C85.5454 53.656 85.5774 53.336 85.6414 53.08C85.5774 52.808 85.5454 52.488 85.5454 52.12C85.5454 51.736 85.5774 51.416 85.6414 51.16C85.5774 50.888 85.5454 50.568 85.5454 50.2C85.5454 49.816 85.5774 49.496 85.6414 49.24C85.5774 48.968 85.5454 48.648 85.5454 48.28C85.5454 47.896 85.5774 47.576 85.6414 47.32C85.5774 47.048 85.5454 46.728 85.5454 46.36C85.5454 45.976 85.5774 45.656 85.6414 45.4C85.5774 45.128 85.5454 44.808 85.5454 44.44C85.5454 44.056 85.5774 43.736 85.6414 43.48C85.5774 43.208 85.5454 42.888 85.5454 42.52C85.5454 42.136 85.5774 41.816 85.6414 41.56H91.4014C91.4654 41.816 91.4974 42.136 91.4974 42.52C91.4974 42.888 91.4654 43.208 91.4014 43.48H87.5614C87.6254 43.736 87.6574 44.056 87.6574 44.44C87.6574 44.808 87.6254 45.128 87.5614 45.4C87.6254 45.656 87.6574 45.976 87.6574 46.36C87.6574 46.728 87.6254 47.048 87.5614 47.32H91.4014C91.4654 47.576 91.4974 47.896 91.4974 48.28C91.4974 48.648 91.4654 48.968 91.4014 49.24H87.5614ZM101.587 52.12C101.587 52.488 101.555 52.808 101.491 53.08C101.555 53.336 101.587 53.656 101.587 54.04C101.587 54.408 101.555 54.728 101.491 55H99.5708C99.5068 54.728 99.4748 54.408 99.4748 54.04C99.4748 53.656 99.5068 53.336 99.5708 53.08C99.5068 52.808 99.4748 52.488 99.4748 52.12C99.4748 51.736 99.5068 51.416 99.5708 51.16H95.7308C95.7948 51.416 95.8268 51.736 95.8268 52.12C95.8268 52.488 95.7948 52.808 95.7308 53.08C95.7948 53.336 95.8268 53.656 95.8268 54.04C95.8268 54.408 95.7948 54.728 95.7308 55H93.8108C93.7468 54.728 93.7148 54.408 93.7148 54.04C93.7148 53.656 93.7468 53.336 93.8108 53.08C93.7468 52.808 93.7148 52.488 93.7148 52.12C93.7148 51.736 93.7468 51.416 93.8108 51.16H94.5308C94.4668 50.888 94.4348 50.568 94.4348 50.2C94.4348 49.816 94.4668 49.496 94.5308 49.24C94.4668 48.968 94.4348 48.648 94.4348 48.28C94.4348 47.896 94.4668 47.576 94.5308 47.32H95.0108C94.9468 47.048 94.9148 46.728 94.9148 46.36C94.9148 45.976 94.9468 45.656 95.0108 45.4H95.7308C95.6668 45.128 95.6348 44.808 95.6348 44.44C95.6348 44.056 95.6668 43.736 95.7308 43.48H96.2108C96.1468 43.208 96.1148 42.888 96.1148 42.52C96.1148 42.136 96.1468 41.816 96.2108 41.56H99.0908C99.1548 41.816 99.1868 42.136 99.1868 42.52C99.1868 42.888 99.1548 43.208 99.0908 43.48H99.5708C99.6348 43.736 99.6668 44.056 99.6668 44.44C99.6668 44.808 99.6348 45.128 99.5708 45.4H100.291C100.355 45.656 100.387 45.976 100.387 46.36C100.387 46.728 100.355 47.048 100.291 47.32H100.771C100.835 47.576 100.867 47.896 100.867 48.28C100.867 48.648 100.835 48.968 100.771 49.24C100.835 49.496 100.867 49.816 100.867 50.2C100.867 50.568 100.835 50.888 100.771 51.16H101.491C101.555 51.416 101.587 51.736 101.587 52.12ZM98.8508 49.24C98.7868 48.968 98.7548 48.648 98.7548 48.28C98.7548 47.896 98.7868 47.576 98.8508 47.32H98.3708C98.3068 47.048 98.2748 46.728 98.2748 46.36C98.2748 45.976 98.3068 45.656 98.3708 45.4H96.9308C96.9948 45.656 97.0268 45.976 97.0268 46.36C97.0268 46.728 96.9948 47.048 96.9308 47.32H96.4508C96.5148 47.576 96.5468 47.896 96.5468 48.28C96.5468 48.648 96.5148 48.968 96.4508 49.24H98.8508ZM110.62 53.08C110.684 53.336 110.716 53.656 110.716 54.04C110.716 54.408 110.684 54.728 110.62 55H108.7C108.636 54.728 108.604 54.408 108.604 54.04C108.604 53.656 108.636 53.336 108.7 53.08H107.98C107.916 52.808 107.884 52.488 107.884 52.12C107.884 51.736 107.916 51.416 107.98 51.16H107.26C107.196 50.888 107.164 50.568 107.164 50.2C107.164 49.816 107.196 49.496 107.26 49.24H104.86C104.924 49.496 104.956 49.816 104.956 50.2C104.956 50.568 104.924 50.888 104.86 51.16C104.924 51.416 104.956 51.736 104.956 52.12C104.956 52.488 104.924 52.808 104.86 53.08C104.924 53.336 104.956 53.656 104.956 54.04C104.956 54.408 104.924 54.728 104.86 55H102.94C102.876 54.728 102.844 54.408 102.844 54.04C102.844 53.656 102.876 53.336 102.94 53.08C102.876 52.808 102.844 52.488 102.844 52.12C102.844 51.736 102.876 51.416 102.94 51.16C102.876 50.888 102.844 50.568 102.844 50.2C102.844 49.816 102.876 49.496 102.94 49.24C102.876 48.968 102.844 48.648 102.844 48.28C102.844 47.896 102.876 47.576 102.94 47.32C102.876 47.048 102.844 46.728 102.844 46.36C102.844 45.976 102.876 45.656 102.94 45.4C102.876 45.128 102.844 44.808 102.844 44.44C102.844 44.056 102.876 43.736 102.94 43.48C102.876 43.208 102.844 42.888 102.844 42.52C102.844 42.136 102.876 41.816 102.94 41.56H109.66C109.724 41.816 109.756 42.136 109.756 42.52C109.756 42.888 109.724 43.208 109.66 43.48H110.62C110.684 43.736 110.716 44.056 110.716 44.44C110.716 44.808 110.684 45.128 110.62 45.4H110.14C110.204 45.656 110.236 45.976 110.236 46.36C110.236 46.728 110.204 47.048 110.14 47.32H108.7C108.764 47.576 108.796 47.896 108.796 48.28C108.796 48.648 108.764 48.968 108.7 49.24H109.18C109.244 49.496 109.276 49.816 109.276 50.2C109.276 50.568 109.244 50.888 109.18 51.16H109.9C109.964 51.416 109.996 51.736 109.996 52.12C109.996 52.488 109.964 52.808 109.9 53.08H110.62ZM108.22 47.32C108.156 47.048 108.124 46.728 108.124 46.36C108.124 45.976 108.156 45.656 108.22 45.4C108.156 45.128 108.124 44.808 108.124 44.44C108.124 44.056 108.156 43.736 108.22 43.48H104.86C104.924 43.736 104.956 44.056 104.956 44.44C104.956 44.808 104.924 45.128 104.86 45.4C104.924 45.656 104.956 45.976 104.956 46.36C104.956 46.728 104.924 47.048 104.86 47.32H108.22ZM119.75 51.16C119.814 51.416 119.846 51.736 119.846 52.12C119.846 52.488 119.814 52.808 119.75 53.08H118.79C118.854 53.336 118.886 53.656 118.886 54.04C118.886 54.408 118.854 54.728 118.79 55H113.99C113.926 54.728 113.894 54.408 113.894 54.04C113.894 53.656 113.926 53.336 113.99 53.08H113.03C112.966 52.808 112.934 52.488 112.934 52.12C112.934 51.736 112.966 51.416 113.03 51.16H112.07C112.006 50.888 111.974 50.568 111.974 50.2C111.974 49.816 112.006 49.496 112.07 49.24C112.006 48.968 111.974 48.648 111.974 48.28C111.974 47.896 112.006 47.576 112.07 47.32C112.006 47.048 111.974 46.728 111.974 46.36C111.974 45.976 112.006 45.656 112.07 45.4H113.03C112.966 45.128 112.934 44.808 112.934 44.44C112.934 44.056 112.966 43.736 113.03 43.48H113.99C113.926 43.208 113.894 42.888 113.894 42.52C113.894 42.136 113.926 41.816 113.99 41.56H118.79C118.854 41.816 118.886 42.136 118.886 42.52C118.886 42.888 118.854 43.208 118.79 43.48H119.75C119.814 43.736 119.846 44.056 119.846 44.44C119.846 44.808 119.814 45.128 119.75 45.4H117.83C117.766 45.128 117.734 44.808 117.734 44.44C117.734 44.056 117.766 43.736 117.83 43.48H114.95C115.014 43.736 115.046 44.056 115.046 44.44C115.046 44.808 115.014 45.128 114.95 45.4H113.99C114.054 45.656 114.086 45.976 114.086 46.36C114.086 46.728 114.054 47.048 113.99 47.32C114.054 47.576 114.086 47.896 114.086 48.28C114.086 48.648 114.054 48.968 113.99 49.24C114.054 49.496 114.086 49.816 114.086 50.2C114.086 50.568 114.054 50.888 113.99 51.16H114.95C115.014 51.416 115.046 51.736 115.046 52.12C115.046 52.488 115.014 52.808 114.95 53.08H117.83C117.766 52.808 117.734 52.488 117.734 52.12C117.734 51.736 117.766 51.416 117.83 51.16H119.75ZM128.879 43.48C128.943 43.736 128.975 44.056 128.975 44.44C128.975 44.808 128.943 45.128 128.879 45.4C128.943 45.656 128.975 45.976 128.975 46.36C128.975 46.728 128.943 47.048 128.879 47.32C128.943 47.576 128.975 47.896 128.975 48.28C128.975 48.648 128.943 48.968 128.879 49.24C128.943 49.496 128.975 49.816 128.975 50.2C128.975 50.568 128.943 50.888 128.879 51.16C128.943 51.416 128.975 51.736 128.975 52.12C128.975 52.488 128.943 52.808 128.879 53.08C128.943 53.336 128.975 53.656 128.975 54.04C128.975 54.408 128.943 54.728 128.879 55H126.959C126.895 54.728 126.863 54.408 126.863 54.04C126.863 53.656 126.895 53.336 126.959 53.08C126.895 52.808 126.863 52.488 126.863 52.12C126.863 51.736 126.895 51.416 126.959 51.16C126.895 50.888 126.863 50.568 126.863 50.2C126.863 49.816 126.895 49.496 126.959 49.24H123.119C123.183 49.496 123.215 49.816 123.215 50.2C123.215 50.568 123.183 50.888 123.119 51.16C123.183 51.416 123.215 51.736 123.215 52.12C123.215 52.488 123.183 52.808 123.119 53.08C123.183 53.336 123.215 53.656 123.215 54.04C123.215 54.408 123.183 54.728 123.119 55H121.199C121.135 54.728 121.103 54.408 121.103 54.04C121.103 53.656 121.135 53.336 121.199 53.08C121.135 52.808 121.103 52.488 121.103 52.12C121.103 51.736 121.135 51.416 121.199 51.16C121.135 50.888 121.103 50.568 121.103 50.2C121.103 49.816 121.135 49.496 121.199 49.24C121.135 48.968 121.103 48.648 121.103 48.28C121.103 47.896 121.135 47.576 121.199 47.32C121.135 47.048 121.103 46.728 121.103 46.36C121.103 45.976 121.135 45.656 121.199 45.4C121.135 45.128 121.103 44.808 121.103 44.44C121.103 44.056 121.135 43.736 121.199 43.48C121.135 43.208 121.103 42.888 121.103 42.52C121.103 42.136 121.135 41.816 121.199 41.56H123.119C123.183 41.816 123.215 42.136 123.215 42.52C123.215 42.888 123.183 43.208 123.119 43.48C123.183 43.736 123.215 44.056 123.215 44.44C123.215 44.808 123.183 45.128 123.119 45.4C123.183 45.656 123.215 45.976 123.215 46.36C123.215 46.728 123.183 47.048 123.119 47.32H126.959C126.895 47.048 126.863 46.728 126.863 46.36C126.863 45.976 126.895 45.656 126.959 45.4C126.895 45.128 126.863 44.808 126.863 44.44C126.863 44.056 126.895 43.736 126.959 43.48C126.895 43.208 126.863 42.888 126.863 42.52C126.863 42.136 126.895 41.816 126.959 41.56H128.879C128.943 41.816 128.975 42.136 128.975 42.52C128.975 42.888 128.943 43.208 128.879 43.48ZM133.208 49.24C133.272 49.496 133.304 49.816 133.304 50.2C133.304 50.568 133.272 50.888 133.208 51.16C133.272 51.416 133.304 51.736 133.304 52.12C133.304 52.488 133.272 52.808 133.208 53.08H137.048C137.112 53.336 137.144 53.656 137.144 54.04C137.144 54.408 137.112 54.728 137.048 55H131.288C131.224 54.728 131.192 54.408 131.192 54.04C131.192 53.656 131.224 53.336 131.288 53.08C131.224 52.808 131.192 52.488 131.192 52.12C131.192 51.736 131.224 51.416 131.288 51.16C131.224 50.888 131.192 50.568 131.192 50.2C131.192 49.816 131.224 49.496 131.288 49.24C131.224 48.968 131.192 48.648 131.192 48.28C131.192 47.896 131.224 47.576 131.288 47.32C131.224 47.048 131.192 46.728 131.192 46.36C131.192 45.976 131.224 45.656 131.288 45.4C131.224 45.128 131.192 44.808 131.192 44.44C131.192 44.056 131.224 43.736 131.288 43.48C131.224 43.208 131.192 42.888 131.192 42.52C131.192 42.136 131.224 41.816 131.288 41.56H137.048C137.112 41.816 137.144 42.136 137.144 42.52C137.144 42.888 137.112 43.208 137.048 43.48H133.208C133.272 43.736 133.304 44.056 133.304 44.44C133.304 44.808 133.272 45.128 133.208 45.4C133.272 45.656 133.304 45.976 133.304 46.36C133.304 46.728 133.272 47.048 133.208 47.32H137.048C137.112 47.576 137.144 47.896 137.144 48.28C137.144 48.648 137.112 48.968 137.048 49.24H133.208ZM147.138 53.08C147.202 53.336 147.234 53.656 147.234 54.04C147.234 54.408 147.202 54.728 147.138 55H145.218C145.154 54.728 145.122 54.408 145.122 54.04C145.122 53.656 145.154 53.336 145.218 53.08H144.498C144.434 52.808 144.402 52.488 144.402 52.12C144.402 51.736 144.434 51.416 144.498 51.16H143.778C143.714 50.888 143.682 50.568 143.682 50.2C143.682 49.816 143.714 49.496 143.778 49.24H141.378C141.442 49.496 141.474 49.816 141.474 50.2C141.474 50.568 141.442 50.888 141.378 51.16C141.442 51.416 141.474 51.736 141.474 52.12C141.474 52.488 141.442 52.808 141.378 53.08C141.442 53.336 141.474 53.656 141.474 54.04C141.474 54.408 141.442 54.728 141.378 55H139.458C139.394 54.728 139.362 54.408 139.362 54.04C139.362 53.656 139.394 53.336 139.458 53.08C139.394 52.808 139.362 52.488 139.362 52.12C139.362 51.736 139.394 51.416 139.458 51.16C139.394 50.888 139.362 50.568 139.362 50.2C139.362 49.816 139.394 49.496 139.458 49.24C139.394 48.968 139.362 48.648 139.362 48.28C139.362 47.896 139.394 47.576 139.458 47.32C139.394 47.048 139.362 46.728 139.362 46.36C139.362 45.976 139.394 45.656 139.458 45.4C139.394 45.128 139.362 44.808 139.362 44.44C139.362 44.056 139.394 43.736 139.458 43.48C139.394 43.208 139.362 42.888 139.362 42.52C139.362 42.136 139.394 41.816 139.458 41.56H146.178C146.242 41.816 146.274 42.136 146.274 42.52C146.274 42.888 146.242 43.208 146.178 43.48H147.138C147.202 43.736 147.234 44.056 147.234 44.44C147.234 44.808 147.202 45.128 147.138 45.4H146.658C146.722 45.656 146.754 45.976 146.754 46.36C146.754 46.728 146.722 47.048 146.658 47.32H145.218C145.282 47.576 145.314 47.896 145.314 48.28C145.314 48.648 145.282 48.968 145.218 49.24H145.698C145.762 49.496 145.794 49.816 145.794 50.2C145.794 50.568 145.762 50.888 145.698 51.16H146.418C146.482 51.416 146.514 51.736 146.514 52.12C146.514 52.488 146.482 52.808 146.418 53.08H147.138ZM144.738 47.32C144.674 47.048 144.642 46.728 144.642 46.36C144.642 45.976 144.674 45.656 144.738 45.4C144.674 45.128 144.642 44.808 144.642 44.44C144.642 44.056 144.674 43.736 144.738 43.48H141.378C141.442 43.736 141.474 44.056 141.474 44.44C141.474 44.808 141.442 45.128 141.378 45.4C141.442 45.656 141.474 45.976 141.474 46.36C141.474 46.728 141.442 47.048 141.378 47.32H144.738Z" fill="#E9E3DC"/>
<path d="M47.3333 32.7788C47.3333 34.3275 46.0666 35.5797 44.4999 35.5797H42.4999V29.978H44.4999C46.0666 29.978 47.3333 31.2301 47.3333 32.7788Z" fill="#E9E3DC"/>
<path d="M16.6667 12.9725C13.3 12.9725 10.5833 10.2866 10.5833 6.958C10.5833 3.62942 13.3 0.943481 16.6667 0.943481C20.0333 0.943481 22.75 3.62942 22.75 6.958C22.75 10.2701 20.0167 12.9725 16.6667 12.9725Z" fill="#E9E3DC"/>
<path d="M2.83333 44.4787C1.26667 44.4787 0 43.2263 0 41.6774V21.9036C0 17.7182 3.43333 14.3237 7.66667 14.3237H25.3333C29.5667 14.3237 33 17.7182 33 21.9036V23.8645H22V44.4787H7.66667V23.881H5.66667V41.6774C5.66667 43.2263 4.4 44.4787 2.83333 44.4787Z" fill="#E9E3DC"/>
</svg>
