<svg width="41" height="41" viewBox="0 0 41 41" fill="none" xmlns="http://www.w3.org/2000/svg">
<g style="mix-blend-mode:luminosity" clip-path="url(#clip0_2011_428)">
<path d="M20.1042 10.5729C28.3566 4.1663 24.1213 0 24.1213 0C24.7516 6.62307 17.3025 8.1869 15.3057 12.7381C13.9432 15.8437 16.2388 18.5629 20.1015 21.9902C19.76 21.2311 19.2333 20.4936 18.7002 19.7469C16.8815 17.2001 14.9871 14.5469 20.1042 10.5729Z" fill="#E76F00"/>
<path d="M21.4216 23.3951C21.4216 23.3951 23.9043 21.3921 21.9382 19.1661C15.2732 11.6141 29.2277 8.18689 29.2277 8.18689C20.7078 12.2913 21.9798 14.7275 24.1212 17.6872C26.414 20.8608 21.4216 23.3951 21.4216 23.3951Z" fill="#E76F00"/>
<path d="M28.7313 29.3684C36.3789 25.4605 32.8431 21.7051 30.375 22.2111C29.77 22.3348 29.5003 22.4422 29.5003 22.4422C29.5003 22.4422 29.7249 22.0962 30.1538 21.9464C35.0364 20.2585 38.7914 26.9249 28.5776 29.5653C28.5776 29.5653 28.696 29.4613 28.7313 29.3684Z" fill="#E9E3DC"/>
<path d="M12.818 24.4222C8.03313 23.7939 15.4416 22.0635 15.4416 22.0635C15.4416 22.0635 12.5646 21.8728 9.02621 23.5546C4.84228 25.5449 19.3756 26.4501 26.8987 24.5044C27.6808 23.9792 28.7618 23.524 28.7618 23.524C28.7618 23.524 25.6833 24.0646 22.6173 24.319C18.8659 24.628 14.8383 24.6883 12.818 24.4222Z" fill="#E9E3DC"/>
<path d="M14.6387 28.1536C11.9704 27.8823 13.7175 26.6105 13.7175 26.6105C6.81307 28.864 17.5591 31.4195 27.2069 28.6452C26.1813 28.2897 25.5292 27.6394 25.5292 27.6394C20.814 28.5323 18.0892 28.5037 14.6387 28.1536Z" fill="#E9E3DC"/>
<path d="M15.8012 32.1911C13.135 31.8898 14.6926 30.999 14.6926 30.999C8.42505 32.7211 18.5048 36.2789 26.4845 32.9159C25.1775 32.4161 24.2417 31.8392 24.2417 31.8392C20.6821 32.5015 19.0312 32.5535 15.8012 32.1911Z" fill="#E9E3DC"/>
<path d="M32.4913 34.2451C32.4913 34.2451 33.644 35.1791 31.2218 35.9016C26.6158 37.2737 12.0514 37.688 8.00543 35.9563C6.55102 35.3341 9.27846 34.4707 10.1364 34.2894C11.0312 34.0987 11.5425 34.1342 11.5425 34.1342C9.92502 33.0138 1.08791 36.3343 7.05366 37.2853C23.3232 39.8799 36.7114 36.1169 32.4913 34.2451Z" fill="#E9E3DC"/>
<path d="M35.0733 36.2857C34.8064 39.7013 23.5338 40.4198 16.1931 39.9578C11.4042 39.6558 10.4445 38.901 10.4304 38.89C15.0137 39.6331 22.7411 39.7684 29.0066 38.6088C34.5601 37.5805 35.0733 36.2857 35.0733 36.2857Z" fill="#E9E3DC"/>
</g>
<defs>
<clipPath id="clip0_2011_428">
<rect width="40.0838" height="40.0838" fill="white"/>
</clipPath>
</defs>
</svg>
