<svg width="16" height="16" viewBox="0 0 16 16" fill="none" xmlns="http://www.w3.org/2000/svg">
<path d="M9.5625 13.4688C9.92708 13.4688 10.2917 13.2344 10.6562 12.7656C11.0208 12.2708 11.2552 11.5286 11.3594 10.5391C10.5781 10.7474 9.97917 11.099 9.5625 11.5938C9.14583 12.0885 8.9375 12.5052 8.9375 12.8438C8.9375 13.026 9.0026 13.1823 9.13281 13.3125C9.26302 13.4167 9.40625 13.4688 9.5625 13.4688ZM1.82812 3.74219L0.382812 2.33594C0.643229 2.02344 0.877604 1.76302 1.08594 1.55469C1.78906 0.851562 2.54427 0.5 3.35156 0.5C3.84635 0.5 4.3151 0.695312 4.75781 1.08594C5.22656 1.47656 5.46094 2.07552 5.46094 2.88281C5.46094 3.66406 5.09635 4.57552 4.36719 5.61719C3.63802 6.63281 3.13021 7.60938 2.84375 8.54688C2.6875 8.98958 2.63542 9.36719 2.6875 9.67969C2.76562 9.99219 2.90885 10.1484 3.11719 10.1484C3.35156 10.1484 3.66406 9.91406 4.05469 9.44531C4.6276 8.8724 5.26562 8.11719 5.96875 7.17969C7.21875 5.61719 8.58594 4.83594 10.0703 4.83594C11.1641 4.83594 11.9714 5.20052 12.4922 5.92969C13.0391 6.63281 13.3516 7.42708 13.4297 8.3125H15.5V10.3828H13.4688C13.3125 12.1797 12.8307 13.4818 12.0234 14.2891C11.2161 15.0964 10.3828 15.5 9.52344 15.5C8.79427 15.5 8.16927 15.2526 7.64844 14.7578C7.1276 14.237 6.86719 13.625 6.86719 12.9219C6.86719 12.0625 7.25781 11.1641 8.03906 10.2266C8.82031 9.28906 9.92708 8.6901 11.3594 8.42969C11.3333 8.22135 11.3073 8.07812 11.2812 8C11.2812 7.92188 11.2422 7.80469 11.1641 7.64844C11.112 7.46615 11.0339 7.33594 10.9297 7.25781C10.8516 7.17969 10.7214 7.11458 10.5391 7.0625C10.3568 6.98438 10.1354 6.94531 9.875 6.94531C9.14583 6.94531 8.01302 7.89583 6.47656 9.79688C6.03385 10.3438 5.72135 10.7214 5.53906 10.9297C5.38281 11.112 5.14844 11.3333 4.83594 11.5938C4.52344 11.8542 4.22396 12.0234 3.9375 12.1016C3.02604 12.388 2.24479 12.2188 1.59375 11.5938C0.942708 10.9688 0.617188 10.1875 0.617188 9.25C0.617188 8.85938 0.682292 8.42969 0.8125 7.96094C0.96875 7.49219 1.16406 7.03646 1.39844 6.59375C1.63281 6.15104 1.85417 5.76042 2.0625 5.42188C2.27083 5.05729 2.46615 4.73177 2.64844 4.44531C2.85677 4.15885 2.97396 4.0026 3 3.97656C3.44271 3.2474 3.52083 2.83073 3.23438 2.72656C3.05208 2.64844 2.58333 2.98698 1.82812 3.74219Z" fill="#D1EF53"/>
</svg>
