<svg width="118" height="75" viewBox="0 0 118 75" fill="none" xmlns="http://www.w3.org/2000/svg">
<circle cx="50.75" cy="38.25" r="50.25" fill="#C76526"/>
<path d="M36.9709 35.3628C36.9709 35.3701 36.9746 35.3848 36.9819 35.4067L36.949 35.4946H36.96V35.5166C36.96 35.5312 36.9563 35.5422 36.949 35.5496C36.6047 35.8132 35.7625 36.0549 34.4221 36.2747C33.0891 36.4944 32.1699 36.6042 31.6646 36.6042C31.1665 36.6042 30.8882 36.6006 30.8296 36.5933L30.2693 36.6262C29.6833 36.6628 29.3464 36.6812 29.2585 36.6812C26.1824 36.6812 23.8386 35.9084 22.2273 34.363C20.6233 32.8176 19.8213 30.624 19.8213 27.7822C19.8213 24.9331 20.6855 22.7725 22.4141 21.3003C24.1499 19.8281 26.4973 19.092 29.4563 19.092C29.9983 19.092 30.6648 19.1433 31.4558 19.2458C32.2542 19.3484 32.9536 19.4985 33.5542 19.6963C34.2866 19.9966 34.9128 20.4324 35.4329 21.0037C35.9602 21.5676 36.3044 22.1938 36.4656 22.8823C36.4949 23.0728 36.5278 23.373 36.5645 23.7832C36.6084 24.186 36.645 24.4827 36.6743 24.6731C36.6304 24.783 36.4729 24.8379 36.2019 24.8379L30.6208 24.739C30.5916 24.7244 30.5549 24.6255 30.511 24.4424V24.4753C30.3792 23.8821 30.1191 23.5195 29.731 23.3877C29.5552 23.3218 29.3245 23.2888 29.0388 23.2888C28.7532 23.2888 28.4822 23.3364 28.2258 23.4316C27.9768 23.5269 27.7681 23.6587 27.5996 23.8271C27.4312 23.9956 27.281 24.1934 27.1492 24.4204C27.0173 24.6401 26.9185 24.8782 26.8525 25.1345C26.7866 25.3909 26.728 25.6545 26.6768 25.9255C26.6255 26.1965 26.5925 26.4639 26.5779 26.7275C26.5706 26.9912 26.5596 27.2439 26.5449 27.4856C26.5376 27.7273 26.5376 27.9287 26.5449 28.0898C26.5522 28.2437 26.5559 28.3462 26.5559 28.3975V29.1555C26.5559 29.6316 26.5779 29.9648 26.6218 30.1553C26.6658 30.3384 26.717 30.5435 26.7756 30.7705C26.8342 30.9902 26.9038 31.1587 26.9844 31.2759C27.27 31.6787 27.5776 31.9607 27.9072 32.1218C28.2441 32.2756 28.7642 32.3525 29.4673 32.3525C30.1777 32.3525 30.8516 32.2463 31.4888 32.0339L31.5437 30.2981L30.7527 30.2322L30.6428 30.2871H29.5002L29.3684 30.2981L29.0938 30.0125C29.0791 29.8879 29.0718 29.6902 29.0718 29.4192V26.9583C29.0718 26.8337 29.1597 26.7092 29.3354 26.5847H30.0715C30.7087 26.5847 31.4229 26.592 32.2139 26.6067H32.3237C33.0415 26.6213 33.5872 26.6287 33.9607 26.6287H34.6199L34.8726 26.6177C36.1763 26.6177 36.9197 26.7019 37.1028 26.8704L36.9709 35.209V35.3628ZM44.4307 27.6504C44.4307 27.6577 44.427 27.676 44.4197 27.7053V27.7383C44.3904 28.0459 44.3757 28.3901 44.3757 28.771C44.3757 29.1519 44.405 29.5547 44.4636 29.9795C44.5295 30.4043 44.6321 30.8291 44.7712 31.2539C44.9177 31.6787 45.1411 32.0229 45.4414 32.2866C45.7637 32.5649 46.1226 32.7041 46.5181 32.7041C46.9209 32.7041 47.2578 32.6492 47.5288 32.5393C47.8071 32.4221 48.0378 32.2756 48.2209 32.0999C48.4114 31.9241 48.5762 31.686 48.7153 31.3857C49.0669 30.5874 49.2427 29.3496 49.2427 27.6724C49.2427 25.9658 49.0449 24.772 48.6494 24.0908C48.2612 23.4023 47.6716 23.0581 46.8806 23.0581C46.4851 23.0581 46.1372 23.1533 45.8369 23.3438C45.5439 23.5342 45.3206 23.7319 45.1667 23.937C45.0203 24.1421 44.8665 24.5779 44.7053 25.2444C44.5515 25.9109 44.4746 26.5261 44.4746 27.0901L44.4307 27.6504ZM38.1135 27.7383L38.1355 27.4966C38.2234 26.5811 38.3406 25.7717 38.4871 25.0686C38.6335 24.3582 38.8716 23.6953 39.2012 23.0801C39.9849 21.7251 41.0762 20.6997 42.4751 20.0039C43.8813 19.3008 45.3938 18.9492 47.0125 18.9492C48.6384 18.9492 50.1143 19.2751 51.4399 19.927C52.231 20.3152 52.8499 20.8059 53.2966 21.3992C54.1536 22.4685 54.7175 23.4536 54.9885 24.3545C55.2595 25.2554 55.395 26.2954 55.395 27.4746C55.395 30.0967 54.853 32.0962 53.769 33.4731L53.2637 34.1433C52.5825 34.9343 51.6194 35.5459 50.3743 35.978C49.1292 36.4028 47.895 36.6226 46.6719 36.6372C44.5771 36.6372 42.8596 36.1978 41.5193 35.3188C39.2488 33.8467 38.1135 31.3198 38.1135 27.7383ZM57.0759 21.0586L57.043 20.1138C57.043 19.7109 57.0833 19.4619 57.1638 19.3667C57.3616 19.3594 57.7351 19.3557 58.2844 19.3557C58.8411 19.3557 59.3208 19.3594 59.7236 19.3667L61.2727 19.3887C61.5583 19.3667 61.9722 19.3557 62.5142 19.3557C63.0562 19.3557 63.4004 19.429 63.5469 19.5754C63.5103 21.3625 63.4919 23.4866 63.4919 25.9475L63.8765 26.0134C63.9863 25.7278 64.1841 25.2993 64.4697 24.728C64.7627 24.1567 64.9312 23.8235 64.9751 23.7283L65.0959 23.4646C65.1252 23.3987 65.2571 23.1167 65.4915 22.6187C65.7332 22.1133 65.9785 21.5493 66.2275 20.9268C66.4766 20.2969 66.7439 19.8025 67.0295 19.4436C67.5422 19.4363 68.1648 19.4326 68.8972 19.4326C69.637 19.4326 70.4976 19.4473 71.479 19.4766C72.4604 19.4985 73.1965 19.5095 73.6873 19.5095C71.5999 23.2815 70.1167 25.8926 69.2378 27.3428L69.4905 27.7493C69.7908 28.1228 70.4463 29.1885 71.457 30.9463C72.4678 32.7041 73.2002 33.9529 73.6543 34.6926L73.918 35.1211C74.2402 35.6558 74.4014 35.9597 74.4014 36.033C74.4014 36.1062 74.3794 36.1721 74.3354 36.2307H74.2695C73.8594 36.2161 73.5261 36.2087 73.2698 36.2087C73.0208 36.2087 72.6912 36.2161 72.281 36.2307H67.3481C66.2202 34.1213 65.0483 31.8325 63.8325 29.3643C63.7739 29.9502 63.686 31.3345 63.5688 33.5171V33.6599L63.5908 36.1538C63.5029 36.2856 63.1184 36.3516 62.4373 36.3516L62.2065 36.3406H61.6133L58.5042 36.3625H57.4934C57.2883 36.3625 57.1418 36.2856 57.054 36.1318L57.021 36.0989V34.429L57.043 32.7041V26.4968L57.0759 21.0586ZM90.8809 27.4856L90.8479 30.5728C90.8479 31.5176 90.6941 32.3525 90.3865 33.0776C90.0862 33.8027 89.687 34.3887 89.189 34.8354C87.834 36.0659 85.8308 36.6812 83.1794 36.6812C80.5281 36.6812 78.4663 36.0366 76.9941 34.7476C76.4741 34.3008 76.0347 33.7222 75.6758 33.0117C75.3242 32.2939 75.1118 31.4846 75.0386 30.5837C75.0752 27.5222 75.0935 24.6914 75.0935 22.0913C75.0569 22.0913 75.0386 21.7068 75.0386 20.9377C75.0386 20.1687 75.0715 19.6926 75.1375 19.5095H75.3682C76.4448 19.4509 77.9133 19.4216 79.7737 19.4216C79.9055 19.4509 80.1436 19.4692 80.4878 19.4766C80.8394 19.4839 81.0811 19.4949 81.2129 19.5095L81.5535 19.5535C81.6047 21.0037 81.6377 22.9995 81.6523 25.541L81.5864 29.9575C81.5864 31.4224 82.0112 32.1548 82.8608 32.1548C83.2197 32.1548 83.52 31.9973 83.7617 31.6824C84.0107 31.3674 84.1426 31.0122 84.1572 30.6167L84.2012 30.5068L84.2341 26.8044L84.2451 26.4749C84.2451 24.7756 84.2231 23.135 84.1792 21.553L84.1572 20.751C84.1426 20.4287 84.1353 20.1394 84.1353 19.8831C84.1353 19.6267 84.1755 19.4509 84.2561 19.3557C87.0833 19.3557 89.2146 19.3667 90.6501 19.3887C90.7014 19.4399 90.7673 19.4875 90.8479 19.5315H90.8369L90.9578 19.6084C90.8992 20.9927 90.8699 22.7725 90.8699 24.9478V26.8374L90.8809 27.4856ZM105.603 31.7812C105.551 31.9863 105.526 32.2061 105.526 32.4404V32.6931C105.526 33.0813 105.551 33.3596 105.603 33.5281C105.603 34.634 105.599 35.4873 105.592 36.0879C105.548 36.2783 101.933 36.3735 94.748 36.3735C94.4185 36.3735 93.8728 36.3662 93.1111 36.3516C92.9939 36.1318 92.9353 35.7693 92.9353 35.2639L92.9573 34.5498V32.0559L92.9683 29.9685V27.9031L92.9792 24.5742C92.9792 23.959 92.9719 23.3804 92.9573 22.8384V22.7175L92.9243 21.1355C92.9243 20.2053 93.0012 19.6011 93.155 19.3228C93.3015 19.3301 93.5029 19.3337 93.7593 19.3337H94.2866L96.1323 19.3118C98.2344 19.3118 99.3916 19.4436 99.604 19.7073L99.5161 23.5415L99.4832 26.7605L99.4722 26.8923L99.4282 31.4626L99.8677 31.7153C101.193 31.6348 102.475 31.5945 103.713 31.5945C104.958 31.5945 105.588 31.6567 105.603 31.7812ZM20.5134 43.0586L20.4805 42.1138C20.4805 41.7109 20.5208 41.4619 20.6013 41.3667C20.7991 41.3594 21.1726 41.3557 21.7219 41.3557C22.2786 41.3557 22.7583 41.3594 23.1611 41.3667L24.7102 41.3887C24.9958 41.3667 25.4097 41.3557 25.9517 41.3557C26.4937 41.3557 26.8379 41.429 26.9844 41.5754C26.9478 43.3625 26.9294 45.4866 26.9294 47.9475L27.314 48.0134C27.4238 47.7278 27.6216 47.2993 27.9072 46.728C28.2002 46.1567 28.3687 45.8235 28.4126 45.7283L28.5334 45.4646C28.5627 45.3987 28.6946 45.1167 28.929 44.6187C29.1707 44.1133 29.416 43.5493 29.665 42.9268C29.9141 42.2969 30.1814 41.8025 30.467 41.4436C30.9797 41.4363 31.6023 41.4326 32.3347 41.4326C33.0745 41.4326 33.9351 41.4473 34.9165 41.4766C35.8979 41.4985 36.634 41.5095 37.1248 41.5095C35.0374 45.2815 33.5542 47.8926 32.6753 49.3428L32.928 49.7493C33.2283 50.1228 33.8838 51.1885 34.8945 52.9463C35.9053 54.7041 36.6377 55.9529 37.0918 56.6926L37.3555 57.1211C37.6777 57.6558 37.8389 57.9597 37.8389 58.033C37.8389 58.1062 37.8169 58.1721 37.7729 58.2307H37.707C37.2969 58.2161 36.9636 58.2087 36.7073 58.2087C36.4583 58.2087 36.1287 58.2161 35.7185 58.2307H30.7856C29.6577 56.1213 28.4858 53.8325 27.27 51.3643C27.2114 51.9502 27.1235 53.3345 27.0063 55.5171V55.6599L27.0283 58.1538C26.9404 58.2856 26.5559 58.3516 25.8748 58.3516L25.644 58.3406H25.0508L21.9417 58.3625H20.9309C20.7258 58.3625 20.5793 58.2856 20.4915 58.1318L20.4585 58.0989V56.429L20.4805 54.7041V48.4968L20.5134 43.0586ZM43.4749 41.4766L47.0015 41.4436C47.7485 41.4436 48.426 41.4583 49.0339 41.4875C50.6672 41.5315 51.9087 41.916 52.7583 42.6411C53.6152 43.3662 54.0437 44.3879 54.0437 45.7063C54.0437 46.6218 53.7764 47.4055 53.2417 48.0574C52.707 48.7019 51.927 49.2695 50.9016 49.7603C52.5276 50.2729 53.5127 51.5181 53.8569 53.4956C53.9375 53.9277 53.9998 54.4221 54.0437 54.9788C54.095 55.5354 54.1353 55.9089 54.1646 56.0994L54.2744 56.6597C54.3916 57.3188 54.4941 57.7949 54.582 58.0879L54.5381 58.1208C53.293 58.2014 52.1541 58.2417 51.1213 58.2417C50.0959 58.2417 49.1877 58.2234 48.3967 58.1868H48.3308C48.1038 58.1868 47.8621 57.1064 47.6057 54.9458L47.5508 54.4734C47.5215 53.6677 47.3787 53.1257 47.1223 52.8474C46.8733 52.5691 46.4375 52.4299 45.8149 52.4299L45.6721 52.4409H45.0898V55.7808L45.1008 56.1323V58.1428C45.0789 58.2161 45.0239 58.26 44.936 58.2747C44.1304 58.304 42.9915 58.3186 41.5193 58.3186C40.0544 58.3186 39.0876 58.3223 38.6189 58.3296L38.553 58.3076L38.531 58.3186C38.5164 58.3186 38.4944 58.3076 38.4651 58.2856L38.4871 57.2969L38.4761 56.9673L38.52 52.408V51.606L38.531 50.782L38.542 47.9365L38.553 47.563L38.52 45.0691C38.52 45.0691 38.5347 43.9009 38.564 41.5645C38.564 41.5059 38.7727 41.4766 39.1902 41.4766L39.8933 41.4875H40.5635L41.9587 41.4985L43.4749 41.4766ZM54.6479 58.0549L54.593 58.0879V58.0659C54.593 58.0586 54.6113 58.0549 54.6479 58.0549ZM54.593 58.0879V58.0989C54.5857 58.0989 54.582 58.0952 54.582 58.0879H54.593ZM47.5398 45.0581C47.1003 44.8677 46.5144 44.7725 45.782 44.7725H45.1448C45.0642 44.8896 45.0239 45.5085 45.0239 46.6292C45.0239 47.7424 45.0422 48.4895 45.0789 48.8704C47.3713 48.8191 48.5176 48.0281 48.5176 46.4973C48.5176 45.8455 48.1917 45.3657 47.5398 45.0581ZM55.6257 56.8245C55.6257 55.3376 55.666 54.3049 55.7466 53.7263C55.7466 50.5403 55.7905 47.3286 55.8784 44.0913C55.8564 43.6299 55.8455 43.1648 55.8455 42.696V42.3335C55.8162 42.1064 55.8015 41.905 55.8015 41.7292C55.8015 41.5535 55.8198 41.4399 55.8564 41.3887C57.4238 41.4839 58.7971 41.5315 59.9763 41.5315C61.1555 41.5315 61.9648 41.5095 62.4043 41.4656C62.4189 41.4875 62.4299 41.5498 62.4373 41.6523H62.3604V45.6294L62.4373 54.5723C62.4373 54.6382 62.4482 54.6931 62.4702 54.7371V54.759C62.4922 54.803 62.5032 54.8506 62.5032 54.9019L62.5911 58.0989C62.5544 58.1794 62.4885 58.2417 62.3933 58.2856H62.0198L55.8674 58.3845C55.7942 58.3479 55.699 58.293 55.5818 58.2197L55.5928 58.033L55.6257 56.8245ZM64.4258 53.4626L70.2375 53.3638C70.384 53.3638 70.5049 53.4883 70.6001 53.7373C70.7026 53.9863 70.8015 54.1841 70.8967 54.3306C71.1238 54.6821 71.4973 54.8579 72.0173 54.8579C72.5447 54.8579 72.9695 54.7371 73.2917 54.4954C73.614 54.2463 73.7751 53.9277 73.7751 53.5396C73.7751 53.1514 73.6763 52.8877 73.4785 52.7485C73.2808 52.6021 73.0647 52.4629 72.8303 52.3311C72.5959 52.1919 72.248 52.0857 71.7866 52.0125C71.3325 51.9392 71.0835 51.8953 71.0396 51.8806H71.0615L70.4353 51.7158C70.0325 51.6426 69.6956 51.562 69.4246 51.4741C67.6741 51.0054 66.407 50.4158 65.6233 49.7053C64.8469 48.9949 64.4587 48.0391 64.4587 46.8379C64.4587 45.9663 64.6199 45.1826 64.9421 44.4868C65.2644 43.791 65.6855 43.2234 66.2056 42.7839C67.707 41.5168 69.7798 40.8833 72.4238 40.8833C74.5259 40.8833 76.1775 41.2642 77.3787 42.0259H77.3677C78.1367 42.5825 78.6641 43.1318 78.9497 43.6738C79.2354 44.2085 79.4148 44.8713 79.488 45.6624L79.2024 45.948C77.2761 46.0212 75.5696 46.0579 74.0828 46.0579C73.636 46.0579 73.3687 45.926 73.2808 45.6624C73.2441 45.5525 73.2039 45.4426 73.1599 45.3328C73.0574 45.0691 72.7278 44.9373 72.1711 44.9373H72.1272C71.6951 44.9373 71.3252 45.0398 71.0176 45.2449C70.71 45.4426 70.5525 45.6367 70.5452 45.8271C70.5452 46.0176 70.5854 46.175 70.666 46.2996C70.7539 46.4241 70.8455 46.5229 70.9407 46.5962C71.0359 46.6694 71.1824 46.7463 71.3801 46.8269C71.5779 46.9001 71.7244 46.9514 71.8196 46.9807C71.9221 47.0027 72.0796 47.043 72.292 47.1016L72.6765 47.2004C72.8303 47.2444 73.2771 47.3542 74.0168 47.53C74.7639 47.7058 75.3865 47.8743 75.8845 48.0354V48.0244C77.4446 48.5518 78.5066 49.2109 79.0706 50.002C79.6418 50.7856 79.9275 51.7012 79.9275 52.7485C79.9275 55.5391 78.2612 57.3481 74.9287 58.1758C73.9619 58.4175 72.9292 58.5896 71.8306 58.6921C70.4829 58.6921 69.1499 58.4944 67.8315 58.0989C66.5132 57.7034 65.6306 57.0588 65.1838 56.1653C64.8835 55.7332 64.6821 55.3376 64.5796 54.9788C64.4771 54.6125 64.3928 54.1035 64.3269 53.4517C64.3489 53.459 64.3818 53.4626 64.4258 53.4626ZM97.231 54.2427L97.22 55.55C97.22 56.0994 97.2273 56.9673 97.2419 58.1538C97.1394 58.293 96.3264 58.3625 94.803 58.3625C93.2795 58.3625 91.9172 58.3406 90.7161 58.2966C90.7014 58.282 90.6318 58.1904 90.5073 58.022V56.2642L90.5293 52.8914C90.5293 52.5618 90.4927 52.3677 90.4194 52.3091C90.3462 52.2505 90.1228 52.2212 89.7493 52.2212H89.5955C88.8997 52.2212 88.3503 52.2542 87.9475 52.3201V53.8582L87.9255 58.1099C87.8157 58.2271 86.8965 58.2856 85.168 58.2856H84.6406C83.1465 58.2856 82.0588 58.2637 81.3777 58.2197C81.2385 58.1758 81.1689 57.6558 81.1689 56.6597L81.2349 54.2317L81.3447 44.3879V43.8606C81.3521 43.7507 81.3557 43.3699 81.3557 42.718C81.3557 42.0588 81.396 41.6414 81.4766 41.4656H81.5315C82.0149 41.4802 82.3701 41.4875 82.5972 41.4875H83.8276L85.157 41.4656H85.5745C86.8196 41.4656 87.5447 41.6084 87.7498 41.894C87.8523 42.0405 87.9036 42.2639 87.9036 42.5642L87.8706 43.9375V44.4539L87.8047 46.6292C87.8047 46.7903 87.8157 47.0027 87.8376 47.2664H88.5188L88.7935 47.2773H89.6724C89.9946 47.2773 90.3242 47.2517 90.6611 47.2004V44.5967L90.6721 43.7837V43.0256L90.6611 42.8499V42.2896C90.6611 41.8574 90.6794 41.5938 90.7161 41.4985C90.76 41.4033 90.8662 41.3557 91.0347 41.3557L91.2544 41.3667H91.9685L94.3416 41.3008C96.2312 41.3008 97.176 41.4509 97.176 41.7512V42.5312L97.187 42.7949L97.176 43.3662V45.0691L97.231 52.0784C97.231 52.1956 97.2236 52.3494 97.209 52.5398V53.0671C97.209 53.3015 97.2163 53.6091 97.231 53.99V54.2427ZM105.383 55.2095C105.383 55.9932 105.394 56.5498 105.416 56.8794V57.6375L105.427 57.7803C105.427 58.0586 105.416 58.1978 105.394 58.1978C105.379 58.1978 104.76 58.2271 103.537 58.2856C102.321 58.3516 101.109 58.3845 99.9006 58.3845L99.6479 57.989C99.6406 57.9231 99.637 57.8352 99.637 57.7253L99.6699 56.5828V55.9895C99.6699 54.3855 99.7212 53.5286 99.8237 53.4187C101.538 53.4333 102.834 53.4407 103.713 53.4407H104.218L104.471 53.4297C105.057 53.4297 105.35 53.4626 105.35 53.5286L105.383 55.2095Z" fill="#E9E3DC"/>
</svg>
