<svg width="46" height="45" viewBox="0 0 46 45" fill="none" xmlns="http://www.w3.org/2000/svg">
<g style="mix-blend-mode:luminosity" clip-path="url(#clip0_2011_411)">
<path d="M45.7096 43.9002L44.7669 43.002C44.3012 42.3878 43.8057 41.8441 43.2657 41.3486L43.2564 41.3412C42.7021 40.8376 42.1262 40.3589 41.5287 39.9048C41.0499 39.5757 40.3917 39.1792 39.5542 38.7153C38.8657 38.4054 38.3275 37.8617 38.0362 37.1862L38.0288 37.1676L37.9397 37.1231C38.3331 37.0841 38.6931 37.0117 39.0383 36.9097L38.9956 36.9208L40.0534 36.6295C40.4913 36.4921 40.9979 36.4031 41.5231 36.3826H41.5343C42.0873 36.3604 42.6087 36.2713 43.1061 36.1247L43.0597 36.1358C43.2997 36.0764 43.5465 36.009 43.8001 35.9336C44.0537 35.8581 44.2708 35.7907 44.4515 35.7313V35.4177C44.2721 35.1492 44.055 34.8424 43.8001 34.4972C43.557 34.1669 43.2842 33.8793 42.978 33.6287L42.9687 33.6213C42.1906 32.9335 41.3846 32.2679 40.5507 31.6245C39.8158 31.0511 38.9826 30.4666 38.1179 29.9247L37.9917 29.8505C37.5352 29.5498 37.0118 29.2715 36.4607 29.0432L36.3976 29.021C35.8433 28.7958 35.2971 28.549 34.759 28.2805C34.579 28.1914 34.3693 28.1135 34.1522 28.0597L34.1317 28.056C33.9146 28.0114 33.729 27.9001 33.5936 27.7424L33.5917 27.7405C33.3356 27.4028 33.1111 27.0186 32.9329 26.6104L32.9181 26.5732C32.7387 26.1539 32.5445 25.7512 32.3354 25.3652C31.8863 24.4967 31.4521 23.614 31.0327 22.717C30.6133 21.8201 30.2106 20.9219 29.8246 20.0225C29.5561 19.4237 29.3093 18.8256 29.0842 18.228C28.8355 17.5711 28.5553 17.0088 28.2287 16.4799L28.2528 16.5226C27.4511 15.1568 26.6513 13.9914 25.7828 12.8835L25.8348 12.954C24.9756 11.8703 24.0848 10.9016 23.1273 10.0034L23.1124 9.99043C22.1678 9.1034 21.1509 8.25718 20.0839 7.47406L19.9929 7.40911C18.8844 6.60373 17.672 5.81071 16.3557 5.03007C15.8268 4.7183 15.2126 4.46407 14.5649 4.30076L14.5167 4.28963L12.4512 3.77374L11.284 3.68466C10.8955 3.65497 10.5064 3.64012 10.1167 3.64012C9.84208 3.49538 9.6064 3.32279 9.39856 3.12237C9.19443 2.92752 8.9736 2.7438 8.74349 2.57493L8.72493 2.56194C7.60221 1.90687 6.29763 1.30747 4.93367 0.836113L4.77593 0.787864C4.41778 0.578167 3.98725 0.455688 3.52888 0.455688C3.20227 0.455688 2.88866 0.518783 2.60287 0.631983L2.61958 0.626416C1.9144 0.906631 1.37624 1.47634 1.14427 2.18523L1.1387 2.20379C1.00323 2.52297 0.925293 2.89226 0.925293 3.28197C0.925293 3.96488 1.16654 4.59026 1.56923 5.07831L1.56552 5.07275C2.23853 5.96968 2.75443 6.67486 3.1132 7.18828C3.38166 7.54829 3.65878 7.92253 3.94457 8.311C4.20623 8.65988 4.43819 9.05886 4.62562 9.48011L4.64047 9.51908C4.74439 9.73991 4.83532 10.0034 4.90212 10.2744L4.90769 10.3041C4.96707 10.5589 5.04192 10.836 5.13224 11.1354C5.4007 11.8233 5.65493 12.5285 5.89494 13.251C6.1566 14.0396 6.44609 14.7077 6.78198 15.3442L6.74672 15.27C6.92611 15.5991 7.10611 15.9207 7.28674 16.235C7.46736 16.5492 7.6616 16.856 7.86944 17.1554C7.99006 17.3373 8.14223 17.4876 8.31667 17.6045L8.32224 17.6082C8.50595 17.7418 8.62658 17.9515 8.63586 18.1891C8.4243 18.5008 8.28141 18.8757 8.23316 19.2784L8.23131 19.2895C8.16636 19.759 8.07357 20.1765 7.94738 20.5792L7.96222 20.5236C7.5484 21.7595 7.31086 23.1847 7.31086 24.6637C7.31086 25.1425 7.33499 25.6138 7.38509 26.0796L7.37953 26.0221C7.49087 27.7999 8.02718 29.4329 8.88638 30.847L8.8604 30.8006C9.22598 31.348 9.61754 31.825 10.0499 32.2611C10.3617 32.6099 10.8145 32.8289 11.3192 32.8289C11.6013 32.8289 11.8685 32.7603 12.1024 32.6378L12.0931 32.6415C12.7426 32.4077 13.2047 31.8138 13.2381 31.1068V31.1031C13.3271 30.2235 13.4608 29.4366 13.6445 28.6684L13.6203 28.7927C13.6649 28.6758 13.6909 28.5422 13.6909 28.4011C13.6909 28.3733 13.689 28.3455 13.6872 28.3176V28.3213C13.6723 28.1865 13.7546 28.0591 13.934 27.9391V28.0281C14.1134 28.4475 14.3002 28.8663 14.4944 29.2845C14.6886 29.7026 14.8903 30.1214 15.0994 30.5408C15.6468 31.374 16.2277 32.1015 16.866 32.7714L16.8605 32.7658C17.5007 33.4562 18.1984 34.076 18.9519 34.6234L18.9927 34.6512C19.3861 34.9519 19.7313 35.2766 20.043 35.6311L20.0505 35.6385C20.3437 35.9837 20.6944 36.2676 21.0897 36.481L21.1082 36.4903V36.4457H21.1973C21.1249 36.2843 21.008 36.1544 20.8633 36.0653L20.8596 36.0635C20.713 35.9818 20.5868 35.9002 20.468 35.8111L20.4773 35.8166C20.2088 35.5482 19.9317 35.2488 19.6459 34.9185C19.3601 34.5882 19.0985 34.2739 18.8609 33.9758C18.2325 33.1073 17.6331 32.1998 17.0627 31.2534C16.4924 30.307 15.9536 29.3451 15.4464 28.3677C15.2064 27.889 14.9744 27.3953 14.7505 26.8869C14.5266 26.3784 14.3094 25.8848 14.0991 25.406C14.0082 25.2223 13.9451 25.0107 13.921 24.7862V24.7769C13.9098 24.5635 13.7874 24.3798 13.6092 24.2851L13.6055 24.2833C13.381 24.6656 13.1323 24.9959 12.8484 25.2946L12.8502 25.2928C12.5552 25.6027 12.3139 25.9683 12.1413 26.3691L12.1321 26.3932C11.8704 27.0279 11.6793 27.7646 11.5957 28.5348L11.592 28.57C11.503 29.363 11.4133 30.1783 11.323 31.0159L11.2339 31.0604L11.1893 31.1049C10.7069 31.0066 10.3097 30.6985 10.0945 30.2829L10.0907 30.2736C9.86559 29.8393 9.66393 29.4125 9.48578 28.9931C9.02556 27.811 8.73978 26.4433 8.70081 25.0144V24.9977C8.6841 24.7713 8.67668 24.506 8.67668 24.2406C8.67668 23.0047 8.87153 21.8133 9.23155 20.6961L9.20928 20.7778C9.29835 20.4487 9.49259 19.8945 9.79198 19.1151C10.0914 18.3357 10.1514 17.7969 9.97198 17.4987C9.8792 17.1925 9.70661 16.9346 9.48021 16.7379L9.47836 16.736C9.25196 16.5393 9.04597 16.3333 8.85669 16.1143L8.85112 16.1069C8.64204 15.8051 8.44038 15.4834 8.24615 15.1419C8.05192 14.8005 7.87995 14.464 7.73026 14.1324C7.42406 13.4235 7.11044 12.5346 6.85064 11.6216L6.80982 11.4565C6.51475 10.408 6.18629 9.52094 5.79659 8.6673L5.84484 8.78607C5.63885 8.31842 5.39946 7.91387 5.1211 7.54458L5.13224 7.55943C4.83037 7.15611 4.56067 6.77445 4.32314 6.41444C4.02127 6.02597 3.72188 5.65174 3.42496 5.29172C3.12248 4.92614 2.8534 4.51417 2.63442 4.07251L2.61772 4.03539C2.52864 3.85539 2.4507 3.64569 2.39689 3.42857L2.39318 3.40816C2.37276 3.34321 2.36163 3.26712 2.36163 3.19104C2.36163 3.03887 2.40617 2.89597 2.48411 2.77721L2.48225 2.78092C2.50266 2.677 2.55091 2.58607 2.61772 2.51184C2.69009 2.44689 2.78288 2.39864 2.88309 2.37823H2.8868C3.04454 2.27616 3.23568 2.21492 3.44352 2.21492C3.5994 2.21492 3.74972 2.25018 3.88147 2.31328L3.87591 2.31142C4.28231 2.42647 4.61077 2.54153 4.93182 2.67329L4.86501 2.64916C5.43286 2.88917 5.9568 3.12114 6.43681 3.34506C6.98982 3.60858 7.46118 3.88694 7.90655 4.19684L7.87315 4.17457C8.11316 4.32427 8.35255 4.48881 8.59132 4.6682C8.83009 4.84759 9.08432 5.02759 9.35402 5.20822H9.98312C10.4619 5.20822 10.9704 5.2311 11.5085 5.27688C12.0523 5.31956 12.5552 5.42162 13.0339 5.58122L12.9894 5.56823C13.882 5.8336 14.6484 6.14722 15.3759 6.52393L15.2998 6.48867C16.0334 6.86229 16.7293 7.2588 17.3875 7.67819C18.4805 8.35925 19.4251 9.057 20.314 9.81971L20.2824 9.79373C21.2103 10.588 22.0528 11.4026 22.8433 12.2637L22.8619 12.286C23.6339 13.1285 24.3706 14.0434 25.0442 15.0028L25.1018 15.09C25.7216 15.9659 26.347 16.9791 26.9092 18.0295L26.9872 18.1872C27.1375 18.473 27.2897 18.8237 27.4214 19.1819L27.4418 19.2431C27.5618 19.587 27.6961 19.9396 27.8445 20.3009C28.1736 21.0494 28.5262 21.8046 28.9023 22.5667C29.2784 23.3288 29.631 24.0699 29.9601 24.7899L30.9473 26.9444C31.2943 27.6978 31.6822 28.3473 32.1331 28.9467L32.1127 28.9189C32.4894 29.3216 32.9923 29.6037 33.5565 29.702L33.5713 29.7039C34.2542 29.8746 34.8295 30.0676 35.3862 30.2958L35.299 30.2643C35.5644 30.3849 35.9058 30.513 36.2566 30.6262L36.3308 30.6466C36.7242 30.7672 37.0657 30.9268 37.3793 31.1272L37.3626 31.1179C37.9694 31.4575 38.4834 31.7916 38.9733 32.1553L38.9344 32.1275C39.4428 32.5011 39.9513 32.8537 40.4598 33.1852C40.6998 33.3646 41.1025 33.6263 41.6679 33.9702C42.2332 34.3141 42.5326 34.6358 42.566 34.9352C42.3545 34.9277 42.104 34.9222 41.8534 34.9222C40.9404 34.9222 40.0422 34.9816 39.1626 35.0966L39.2666 35.0855C38.2719 35.2191 37.37 35.4622 36.5219 35.8092L36.5962 35.7832C36.3865 35.8742 36.1359 35.9577 35.8761 36.0226L35.8409 36.0301C35.5774 36.069 35.3732 36.2806 35.3472 36.5441C35.4604 36.6851 35.5514 36.8503 35.6126 37.0284L35.6163 37.0396C35.6794 37.2289 35.7555 37.3922 35.8483 37.5443L35.8427 37.5332C36.0636 37.9248 36.3011 38.2625 36.5683 38.5743L36.5609 38.565C36.8226 38.8879 37.1176 39.1681 37.4442 39.4075L37.4572 39.4168C37.7591 39.6568 38.0733 39.9036 38.3999 40.1572C38.6987 40.391 39.0364 40.6211 39.3872 40.829L39.4317 40.8531C39.9587 41.176 40.5711 41.484 41.2095 41.742L41.2949 41.7717C41.9889 42.05 42.5846 42.3729 43.1376 42.7571L43.1079 42.7367C43.4679 42.9457 43.8267 43.1777 44.1842 43.4326C44.5418 43.6874 44.8857 43.9342 45.216 44.173C45.3515 44.3066 45.4703 44.4551 45.5705 44.6165L45.576 44.6258C45.7449 44.8188 45.9787 44.9506 46.2441 44.984H46.2497V44.8949C46.0864 44.7705 45.9657 44.598 45.9082 44.3994L45.9064 44.392C45.86 44.2027 45.7913 44.0375 45.6985 43.8854L45.7022 43.8928L45.7096 43.9002ZM11.2376 8.26089C10.9976 8.26089 10.773 8.26832 10.564 8.28316C10.3506 8.29801 10.152 8.33698 9.96456 8.40007L9.98126 8.39451V8.43904H10.0703C10.1903 8.61843 10.3413 8.82009 10.5231 9.04401C10.705 9.26794 10.8695 9.48506 11.0168 9.69537L11.7349 11.1762L11.824 11.1317C12.0337 10.9795 12.1951 10.7754 12.2916 10.536L12.2954 10.5267C12.3919 10.2688 12.4475 9.96817 12.4475 9.6564C12.4475 9.623 12.4475 9.5896 12.4457 9.55619V9.56176C12.3622 9.48011 12.2935 9.38361 12.2453 9.27598L12.2434 9.27041L12.0931 8.93267C11.9947 8.77679 11.8574 8.65431 11.696 8.57637L11.6904 8.57451C11.516 8.491 11.3675 8.38523 11.2376 8.26089Z" fill="#E9E3DC"/>
</g>
<defs>
<clipPath id="clip0_2011_411">
<rect width="44.5375" height="44.5375" fill="white" transform="translate(0.932861 0.453796)"/>
</clipPath>
</defs>
</svg>
