<svg width="125" height="52" viewBox="0 0 125 52" fill="none" xmlns="http://www.w3.org/2000/svg">
<path d="M73.104 11.16C73.104 11.712 73.056 12.192 72.96 12.6C73.056 12.984 73.104 13.464 73.104 14.04C73.104 14.592 73.056 15.072 72.96 15.48H71.52C71.616 15.864 71.664 16.344 71.664 16.92C71.664 17.472 71.616 17.952 71.52 18.36H64.32C64.416 18.744 64.464 19.224 64.464 19.8C64.464 20.352 64.416 20.832 64.32 21.24C64.416 21.624 64.464 22.104 64.464 22.68C64.464 23.232 64.416 23.712 64.32 24.12C64.416 24.504 64.464 24.984 64.464 25.56C64.464 26.112 64.416 26.592 64.32 27H61.44C61.344 26.592 61.296 26.112 61.296 25.56C61.296 24.984 61.344 24.504 61.44 24.12C61.344 23.712 61.296 23.232 61.296 22.68C61.296 22.104 61.344 21.624 61.44 21.24C61.344 20.832 61.296 20.352 61.296 19.8C61.296 19.224 61.344 18.744 61.44 18.36C61.344 17.952 61.296 17.472 61.296 16.92C61.296 16.344 61.344 15.864 61.44 15.48C61.344 15.072 61.296 14.592 61.296 14.04C61.296 13.464 61.344 12.984 61.44 12.6C61.344 12.192 61.296 11.712 61.296 11.16C61.296 10.584 61.344 10.104 61.44 9.72C61.344 9.312 61.296 8.832 61.296 8.28C61.296 7.704 61.344 7.224 61.44 6.84H71.52C71.616 7.224 71.664 7.704 71.664 8.28C71.664 8.832 71.616 9.312 71.52 9.72H72.96C73.056 10.104 73.104 10.584 73.104 11.16ZM70.08 15.48C69.984 15.072 69.936 14.592 69.936 14.04C69.936 13.464 69.984 12.984 70.08 12.6C69.984 12.192 69.936 11.712 69.936 11.16C69.936 10.584 69.984 10.104 70.08 9.72H64.32C64.416 10.104 64.464 10.584 64.464 11.16C64.464 11.712 64.416 12.192 64.32 12.6C64.416 12.984 64.464 13.464 64.464 14.04C64.464 14.592 64.416 15.072 64.32 15.48H70.08ZM79.4541 18.36C79.5501 18.744 79.5981 19.224 79.5981 19.8C79.5981 20.352 79.5501 20.832 79.4541 21.24C79.5501 21.624 79.5981 22.104 79.5981 22.68C79.5981 23.232 79.5501 23.712 79.4541 24.12H85.2141C85.3101 24.504 85.3581 24.984 85.3581 25.56C85.3581 26.112 85.3101 26.592 85.2141 27H76.5741C76.4781 26.592 76.4301 26.112 76.4301 25.56C76.4301 24.984 76.4781 24.504 76.5741 24.12C76.4781 23.712 76.4301 23.232 76.4301 22.68C76.4301 22.104 76.4781 21.624 76.5741 21.24C76.4781 20.832 76.4301 20.352 76.4301 19.8C76.4301 19.224 76.4781 18.744 76.5741 18.36C76.4781 17.952 76.4301 17.472 76.4301 16.92C76.4301 16.344 76.4781 15.864 76.5741 15.48C76.4781 15.072 76.4301 14.592 76.4301 14.04C76.4301 13.464 76.4781 12.984 76.5741 12.6C76.4781 12.192 76.4301 11.712 76.4301 11.16C76.4301 10.584 76.4781 10.104 76.5741 9.72C76.4781 9.312 76.4301 8.832 76.4301 8.28C76.4301 7.704 76.4781 7.224 76.5741 6.84H85.2141C85.3101 7.224 85.3581 7.704 85.3581 8.28C85.3581 8.832 85.3101 9.312 85.2141 9.72H79.4541C79.5501 10.104 79.5981 10.584 79.5981 11.16C79.5981 11.712 79.5501 12.192 79.4541 12.6C79.5501 12.984 79.5981 13.464 79.5981 14.04C79.5981 14.592 79.5501 15.072 79.4541 15.48H85.2141C85.3101 15.864 85.3581 16.344 85.3581 16.92C85.3581 17.472 85.3101 17.952 85.2141 18.36H79.4541ZM100.348 9.72C100.444 10.104 100.492 10.584 100.492 11.16C100.492 11.712 100.444 12.192 100.348 12.6C100.444 12.984 100.492 13.464 100.492 14.04C100.492 14.592 100.444 15.072 100.348 15.48C100.444 15.864 100.492 16.344 100.492 16.92C100.492 17.472 100.444 17.952 100.348 18.36C100.444 18.744 100.492 19.224 100.492 19.8C100.492 20.352 100.444 20.832 100.348 21.24C100.444 21.624 100.492 22.104 100.492 22.68C100.492 23.232 100.444 23.712 100.348 24.12C100.444 24.504 100.492 24.984 100.492 25.56C100.492 26.112 100.444 26.592 100.348 27H97.4681C97.3721 26.592 97.3241 26.112 97.3241 25.56C97.3241 24.984 97.3721 24.504 97.4681 24.12H95.6681C95.5721 23.712 95.5241 23.232 95.5241 22.68C95.5241 22.104 95.5721 21.624 95.6681 21.24H94.5881C94.4921 20.832 94.4441 20.352 94.4441 19.8C94.4441 19.224 94.4921 18.744 94.5881 18.36H93.1481C93.0521 17.952 93.0041 17.472 93.0041 16.92C93.0041 16.344 93.0521 15.864 93.1481 15.48H91.7081C91.8041 15.864 91.8521 16.344 91.8521 16.92C91.8521 17.472 91.8041 17.952 91.7081 18.36C91.8041 18.744 91.8521 19.224 91.8521 19.8C91.8521 20.352 91.8041 20.832 91.7081 21.24C91.8041 21.624 91.8521 22.104 91.8521 22.68C91.8521 23.232 91.8041 23.712 91.7081 24.12C91.8041 24.504 91.8521 24.984 91.8521 25.56C91.8521 26.112 91.8041 26.592 91.7081 27H88.8281C88.7321 26.592 88.6841 26.112 88.6841 25.56C88.6841 24.984 88.7321 24.504 88.8281 24.12C88.7321 23.712 88.6841 23.232 88.6841 22.68C88.6841 22.104 88.7321 21.624 88.8281 21.24C88.7321 20.832 88.6841 20.352 88.6841 19.8C88.6841 19.224 88.7321 18.744 88.8281 18.36C88.7321 17.952 88.6841 17.472 88.6841 16.92C88.6841 16.344 88.7321 15.864 88.8281 15.48C88.7321 15.072 88.6841 14.592 88.6841 14.04C88.6841 13.464 88.7321 12.984 88.8281 12.6C88.7321 12.192 88.6841 11.712 88.6841 11.16C88.6841 10.584 88.7321 10.104 88.8281 9.72C88.7321 9.312 88.6841 8.832 88.6841 8.28C88.6841 7.704 88.7321 7.224 88.8281 6.84H92.4281C92.5241 7.224 92.5721 7.704 92.5721 8.28C92.5721 8.832 92.5241 9.312 92.4281 9.72H93.5081C93.6041 10.104 93.6521 10.584 93.6521 11.16C93.6521 11.712 93.6041 12.192 93.5081 12.6H94.5881C94.6841 12.984 94.7321 13.464 94.7321 14.04C94.7321 14.592 94.6841 15.072 94.5881 15.48H96.0281C96.1241 15.864 96.1721 16.344 96.1721 16.92C96.1721 17.472 96.1241 17.952 96.0281 18.36H97.4681C97.3721 17.952 97.3241 17.472 97.3241 16.92C97.3241 16.344 97.3721 15.864 97.4681 15.48C97.3721 15.072 97.3241 14.592 97.3241 14.04C97.3241 13.464 97.3721 12.984 97.4681 12.6C97.3721 12.192 97.3241 11.712 97.3241 11.16C97.3241 10.584 97.3721 10.104 97.4681 9.72C97.3721 9.312 97.3241 8.832 97.3241 8.28C97.3241 7.704 97.3721 7.224 97.4681 6.84H100.348C100.444 7.224 100.492 7.704 100.492 8.28C100.492 8.832 100.444 9.312 100.348 9.72ZM68.736 35.52C68.736 35.888 68.704 36.208 68.64 36.48H65.76C65.824 36.736 65.856 37.056 65.856 37.44C65.856 37.808 65.824 38.128 65.76 38.4C65.824 38.656 65.856 38.976 65.856 39.36C65.856 39.728 65.824 40.048 65.76 40.32C65.824 40.576 65.856 40.896 65.856 41.28C65.856 41.648 65.824 41.968 65.76 42.24C65.824 42.496 65.856 42.816 65.856 43.2C65.856 43.568 65.824 43.888 65.76 44.16C65.824 44.416 65.856 44.736 65.856 45.12C65.856 45.488 65.824 45.808 65.76 46.08C65.824 46.336 65.856 46.656 65.856 47.04C65.856 47.408 65.824 47.728 65.76 48H63.84C63.776 47.728 63.744 47.408 63.744 47.04C63.744 46.656 63.776 46.336 63.84 46.08C63.776 45.808 63.744 45.488 63.744 45.12C63.744 44.736 63.776 44.416 63.84 44.16C63.776 43.888 63.744 43.568 63.744 43.2C63.744 42.816 63.776 42.496 63.84 42.24C63.776 41.968 63.744 41.648 63.744 41.28C63.744 40.896 63.776 40.576 63.84 40.32C63.776 40.048 63.744 39.728 63.744 39.36C63.744 38.976 63.776 38.656 63.84 38.4C63.776 38.128 63.744 37.808 63.744 37.44C63.744 37.056 63.776 36.736 63.84 36.48H60.96C60.896 36.208 60.864 35.888 60.864 35.52C60.864 35.136 60.896 34.816 60.96 34.56H68.64C68.704 34.816 68.736 35.136 68.736 35.52ZM72.9694 42.24C73.0334 42.496 73.0654 42.816 73.0654 43.2C73.0654 43.568 73.0334 43.888 72.9694 44.16C73.0334 44.416 73.0654 44.736 73.0654 45.12C73.0654 45.488 73.0334 45.808 72.9694 46.08H76.8094C76.8734 46.336 76.9054 46.656 76.9054 47.04C76.9054 47.408 76.8734 47.728 76.8094 48H71.0494C70.9854 47.728 70.9534 47.408 70.9534 47.04C70.9534 46.656 70.9854 46.336 71.0494 46.08C70.9854 45.808 70.9534 45.488 70.9534 45.12C70.9534 44.736 70.9854 44.416 71.0494 44.16C70.9854 43.888 70.9534 43.568 70.9534 43.2C70.9534 42.816 70.9854 42.496 71.0494 42.24C70.9854 41.968 70.9534 41.648 70.9534 41.28C70.9534 40.896 70.9854 40.576 71.0494 40.32C70.9854 40.048 70.9534 39.728 70.9534 39.36C70.9534 38.976 70.9854 38.656 71.0494 38.4C70.9854 38.128 70.9534 37.808 70.9534 37.44C70.9534 37.056 70.9854 36.736 71.0494 36.48C70.9854 36.208 70.9534 35.888 70.9534 35.52C70.9534 35.136 70.9854 34.816 71.0494 34.56H76.8094C76.8734 34.816 76.9054 35.136 76.9054 35.52C76.9054 35.888 76.8734 36.208 76.8094 36.48H72.9694C73.0334 36.736 73.0654 37.056 73.0654 37.44C73.0654 37.808 73.0334 38.128 72.9694 38.4C73.0334 38.656 73.0654 38.976 73.0654 39.36C73.0654 39.728 73.0334 40.048 72.9694 40.32H76.8094C76.8734 40.576 76.9054 40.896 76.9054 41.28C76.9054 41.648 76.8734 41.968 76.8094 42.24H72.9694ZM86.8988 42.24C86.9628 42.496 86.9948 42.816 86.9948 43.2C86.9948 43.568 86.9628 43.888 86.8988 44.16C86.9628 44.416 86.9948 44.736 86.9948 45.12C86.9948 45.488 86.9628 45.808 86.8988 46.08H85.9388C86.0028 46.336 86.0348 46.656 86.0348 47.04C86.0348 47.408 86.0028 47.728 85.9388 48H80.1788C80.1148 47.728 80.0828 47.408 80.0828 47.04C80.0828 46.656 80.1148 46.336 80.1788 46.08H79.2188C79.1548 45.808 79.1228 45.488 79.1228 45.12C79.1228 44.736 79.1548 44.416 79.2188 44.16H81.1388C81.2028 44.416 81.2348 44.736 81.2348 45.12C81.2348 45.488 81.2028 45.808 81.1388 46.08H84.9788C84.9148 45.808 84.8828 45.488 84.8828 45.12C84.8828 44.736 84.9148 44.416 84.9788 44.16C84.9148 43.888 84.8828 43.568 84.8828 43.2C84.8828 42.816 84.9148 42.496 84.9788 42.24H80.1788C80.1148 41.968 80.0828 41.648 80.0828 41.28C80.0828 40.896 80.1148 40.576 80.1788 40.32H79.2188C79.1548 40.048 79.1228 39.728 79.1228 39.36C79.1228 38.976 79.1548 38.656 79.2188 38.4C79.1548 38.128 79.1228 37.808 79.1228 37.44C79.1228 37.056 79.1548 36.736 79.2188 36.48H80.1788C80.1148 36.208 80.0828 35.888 80.0828 35.52C80.0828 35.136 80.1148 34.816 80.1788 34.56H85.9388C86.0028 34.816 86.0348 35.136 86.0348 35.52C86.0348 35.888 86.0028 36.208 85.9388 36.48H86.8988C86.9628 36.736 86.9948 37.056 86.9948 37.44C86.9948 37.808 86.9628 38.128 86.8988 38.4H84.9788C84.9148 38.128 84.8828 37.808 84.8828 37.44C84.8828 37.056 84.9148 36.736 84.9788 36.48H81.1388C81.2028 36.736 81.2348 37.056 81.2348 37.44C81.2348 37.808 81.2028 38.128 81.1388 38.4C81.2028 38.656 81.2348 38.976 81.2348 39.36C81.2348 39.728 81.2028 40.048 81.1388 40.32H85.9388C86.0028 40.576 86.0348 40.896 86.0348 41.28C86.0348 41.648 86.0028 41.968 85.9388 42.24H86.8988ZM96.1241 35.52C96.1241 35.888 96.0921 36.208 96.0281 36.48H93.1481C93.2121 36.736 93.2441 37.056 93.2441 37.44C93.2441 37.808 93.2121 38.128 93.1481 38.4C93.2121 38.656 93.2441 38.976 93.2441 39.36C93.2441 39.728 93.2121 40.048 93.1481 40.32C93.2121 40.576 93.2441 40.896 93.2441 41.28C93.2441 41.648 93.2121 41.968 93.1481 42.24C93.2121 42.496 93.2441 42.816 93.2441 43.2C93.2441 43.568 93.2121 43.888 93.1481 44.16C93.2121 44.416 93.2441 44.736 93.2441 45.12C93.2441 45.488 93.2121 45.808 93.1481 46.08C93.2121 46.336 93.2441 46.656 93.2441 47.04C93.2441 47.408 93.2121 47.728 93.1481 48H91.2281C91.1641 47.728 91.1321 47.408 91.1321 47.04C91.1321 46.656 91.1641 46.336 91.2281 46.08C91.1641 45.808 91.1321 45.488 91.1321 45.12C91.1321 44.736 91.1641 44.416 91.2281 44.16C91.1641 43.888 91.1321 43.568 91.1321 43.2C91.1321 42.816 91.1641 42.496 91.2281 42.24C91.1641 41.968 91.1321 41.648 91.1321 41.28C91.1321 40.896 91.1641 40.576 91.2281 40.32C91.1641 40.048 91.1321 39.728 91.1321 39.36C91.1321 38.976 91.1641 38.656 91.2281 38.4C91.1641 38.128 91.1321 37.808 91.1321 37.44C91.1321 37.056 91.1641 36.736 91.2281 36.48H88.3481C88.2841 36.208 88.2521 35.888 88.2521 35.52C88.2521 35.136 88.2841 34.816 88.3481 34.56H96.0281C96.0921 34.816 96.1241 35.136 96.1241 35.52ZM103.718 46.08C103.782 46.336 103.814 46.656 103.814 47.04C103.814 47.408 103.782 47.728 103.718 48H98.9175C98.8535 47.728 98.8215 47.408 98.8215 47.04C98.8215 46.656 98.8535 46.336 98.9175 46.08H100.358C100.294 45.808 100.262 45.488 100.262 45.12C100.262 44.736 100.294 44.416 100.358 44.16C100.294 43.888 100.262 43.568 100.262 43.2C100.262 42.816 100.294 42.496 100.358 42.24C100.294 41.968 100.262 41.648 100.262 41.28C100.262 40.896 100.294 40.576 100.358 40.32C100.294 40.048 100.262 39.728 100.262 39.36C100.262 38.976 100.294 38.656 100.358 38.4C100.294 38.128 100.262 37.808 100.262 37.44C100.262 37.056 100.294 36.736 100.358 36.48H98.9175C98.8535 36.208 98.8215 35.888 98.8215 35.52C98.8215 35.136 98.8535 34.816 98.9175 34.56H103.718C103.782 34.816 103.814 35.136 103.814 35.52C103.814 35.888 103.782 36.208 103.718 36.48H102.278C102.342 36.736 102.374 37.056 102.374 37.44C102.374 37.808 102.342 38.128 102.278 38.4C102.342 38.656 102.374 38.976 102.374 39.36C102.374 39.728 102.342 40.048 102.278 40.32C102.342 40.576 102.374 40.896 102.374 41.28C102.374 41.648 102.342 41.968 102.278 42.24C102.342 42.496 102.374 42.816 102.374 43.2C102.374 43.568 102.342 43.888 102.278 44.16C102.342 44.416 102.374 44.736 102.374 45.12C102.374 45.488 102.342 45.808 102.278 46.08H103.718ZM114.287 36.48C114.351 36.736 114.383 37.056 114.383 37.44C114.383 37.808 114.351 38.128 114.287 38.4C114.351 38.656 114.383 38.976 114.383 39.36C114.383 39.728 114.351 40.048 114.287 40.32C114.351 40.576 114.383 40.896 114.383 41.28C114.383 41.648 114.351 41.968 114.287 42.24C114.351 42.496 114.383 42.816 114.383 43.2C114.383 43.568 114.351 43.888 114.287 44.16C114.351 44.416 114.383 44.736 114.383 45.12C114.383 45.488 114.351 45.808 114.287 46.08C114.351 46.336 114.383 46.656 114.383 47.04C114.383 47.408 114.351 47.728 114.287 48H112.367C112.303 47.728 112.271 47.408 112.271 47.04C112.271 46.656 112.303 46.336 112.367 46.08H111.167C111.103 45.808 111.071 45.488 111.071 45.12C111.071 44.736 111.103 44.416 111.167 44.16H110.447C110.383 43.888 110.351 43.568 110.351 43.2C110.351 42.816 110.383 42.496 110.447 42.24H109.487C109.423 41.968 109.391 41.648 109.391 41.28C109.391 40.896 109.423 40.576 109.487 40.32H108.527C108.591 40.576 108.623 40.896 108.623 41.28C108.623 41.648 108.591 41.968 108.527 42.24C108.591 42.496 108.623 42.816 108.623 43.2C108.623 43.568 108.591 43.888 108.527 44.16C108.591 44.416 108.623 44.736 108.623 45.12C108.623 45.488 108.591 45.808 108.527 46.08C108.591 46.336 108.623 46.656 108.623 47.04C108.623 47.408 108.591 47.728 108.527 48H106.607C106.543 47.728 106.511 47.408 106.511 47.04C106.511 46.656 106.543 46.336 106.607 46.08C106.543 45.808 106.511 45.488 106.511 45.12C106.511 44.736 106.543 44.416 106.607 44.16C106.543 43.888 106.511 43.568 106.511 43.2C106.511 42.816 106.543 42.496 106.607 42.24C106.543 41.968 106.511 41.648 106.511 41.28C106.511 40.896 106.543 40.576 106.607 40.32C106.543 40.048 106.511 39.728 106.511 39.36C106.511 38.976 106.543 38.656 106.607 38.4C106.543 38.128 106.511 37.808 106.511 37.44C106.511 37.056 106.543 36.736 106.607 36.48C106.543 36.208 106.511 35.888 106.511 35.52C106.511 35.136 106.543 34.816 106.607 34.56H109.007C109.071 34.816 109.103 35.136 109.103 35.52C109.103 35.888 109.071 36.208 109.007 36.48H109.727C109.791 36.736 109.823 37.056 109.823 37.44C109.823 37.808 109.791 38.128 109.727 38.4H110.447C110.511 38.656 110.543 38.976 110.543 39.36C110.543 39.728 110.511 40.048 110.447 40.32H111.407C111.471 40.576 111.503 40.896 111.503 41.28C111.503 41.648 111.471 41.968 111.407 42.24H112.367C112.303 41.968 112.271 41.648 112.271 41.28C112.271 40.896 112.303 40.576 112.367 40.32C112.303 40.048 112.271 39.728 112.271 39.36C112.271 38.976 112.303 38.656 112.367 38.4C112.303 38.128 112.271 37.808 112.271 37.44C112.271 37.056 112.303 36.736 112.367 36.48C112.303 36.208 112.271 35.888 112.271 35.52C112.271 35.136 112.303 34.816 112.367 34.56H114.287C114.351 34.816 114.383 35.136 114.383 35.52C114.383 35.888 114.351 36.208 114.287 36.48ZM123.416 40.32C123.48 40.576 123.512 40.896 123.512 41.28C123.512 41.648 123.48 41.968 123.416 42.24C123.48 42.496 123.512 42.816 123.512 43.2C123.512 43.568 123.48 43.888 123.416 44.16C123.48 44.416 123.512 44.736 123.512 45.12C123.512 45.488 123.48 45.808 123.416 46.08H122.456C122.52 46.336 122.552 46.656 122.552 47.04C122.552 47.408 122.52 47.728 122.456 48H117.656C117.592 47.728 117.56 47.408 117.56 47.04C117.56 46.656 117.592 46.336 117.656 46.08H116.696C116.632 45.808 116.6 45.488 116.6 45.12C116.6 44.736 116.632 44.416 116.696 44.16H115.736C115.672 43.888 115.64 43.568 115.64 43.2C115.64 42.816 115.672 42.496 115.736 42.24C115.672 41.968 115.64 41.648 115.64 41.28C115.64 40.896 115.672 40.576 115.736 40.32C115.672 40.048 115.64 39.728 115.64 39.36C115.64 38.976 115.672 38.656 115.736 38.4H116.696C116.632 38.128 116.6 37.808 116.6 37.44C116.6 37.056 116.632 36.736 116.696 36.48H117.656C117.592 36.208 117.56 35.888 117.56 35.52C117.56 35.136 117.592 34.816 117.656 34.56H122.456C122.52 34.816 122.552 35.136 122.552 35.52C122.552 35.888 122.52 36.208 122.456 36.48H123.416C123.48 36.736 123.512 37.056 123.512 37.44C123.512 37.808 123.48 38.128 123.416 38.4H121.496C121.432 38.128 121.4 37.808 121.4 37.44C121.4 37.056 121.432 36.736 121.496 36.48H118.616C118.68 36.736 118.712 37.056 118.712 37.44C118.712 37.808 118.68 38.128 118.616 38.4H117.656C117.72 38.656 117.752 38.976 117.752 39.36C117.752 39.728 117.72 40.048 117.656 40.32C117.72 40.576 117.752 40.896 117.752 41.28C117.752 41.648 117.72 41.968 117.656 42.24C117.72 42.496 117.752 42.816 117.752 43.2C117.752 43.568 117.72 43.888 117.656 44.16H118.616C118.68 44.416 118.712 44.736 118.712 45.12C118.712 45.488 118.68 45.808 118.616 46.08H121.496C121.432 45.808 121.4 45.488 121.4 45.12C121.4 44.736 121.432 44.416 121.496 44.16C121.432 43.888 121.4 43.568 121.4 43.2C121.4 42.816 121.432 42.496 121.496 42.24H120.056C119.992 41.968 119.96 41.648 119.96 41.28C119.96 40.896 119.992 40.576 120.056 40.32H123.416Z" fill="#E9E3DC"/>
<path d="M48.5 36.3333C48.5 37.9 47.2333 39.1667 45.6667 39.1667H43.6667V33.5H45.6667C47.2333 33.5 48.5 34.7667 48.5 36.3333Z" fill="#E9E3DC"/>
<path d="M41.6666 48.1667H25.1666V29.35L41.6666 29.3333V48.1667ZM39.6666 31.3333H27.1666V46.1667H39.6666V31.3333Z" fill="#E9E3DC"/>
<path d="M17.8333 16.3C14.4666 16.3 11.75 13.5833 11.75 10.2167C11.75 6.85 14.4666 4.13333 17.8333 4.13333C21.2 4.13333 23.9166 6.85 23.9166 10.2167C23.9166 13.5667 21.1833 16.3 17.8333 16.3Z" fill="#E9E3DC"/>
<path d="M3.99996 48.1667C2.43329 48.1667 1.16663 46.9 1.16663 45.3333V25.3333C1.16663 21.1 4.59996 17.6667 8.83329 17.6667H26.5C30.7333 17.6667 34.1666 21.1 34.1666 25.3333V27.3167H23.1666V48.1667H8.83329V27.3333H6.83329V45.3333C6.83329 46.9 5.56662 48.1667 3.99996 48.1667Z" fill="#E9E3DC"/>
<path d="M35.2402 37.6532C35.2703 37.9479 35.2875 38.2331 35.2875 38.5001C35.2875 38.9998 35.2271 39.5641 35.1347 40.1346C34.5641 40.227 33.9998 40.2874 33.5 40.2874C33.0025 40.2874 32.4383 40.2272 31.8653 40.1345C31.7729 39.5639 31.7125 38.9998 31.7125 38.5001C31.7125 38.2333 31.7298 37.948 31.7599 37.6532C32.3613 37.7495 32.9613 37.8127 33.5 37.8127C34.0388 37.8127 34.6388 37.7495 35.2402 37.6532Z" fill="#E9E3DC"/>
<path d="M36.0537 37.5045C36.0909 37.8494 36.1125 38.1852 36.1125 38.5C36.1125 38.9593 36.0665 39.4631 35.9933 39.9745C37.0318 39.7578 37.9917 39.481 38.5059 39.3234C38.6721 39.2725 38.7374 39.2522 38.825 39.2172C38.8687 39.1997 38.9089 39.1819 38.9612 39.1569C38.9868 38.9415 39 38.7223 39 38.5C39 37.9123 38.9078 37.3462 38.7372 36.8153L38.6927 36.8293C38.155 36.9929 37.1484 37.282 36.0537 37.5045Z" fill="#E9E3DC"/>
<path d="M38.4247 36.0479C37.8841 36.2117 36.9461 36.4778 35.9409 36.685C35.7093 35.2778 35.3034 33.8743 35.1082 33.2387C36.5602 33.682 37.7571 34.7098 38.4247 36.0479Z" fill="#E9E3DC"/>
<path d="M35.1298 36.8351C34.5607 36.927 33.9982 36.9871 33.4999 36.9871C33.0016 36.9871 32.439 36.927 31.87 36.8351C32.088 35.5036 32.4773 34.1434 32.6763 33.4941C32.7272 33.3279 32.7475 33.2626 32.7826 33.175C32.8001 33.1313 32.8179 33.0911 32.8429 33.0388C33.0583 33.0132 33.2776 33 33.4999 33C33.7321 33 33.961 33.0144 34.1857 33.0423C34.1905 33.0606 34.1949 33.0769 34.1992 33.0923C34.2121 33.1379 34.2323 33.202 34.2661 33.3096L34.2697 33.3209C34.4393 33.8601 34.889 35.3642 35.1298 36.8351Z" fill="#E9E3DC"/>
<path d="M31.0591 36.685C31.2896 35.284 31.6928 33.8881 31.8877 33.2523L31.8918 33.2387C30.4398 33.682 29.2428 34.7098 28.5753 36.0479C29.1158 36.2117 30.0538 36.4778 31.0591 36.685Z" fill="#E9E3DC"/>
<path d="M28.2629 36.8153C28.0922 37.3462 28 37.9123 28 38.4999C28 38.7298 28.0141 38.9564 28.0415 39.1789L28.1282 39.2078L28.1289 39.208L28.1297 39.2083L28.1303 39.2085C28.1582 39.2178 28.9759 39.4877 30.0527 39.7556C30.3565 39.8312 30.6783 39.9059 31.0067 39.9744C30.9335 39.463 30.8875 38.9592 30.8875 38.4999C30.8875 38.1851 30.9091 37.8493 30.9463 37.5045C29.8513 37.2819 28.8445 36.9927 28.3069 36.8291L28.3032 36.828L28.2629 36.8153Z" fill="#E9E3DC"/>
<path d="M33.5 41.1128C33.9594 41.1128 34.4633 41.0668 34.9747 40.9936C34.758 42.032 34.4812 42.9918 34.3236 43.5059C34.2727 43.6721 34.2524 43.7373 34.2173 43.825C34.1998 43.8688 34.182 43.9089 34.157 43.9612C33.9416 43.9868 33.7223 44 33.5 44C33.2777 44 33.0585 43.9868 32.843 43.9612C32.818 43.9089 32.8002 43.8688 32.7827 43.825C32.7477 43.7374 32.7274 43.6721 32.6765 43.506C32.5189 42.9918 32.2421 42.0321 32.0254 40.9938C32.5351 41.0668 33.0391 41.1128 33.5 41.1128Z" fill="#E9E3DC"/>
<path d="M29.8536 40.5567C29.1726 40.3872 28.5927 40.2171 28.2389 40.1085C28.7714 41.8526 30.1476 43.2286 31.8919 43.761L31.8877 43.7475C31.7176 43.1923 31.3886 42.0576 31.1544 40.846C30.699 40.758 30.2562 40.6568 29.8536 40.5567Z" fill="#E9E3DC"/>
<path d="M38.7476 40.1126C38.1923 40.2828 37.0574 40.6118 35.8456 40.8459C35.6115 42.0575 35.2825 43.1923 35.1123 43.7475L35.1082 43.761C36.8524 43.2286 38.2286 41.8526 38.7611 40.1085L38.7476 40.1126Z" fill="#E9E3DC"/>
<path d="M28.0579 39.1933C28.0769 39.1958 28.0924 39.1984 28.0976 39.1996C28.1021 39.2007 28.1091 39.2026 28.1117 39.2033L28.1174 39.2049L28.1204 39.2059L28.1236 39.2069L28.1263 39.2077C28.1248 39.2073 28.0942 39.1995 28.0579 39.1933Z" fill="#E9E3DC"/>
</svg>
