<svg width="47" height="45" viewBox="0 0 47 45" fill="none" xmlns="http://www.w3.org/2000/svg">
<g style="mix-blend-mode:luminosity" clip-path="url(#clip0_2011_424)">
<path d="M38.3706 0.453735H8.64718C4.1464 0.453735 0.497803 4.07515 0.497803 8.54238V36.9026C0.497803 41.3699 4.1464 44.9913 8.64718 44.9913H38.3706C42.8713 44.9913 46.5199 41.3699 46.5199 36.9026V8.54238C46.5199 4.07515 42.8713 0.453735 38.3706 0.453735Z" fill="#1E1E1E"/>
<path d="M10.8613 31.6863V12.1047C10.8613 11.9628 10.9225 11.8905 11.0466 11.8905C11.3748 11.8905 11.6761 11.8905 12.1257 11.8753C12.5754 11.8601 13.0673 11.8548 13.5925 11.8449L15.2598 11.8137C15.8461 11.8036 16.4273 11.7985 17.0035 11.7985C18.5677 11.7985 19.8866 11.9925 20.9604 12.3805C21.9257 12.7053 22.8061 13.2391 23.5377 13.9434C24.1582 14.5542 24.6375 15.2915 24.9424 16.1044C25.2309 16.8959 25.3768 17.7316 25.3732 18.5733C25.3732 20.2085 24.9925 21.5569 24.2311 22.6185C23.4643 23.6847 22.3869 24.4921 21.1438 24.9321C19.847 25.4123 18.4055 25.5748 16.8209 25.5748C16.3713 25.5748 16.0493 25.5703 15.8641 25.5596C15.6788 25.5489 15.401 25.5444 15.0304 25.5444V31.6578C15.0351 31.6895 15.0335 31.7218 15.0255 31.7529C15.0175 31.784 15.0034 31.8132 14.984 31.8388C14.9646 31.8645 14.9403 31.886 14.9125 31.9023C14.8846 31.9186 14.8538 31.9292 14.8218 31.9336C14.7989 31.9371 14.7755 31.9371 14.7526 31.9336H11.0772C10.9297 31.9309 10.8613 31.8497 10.8613 31.6863ZM15.0304 15.5679V21.9544C15.2978 21.9752 15.5448 21.9854 15.7715 21.9848H16.7904C17.5401 21.9822 18.2849 21.8642 18.9981 21.6349C19.6095 21.4553 20.1561 21.1052 20.5728 20.6262C20.9739 20.1567 21.1744 19.5022 21.1744 18.6625C21.19 18.0697 21.0339 17.4848 20.7248 16.9773C20.4007 16.4864 19.9323 16.1065 19.383 15.8893C18.6671 15.6133 17.9025 15.483 17.1348 15.5063C16.6402 15.5063 16.2028 15.5114 15.8227 15.5215C15.4426 15.5316 15.18 15.5471 15.0349 15.5679H15.0304Z" fill="#E9E3DC"/>
<path d="M37.3103 20.7932C36.7301 20.497 36.112 20.2805 35.473 20.1496C34.7692 19.9891 34.0495 19.9068 33.3273 19.9042C32.9368 19.8938 32.5468 19.9404 32.1699 20.0425C31.9297 20.0953 31.7162 20.231 31.5674 20.4254C31.4668 20.5809 31.4134 20.7619 31.4136 20.9467C31.4191 21.1259 31.4842 21.2982 31.5989 21.4367C31.7791 21.6462 31.9995 21.8179 32.2473 21.9419C32.6872 22.1764 33.1406 22.3851 33.6052 22.5668C34.6414 22.9112 35.6316 23.3794 36.554 23.961C37.1818 24.3549 37.7014 24.8971 38.0666 25.5391C38.3743 26.1479 38.5286 26.8217 38.5162 27.5028C38.5345 28.4009 38.2759 29.2832 37.7752 30.0315C37.2388 30.7905 36.4941 31.3807 35.6295 31.7319C34.6907 32.1413 33.5318 32.346 32.1529 32.346C31.2773 32.354 30.4033 32.2718 29.5449 32.1005C28.8684 31.9774 28.2099 31.7714 27.5845 31.4873C27.5168 31.4528 27.4605 31.3999 27.4221 31.3348C27.3837 31.2696 27.3648 31.195 27.3677 31.1195V27.8107C27.3638 27.7783 27.369 27.7454 27.3826 27.7156C27.3962 27.6859 27.4178 27.6604 27.4451 27.642C27.4716 27.627 27.5021 27.6204 27.5324 27.6231C27.5628 27.6258 27.5917 27.6377 27.615 27.6572C28.3543 28.0898 29.1572 28.4051 29.9946 28.5917C30.7321 28.7755 31.4887 28.8731 32.2491 28.8827C32.9685 28.8827 33.4985 28.7908 33.839 28.6069C33.9923 28.5372 34.122 28.4249 34.2123 28.2836C34.3026 28.1423 34.3498 27.9781 34.348 27.8107C34.348 27.5447 34.1936 27.2892 33.8849 27.044C33.5761 26.7988 32.9478 26.5043 32 26.1603C31.0306 25.8255 30.1115 25.3616 29.2679 24.7813C28.6646 24.3653 28.1676 23.8151 27.8165 23.1746C27.5122 22.5709 27.358 21.9037 27.3668 21.2288C27.3642 20.4157 27.5889 19.6179 28.0161 18.9241C28.5014 18.1619 29.1985 17.5552 30.0233 17.1773C30.9286 16.728 32.0605 16.5034 33.4191 16.5034C34.2149 16.4968 35.0099 16.5529 35.7968 16.6712C36.3664 16.7439 36.9232 16.8941 37.4515 17.1175C37.4934 17.1294 37.532 17.1509 37.5641 17.1802C37.5963 17.2095 37.6211 17.2457 37.6367 17.2862C37.6577 17.3609 37.6679 17.4381 37.6673 17.5156V20.6111C37.6698 20.6469 37.6628 20.6827 37.647 20.7149C37.6313 20.7472 37.6072 20.7748 37.5774 20.795C37.5358 20.8152 37.49 20.8256 37.4436 20.8253C37.3973 20.825 37.3516 20.814 37.3103 20.7932Z" fill="#E9E3DC"/>
</g>
<defs>
<clipPath id="clip0_2011_424">
<rect width="46.0221" height="44.5375" fill="white" transform="translate(0.497803 0.453735)"/>
</clipPath>
</defs>
</svg>
