<svg width="53" height="51" viewBox="0 0 53 51" fill="none" xmlns="http://www.w3.org/2000/svg">
<g style="mix-blend-mode:luminosity">
<path d="M4.03174 19.1387C4.03174 13.5438 4.03174 10.7463 5.15261 8.60937C6.13856 6.72963 7.71179 5.20135 9.64681 4.24357C11.8466 3.15472 14.7264 3.15472 20.4858 3.15472H33.0431C38.8026 3.15472 41.6823 3.15472 43.882 4.24357C45.8171 5.20135 47.3903 6.72963 48.3763 8.60937C49.4972 10.7463 49.4972 13.5438 49.4972 19.1387V31.3371C49.4972 36.9321 49.4972 39.7296 48.3763 41.8664C47.3903 43.7462 45.8171 45.2745 43.882 46.2323C41.6823 47.3211 38.8026 47.3211 33.0431 47.3211H20.4858C14.7264 47.3211 11.8466 47.3211 9.64681 46.2323C7.71179 45.2745 6.13856 43.7462 5.15261 41.8664C4.03174 39.7296 4.03174 36.9321 4.03174 31.3371V19.1387Z" fill="#1E1E1E"/>
<path d="M13.7744 34.3799V14.5244C13.7744 14.3893 13.8314 14.3121 13.9644 14.3121C15.9279 14.3121 17.8905 14.1964 19.8546 14.1964C23.0414 14.1964 26.4922 15.2753 27.7018 18.5766C27.9867 19.387 28.1387 20.2167 28.1387 21.085C28.1387 22.7444 27.7588 24.1144 26.9987 25.195C24.8758 28.2135 21.196 28.1667 17.8975 28.1667V34.3605C17.9233 34.544 17.7655 34.6307 17.6125 34.6307H14.0024C13.8504 34.6307 13.7744 34.5536 13.7744 34.3799ZM17.9165 18.0363V24.5196C19.2244 24.6146 20.5929 24.6248 21.8496 24.2109C23.2369 23.8147 23.9967 22.6257 23.9967 21.2008C24.0353 19.9867 23.3671 18.8217 22.2297 18.3836C20.9882 17.8724 19.2567 17.8418 17.9165 18.0363Z" fill="#E9E3DC"/>
<path d="M30.7143 19.2627H34.0489C34.2327 19.2644 34.3979 19.3933 34.4464 19.5734C34.6908 20.1244 34.721 20.789 34.7218 21.3838C35.2937 20.7076 35.9831 20.1443 36.756 19.7217C37.585 19.2455 38.5246 19.004 39.4768 19.0228C39.635 18.9998 39.7748 19.1419 39.7522 19.3023V23.0613C39.7522 23.2066 39.6499 23.2788 39.4463 23.2788C38.0349 23.1799 35.8376 23.5186 34.8121 24.6458V34.4198C34.8121 34.6063 34.7306 34.6995 34.5674 34.6995H30.9897C30.814 34.725 30.659 34.5645 30.6838 34.3888V23.7759C30.6838 22.3539 30.7142 20.889 30.5003 19.4802C30.4674 19.3506 30.5895 19.2301 30.7143 19.2627Z" fill="#E9E3DC"/>
</g>
</svg>
