<svg width="51" height="51" viewBox="0 0 51 51" fill="none" xmlns="http://www.w3.org/2000/svg">
<g style="mix-blend-mode:luminosity">
<path fill-rule="evenodd" clip-rule="evenodd" d="M20.5317 3.15472C17.0661 3.15472 14.2567 5.87495 14.2567 9.23052V13.4369H25.1173V14.6053H9.42979C5.96419 14.6053 3.15479 17.3255 3.15479 20.6811V29.7948C3.15479 33.1503 5.96419 35.8705 9.42979 35.8705H13.05V30.7295C13.05 27.374 15.8594 24.6537 19.325 24.6537H30.9096C33.8421 24.6537 36.2192 22.352 36.2192 19.5127V9.23052C36.2192 5.87495 33.4099 3.15472 29.9442 3.15472H20.5317ZM19.0837 10.6326C20.2833 10.6326 21.2557 9.691 21.2557 8.52948C21.2557 7.36793 20.2833 6.4263 19.0837 6.4263C17.884 6.4263 16.9115 7.36793 16.9115 8.52948C16.9115 9.691 17.884 10.6326 19.0837 10.6326Z" fill="#C76526"/>
<path fill-rule="evenodd" clip-rule="evenodd" d="M29.9438 47.3212C33.4094 47.3212 36.2189 44.601 36.2189 41.2454V37.0391H25.3582V35.8707H41.0458C44.5115 35.8707 47.3208 33.1504 47.3208 29.7948V20.6811C47.3208 17.3256 44.5115 14.6053 41.0458 14.6053H37.4256V19.7463C37.4256 23.102 34.6161 25.8222 31.1506 25.8222H19.566C16.6335 25.8222 14.2563 28.1239 14.2563 30.9632V41.2454C14.2563 44.601 17.0658 47.3212 20.5313 47.3212H29.9438ZM31.392 39.8433C30.1922 39.8433 29.2198 40.7849 29.2198 41.9464C29.2198 43.108 30.1922 44.0495 31.392 44.0495C32.5916 44.0495 33.564 43.108 33.564 41.9464C33.564 40.7849 32.5916 39.8433 31.392 39.8433Z" fill="#E9E3DC"/>
</g>
</svg>
