<svg width="130" height="118" viewBox="0 0 130 118" fill="none" xmlns="http://www.w3.org/2000/svg">
<path fill-rule="evenodd" clip-rule="evenodd" d="M63.6588 51.9938L85.419 43.5841L100.707 76.4419L78.7941 84.8975L63.5059 51.9479L63.6588 51.9938Z" fill="#1E1E1E"/>
<path fill-rule="evenodd" clip-rule="evenodd" d="M69.8763 36.0932L24.4707 53.6939L41.4914 90.7796L85.9288 73.1789L69.8763 36.0932Z" fill="#1E1E1E"/>
<path fill-rule="evenodd" clip-rule="evenodd" d="M73.7493 28.8782L28.3945 46.4789L45.4664 83.6565L89.9038 66.0558L73.7493 28.9242V28.8782Z" fill="#E9E3DC"/>
<path fill-rule="evenodd" clip-rule="evenodd" d="M91.9427 66.6993L74.6161 26.9483L26.3057 45.7439L44.5493 85.4949L91.9427 66.6993ZM72.8834 30.6707L87.9167 65.1369L46.282 81.6806L30.4844 47.2145L72.8834 30.6707Z" fill="#1E1E1E"/>
<path fill-rule="evenodd" clip-rule="evenodd" d="M31.9105 56.865L79.4056 38.3452L78.1826 35.7257L30.6875 54.2457L31.9105 56.865Z" fill="#1E1E1E"/>
<path fill-rule="evenodd" clip-rule="evenodd" d="M34.2045 51.6261L37.6188 50.2934L36.3958 47.674L32.9814 48.9606L34.2045 51.6261Z" fill="#1E1E1E"/>
<path fill-rule="evenodd" clip-rule="evenodd" d="M40.1158 49.2826L43.5301 47.9499L42.3069 45.3305L38.8926 46.6173L40.1158 49.2826Z" fill="#1E1E1E"/>
<path fill-rule="evenodd" clip-rule="evenodd" d="M45.9252 47.1226L49.3395 45.7899L48.1165 43.1705L44.7021 44.5031L45.9252 47.1226Z" fill="#1E1E1E"/>
<path fill-rule="evenodd" clip-rule="evenodd" d="M66.5127 47.1224L88.3748 38.8046L103.714 71.6165L81.8009 80.0721L66.5127 47.1224Z" fill="#E9E3DC"/>
<path fill-rule="evenodd" clip-rule="evenodd" d="M78.7432 74.9251L101.268 66.2396L103.714 71.6165L81.4951 80.2558L78.8451 74.9251H78.7432Z" fill="#C76526"/>
<path fill-rule="evenodd" clip-rule="evenodd" d="M89.1903 36.9666L64.4746 46.3874L80.9858 81.9105L105.752 72.352L89.1903 36.9666ZM68.5003 47.9039L87.5086 40.643L101.625 70.8815L82.5655 78.2342L68.5003 47.9039Z" fill="#1E1E1E"/>
<path fill-rule="evenodd" clip-rule="evenodd" d="M77.4694 47.72L81.2914 46.2953L80.5781 44.7329L76.7559 46.1575L77.4694 47.72Z" fill="#1E1E1E"/>
<path fill-rule="evenodd" clip-rule="evenodd" d="M84.5017 53.4184L82.4124 62.7013L80.374 62.3336L82.2086 68.3538L86.642 63.3905L84.5527 63.023L86.642 53.74L88.6806 54.1077L86.846 48.0876L82.5653 53.0507L84.6037 53.4184H84.5017Z" fill="#1E1E1E"/>
<path d="M91.3817 74.0978C92.095 74.0978 92.7067 73.5923 92.7067 72.949C92.7067 72.3057 92.095 71.8002 91.3817 71.8002C90.6681 71.8002 90.0567 72.3057 90.0567 72.949C90.0057 73.5464 90.6171 74.0978 91.3817 74.0978Z" fill="#1E1E1E"/>
</svg>
