<svg width="130" height="118" viewBox="0 0 130 118" fill="none" xmlns="http://www.w3.org/2000/svg">
<path fill-rule="evenodd" clip-rule="evenodd" d="M72.7783 42.7099L25.5889 61.046L43.3231 99.6482L89.5442 81.3121L72.7273 42.664H72.7783V42.7099Z" fill="#1E1E1E"/>
<path fill-rule="evenodd" clip-rule="evenodd" d="M38.4822 77.4977L52.0378 72.3966L50.7128 69.3177L37.1572 74.6025L38.4822 77.4977Z" fill="#D1EF53"/>
<path fill-rule="evenodd" clip-rule="evenodd" d="M34.4053 73.4998L37.31 80.0253L54.8403 73.4539L51.8846 66.7444L34.4053 73.4998ZM38.533 77.4979L52.0885 72.397L50.7635 69.3179L37.157 74.6486L38.533 77.4979Z" fill="#1E1E1E"/>
<path fill-rule="evenodd" clip-rule="evenodd" d="M44.2408 90.0897L57.7963 84.9886L56.4714 81.9097L42.9668 87.1484L44.2408 90.0897Z" fill="#D1EF53"/>
<path fill-rule="evenodd" clip-rule="evenodd" d="M40.1641 86.0455L43.1197 92.5712L60.65 85.9996L57.6944 79.2902L40.1641 86.0455ZM44.2408 90.0897L57.7963 84.9886L56.4713 81.9097L42.9668 87.1484L44.2408 90.0897Z" fill="#1E1E1E"/>
<path fill-rule="evenodd" clip-rule="evenodd" d="M67.4279 81.0365L80.5248 76.0734L73.5942 60.4486L60.0898 65.6416L67.4279 81.0365Z" fill="#4C5EFD"/>
<path fill-rule="evenodd" clip-rule="evenodd" d="M57.2871 64.6304L66.3071 83.5638L83.3279 77.1301L74.8684 57.9669L57.3381 64.7222V64.6304H57.2871ZM67.4281 81.0363L80.525 76.0732L73.5944 60.4484L60.0898 65.6414L67.4281 81.0363Z" fill="#1E1E1E"/>
<path fill-rule="evenodd" clip-rule="evenodd" d="M71.81 28.5555C74.6129 28.6475 77.2629 29.4746 79.556 30.9451C81.7983 32.4157 83.5309 34.4377 84.4992 36.7814C85.4675 39.1251 85.6713 41.6987 85.0599 44.1344C84.4483 46.57 83.0213 48.7757 80.9829 50.5221C78.9446 52.2223 76.3966 53.3713 73.6956 53.7849C70.9437 54.1983 68.141 53.8768 65.593 52.8658C63.045 51.8548 60.9044 50.1544 59.4267 48.0405C57.9488 45.9265 57.1844 43.4449 57.2864 40.9634C57.3883 37.6087 59.019 34.3917 61.72 32.0941C64.4717 29.7045 68.09 28.4636 71.81 28.5555Z" fill="#1E1E1E"/>
<path fill-rule="evenodd" clip-rule="evenodd" d="M66.4595 26.6715L71.0969 35.9084C68.8036 36.8735 66.4595 41.6528 66.2556 43.7669L55.7577 46.4322C54.9933 42.8018 55.2483 39.0335 56.624 35.5409C58 33.0594 61.6183 28.1421 66.4595 26.6715Z" fill="#1E1E1E"/>
<path fill-rule="evenodd" clip-rule="evenodd" d="M78.4866 53.601L74.7665 44.8236C73.7473 45.1913 72.677 45.2832 71.6069 45.0533C70.5367 44.8236 69.5686 44.3641 68.855 43.6748L57.8477 47.6728C58.612 50.4302 62.587 53.2792 66.1033 54.3363C70.18 55.1175 74.5116 54.8878 78.4866 53.601Z" fill="#1E1E1E"/>
<path fill-rule="evenodd" clip-rule="evenodd" d="M66.7656 28.8776L70.6386 37.471C71.8106 37.5172 72.9829 37.8387 74.002 38.3902C75.0212 38.9416 75.8366 39.7688 76.3972 40.6879L85.8758 37.7928C84.8565 34.8517 82.8182 32.2323 80.0663 30.3941C75.9385 28.5559 71.2502 28.0504 66.7656 28.8776Z" fill="#1E1E1E"/>
<path fill-rule="evenodd" clip-rule="evenodd" d="M85.6205 36.9653L76.3968 40.366C76.6005 41.331 76.4988 42.342 76.0909 43.2612C75.6832 44.1803 74.9698 44.9614 74.1035 45.513L77.8238 53.6928C80.6775 52.4981 83.0215 50.4761 84.3975 47.9486C85.9264 45.421 86.1301 39.9983 85.6205 36.9653Z" fill="#1E1E1E"/>
<path fill-rule="evenodd" clip-rule="evenodd" d="M69.9248 37.655C70.7401 37.3792 71.6065 37.3332 72.4218 37.517C73.2371 37.7009 74.0015 38.0686 74.6131 38.62C75.1735 39.1715 75.5812 39.8607 75.7342 40.642C75.8871 41.3772 75.7851 42.1585 75.4285 42.8939C75.0718 43.5831 74.5111 44.1805 73.7978 44.5941C73.0842 45.0077 72.2179 45.2374 71.4025 45.1915C70.5362 45.1915 69.7208 44.9159 69.0075 44.5022C68.2939 44.0427 67.7845 43.4453 67.4785 42.7099C67.2748 42.2504 67.1729 41.6989 67.1729 41.1934C67.1729 40.6879 67.3258 40.1825 67.5295 39.7229C67.7845 39.2633 68.0902 38.8497 68.4978 38.482C68.9055 38.1145 69.4151 37.8387 69.9248 37.655Z" fill="#1E1E1E"/>
<path fill-rule="evenodd" clip-rule="evenodd" d="M92.399 55.2097L79.8117 67.5717C79.8117 67.5717 76.0915 74.6948 76.9068 75.4299C77.7224 76.1653 84.8058 72.0293 84.9587 71.8455L97.546 59.2539L92.399 55.2097Z" fill="#1E1E1E"/>
<path fill-rule="evenodd" clip-rule="evenodd" d="M102.488 44.6398L93.876 53.6471L99.1249 57.9669L107.839 48.5919C107.89 47.9946 107.737 47.3513 107.483 46.7998C107.228 46.2484 106.82 45.7429 106.259 45.3752C105.75 45.0075 105.138 44.7317 104.476 44.5939C103.813 44.4561 103.151 44.4561 102.488 44.6398Z" fill="#1E1E1E"/>
<path fill-rule="evenodd" clip-rule="evenodd" d="M74.8173 36.322L27.5771 54.6581L45.3114 93.2603L91.5325 74.9242L74.7154 36.322H74.8173Z" fill="#E9E3DC"/>
<path fill-rule="evenodd" clip-rule="evenodd" d="M26.1495 64.8143L81.7473 43.675L76.0399 31.3591L21.1045 52.3605L26.1495 64.8602V64.8143Z" fill="#A694FE"/>
<path fill-rule="evenodd" clip-rule="evenodd" d="M18.3525 51.3034L24.9265 67.4335L84.5501 44.7317L77.1609 28.7853L18.3525 51.3034ZM26.1495 64.8141L81.6455 43.6748L76.0398 31.3589L21.0535 52.4062L26.1495 64.906V64.8141Z" fill="#1E1E1E"/>
<path fill-rule="evenodd" clip-rule="evenodd" d="M40.5213 71.1099L54.0766 66.0088L52.7009 62.9299L39.1963 68.1686L40.5213 71.1099Z" fill="#D1EF53"/>
<path fill-rule="evenodd" clip-rule="evenodd" d="M36.3926 67.1121L39.3485 73.6377L56.8788 67.0662L53.9231 60.3568L36.3926 67.1121ZM40.5205 71.1102L54.0758 66.0091L52.7001 62.9302L39.1955 68.1691L40.5205 71.1102Z" fill="#1E1E1E"/>
<path fill-rule="evenodd" clip-rule="evenodd" d="M46.2791 83.7018L59.8346 78.6009L58.5096 75.5218L44.9541 80.7607L46.2791 83.7018Z" fill="#D1EF53"/>
<path fill-rule="evenodd" clip-rule="evenodd" d="M42.2021 79.6578L45.1068 86.1835L62.6371 79.6119L59.6815 72.9025L42.2021 79.6578ZM46.2789 83.7018L59.8344 78.6009L58.4584 75.5218L44.9539 80.7607L46.2789 83.7018Z" fill="#1E1E1E"/>
<path fill-rule="evenodd" clip-rule="evenodd" d="M69.517 74.6488L82.6139 69.6855L75.6833 54.0609L62.1279 59.2079L69.517 74.6488Z" fill="#4C5EFD"/>
<path fill-rule="evenodd" clip-rule="evenodd" d="M59.3252 58.2429L68.3452 77.2222L85.366 70.7426L76.9067 51.4415L59.3252 58.2429ZM69.4664 74.6488L82.5633 69.6855L75.6327 54.0609L62.1281 59.2538L69.4664 74.6488Z" fill="#1E1E1E"/>
<path fill-rule="evenodd" clip-rule="evenodd" d="M93.7743 75.7055L75.7341 34.3L25.4873 53.7851L44.4446 95.1445L93.7743 75.6137V75.7055ZM73.8997 38.2064L89.5444 74.0512L46.1772 91.3302L29.768 55.4394L73.8997 38.2983V38.2064Z" fill="#1E1E1E"/>
<path d="M50.2539 51.7171L58.3566 48.7301" stroke="#1E1E1E" stroke-width="3.36192" stroke-miterlimit="1.22" stroke-linecap="square"/>
<path fill-rule="evenodd" clip-rule="evenodd" d="M73.8995 22.1679C76.7022 22.2598 79.3522 23.0871 81.5945 24.5576C83.8368 26.0282 85.5694 28.0501 86.5375 30.3939C87.5058 32.7376 87.7098 35.311 87.0472 37.7466C86.4358 40.1822 85.0088 42.3882 82.9704 44.1343C80.9319 45.8348 78.3839 46.9836 75.6322 47.3972C72.8802 47.8108 70.0773 47.4891 67.5293 46.4321C64.9813 45.4211 62.841 43.7209 61.3632 41.6069C59.8853 39.493 59.1209 37.0115 59.2229 34.484C59.2737 32.8295 59.6814 31.1752 60.4459 29.6587C61.2103 28.142 62.2803 26.7635 63.6563 25.6145C65.0323 24.4657 66.612 23.5926 68.3446 22.9952C70.1793 22.3978 72.0139 22.122 73.8995 22.1679Z" fill="#E9E3DC"/>
<path fill-rule="evenodd" clip-rule="evenodd" d="M68.4981 20.3295L73.1355 29.5665C70.8424 30.5315 68.4981 35.3109 68.3452 37.4249L57.8475 40.0902C57.0829 36.4598 57.3888 32.6915 58.7138 29.199C60.0388 26.6713 63.7078 21.7541 68.4981 20.3295Z" fill="#4C5EFD"/>
<path fill-rule="evenodd" clip-rule="evenodd" d="M76.0406 30.4858L69.7214 17.9861L67.8868 18.5375C62.4851 20.146 58.3574 25.6146 56.8284 28.4179C55.2997 32.37 54.9428 36.5979 55.8092 40.6878L56.3698 42.572L70.435 39.0335L70.5367 37.7008C70.8426 36.1383 71.505 34.6218 72.4223 33.2432C72.83 32.5078 73.3906 31.8645 74.155 31.4049L76.0406 30.5777V30.4858ZM68.5494 20.3298L73.1867 29.5667C70.8934 30.5317 68.5494 35.3111 68.3964 37.4251L57.8987 40.0904C57.1341 36.4601 57.4401 32.6917 58.765 29.199C60.09 26.6715 63.7081 21.7544 68.5494 20.3298Z" fill="#1E1E1E"/>
<path fill-rule="evenodd" clip-rule="evenodd" d="M80.5247 47.2133L76.8046 38.4359C75.7854 38.8036 74.7151 38.8955 73.645 38.6656C72.5748 38.4359 71.6067 37.9764 70.8931 37.2869L59.8857 41.3311C60.7011 44.0882 64.6251 46.9375 68.1414 47.9946C72.2181 48.7757 76.5497 48.546 80.5247 47.2133Z" fill="#D1EF53"/>
<path fill-rule="evenodd" clip-rule="evenodd" d="M81.5953 48.9139L83.175 48.0866L78.079 36.0464L76.1424 36.5519C75.48 36.7818 74.8174 36.8277 74.104 36.7356C73.4416 36.5978 72.779 36.3222 72.3204 35.8626L71.3521 35.0354L57.2871 40.1365L57.7968 41.7908C58.765 45.0536 63.3004 48.5921 67.5301 49.833C70.384 50.4303 73.3397 50.5682 76.2444 50.2464C78.13 50.1086 79.9136 49.695 81.6463 48.9598L81.5953 48.9139ZM80.474 47.2134L76.754 38.4361C75.7347 38.8037 74.6647 38.8956 73.5944 38.6657C72.5243 38.4361 71.556 37.9765 70.8427 37.2873L59.8351 41.3312C60.6505 44.0886 64.5744 46.9378 68.0907 47.9947C72.2184 48.7759 76.5501 48.5462 80.474 47.2134Z" fill="#1E1E1E"/>
<path fill-rule="evenodd" clip-rule="evenodd" d="M68.8037 22.5356L72.6767 31.1293C73.8487 31.1752 75.021 31.4969 76.04 32.0484C77.0593 32.5998 77.8747 33.427 78.4353 34.3462L87.8629 31.451C86.8436 28.464 84.8053 25.8904 82.0536 24.0523C77.9256 22.2141 73.2373 21.6626 68.8037 22.5356Z" fill="#A694FE"/>
<path fill-rule="evenodd" clip-rule="evenodd" d="M68.3449 20.6056L65.7969 21.0649L71.2498 33.1513H72.7785C74.4602 33.0592 75.6832 34.3001 76.5495 35.4948L77.4668 36.7816L90.4107 32.7836L89.8503 30.8535C88.6781 27.4528 86.334 24.4658 83.1234 22.3517C78.5371 20.2379 73.2881 19.5944 68.2431 20.5594L68.3449 20.6056ZM68.7525 22.4896L72.6255 31.0832C73.7978 31.1291 74.9698 31.4509 75.9891 32.0023C77.0082 32.5537 77.8235 33.381 78.3841 34.3001L87.8628 31.4049C86.8437 28.4638 84.8051 25.8443 82.0534 24.0062C77.9255 22.168 73.2371 21.6625 68.7525 22.4896Z" fill="#1E1E1E"/>
<path fill-rule="evenodd" clip-rule="evenodd" d="M87.7096 30.5776L78.4349 33.9783C78.6386 34.9434 78.5369 35.9543 78.1292 36.8735C77.7215 37.7926 77.0079 38.5737 76.1416 39.1251L79.8109 47.3051C82.6646 46.1104 85.0088 44.0884 86.4356 41.5607C87.9645 39.2172 88.2192 33.6106 87.7096 30.5776Z" fill="#C76526"/>
<path fill-rule="evenodd" clip-rule="evenodd" d="M89.9014 30.3019L89.4936 27.8663L76.0402 32.7834L76.2949 34.2999C76.4479 34.9432 76.3459 35.5867 76.0912 36.1381C75.8362 36.7355 75.3776 37.241 74.7662 37.5628L73.4922 38.4819L78.5372 49.7408L80.4736 49.1434C83.8371 47.8107 86.5379 45.4669 88.2196 42.5258C89.9522 39.8146 90.3091 33.6566 89.6975 30.3019H89.9014ZM87.7611 30.5775L78.4862 33.9782C78.6902 34.9432 78.5882 35.9544 78.1805 36.8733C77.7728 37.7924 77.0593 38.5738 76.1929 39.1252L79.8622 47.3052C82.7159 46.1104 85.0602 44.0883 86.4869 41.5608C87.9648 39.2171 88.2196 33.6107 87.7101 30.6236H87.7611V30.5775Z" fill="#1E1E1E"/>
<path fill-rule="evenodd" clip-rule="evenodd" d="M73.9505 20.2377C70.7401 20.1918 67.6315 20.9731 64.9305 22.5355C62.2296 24.0979 60.1402 26.3038 58.8153 28.9691C57.5413 31.5887 57.1336 34.5298 57.6942 37.379C58.2548 40.2282 59.7326 42.8476 61.9239 44.9155C64.1152 46.9836 66.9689 48.4542 70.0775 49.0975C73.1862 49.7408 76.4475 49.5111 79.4034 48.5001C82.4101 47.4891 84.9581 45.6968 86.7927 43.3531C88.6271 41.0093 89.6974 38.2062 89.7993 35.357C89.8501 33.4269 89.4934 31.4968 88.7291 29.7045C87.9647 27.9122 86.7927 26.2579 85.3147 24.8333C83.8368 23.4546 82.0534 22.3058 80.1168 21.5245C78.1802 20.6973 76.0908 20.2377 73.9505 20.2377ZM73.9505 22.1678C76.7534 22.2599 79.4034 23.0869 81.6965 24.5575C83.9388 26.028 85.6714 28.0502 86.6397 30.3937C87.608 32.7375 87.8118 35.3111 87.1494 37.7467C86.5378 40.1823 85.1108 42.388 83.0725 44.1344C81.0341 45.8346 78.4861 46.9836 75.7341 47.3972C72.9824 47.8107 70.1795 47.4891 67.6315 46.4322C65.0835 45.421 62.9432 43.7208 61.4652 41.6069C59.9875 39.4929 59.2229 37.0113 59.3249 34.4838C59.4269 31.1291 61.0576 27.9122 63.7585 25.6146C66.5105 23.3168 70.1285 22.0759 73.9505 22.1678Z" fill="#1E1E1E"/>
<path fill-rule="evenodd" clip-rule="evenodd" d="M72.0147 31.221C72.8301 30.9454 73.6964 30.8992 74.5117 31.0832C75.3271 31.2669 76.0914 31.6346 76.6521 32.232C77.2127 32.7834 77.6204 33.4728 77.7731 34.254C77.9261 34.9893 77.8241 35.7704 77.4674 36.5058C77.1107 37.1951 76.5501 37.7926 75.8367 38.2062C75.1234 38.6197 74.257 38.8036 73.4417 38.8036C72.5754 38.8036 71.7598 38.5278 71.0464 38.1142C70.3331 37.6546 69.8234 37.0573 69.5177 36.368C69.11 35.4029 69.1608 34.2999 69.6195 33.3348C70.0272 32.3238 70.8935 31.5887 72.0147 31.221Z" fill="#E9E3DC"/>
<path fill-rule="evenodd" clip-rule="evenodd" d="M71.1988 29.429C70.0266 29.8425 69.0075 30.5778 68.2939 31.5429C67.5805 32.5079 67.1729 33.6108 67.1729 34.7598C67.1729 35.9086 67.5295 37.0574 68.1921 38.0225C68.9055 38.9875 69.8738 39.7688 71.0458 40.1824C72.2179 40.642 73.4919 40.7798 74.7659 40.5501C76.0399 40.3662 77.1611 39.8147 78.0784 38.9875C78.9957 38.2064 79.6581 37.1495 79.9129 36.0464C80.1678 34.9435 80.0658 33.7486 79.6071 32.6917C78.9448 31.2671 77.7217 30.0723 76.1418 29.475C74.6131 28.8774 72.8295 28.8774 71.1988 29.429ZM72.0141 31.2211C72.8295 30.9455 73.6958 30.8996 74.5111 31.0833C75.3265 31.2671 76.0908 31.6348 76.6515 32.2321C77.2121 32.7836 77.6198 33.473 77.7725 34.2543C77.9255 34.9895 77.8235 35.7708 77.4668 36.506C77.1101 37.1954 76.5495 37.7928 75.8361 38.2064C75.1228 38.62 74.2564 38.8038 73.4409 38.8038C72.5746 38.8038 71.7592 38.5279 71.0458 38.1145C70.3325 37.655 69.8228 37.0574 69.5171 36.3682C69.1092 35.4031 69.1602 34.3002 69.6189 33.3352C70.0265 32.3701 70.8929 31.5888 72.0141 31.2211Z" fill="#1E1E1E"/>
<path fill-rule="evenodd" clip-rule="evenodd" d="M94.4877 48.822L81.9004 61.184C81.9004 61.184 78.1804 68.3071 78.9957 69.0422C79.862 69.7317 86.8944 65.6416 86.9964 65.4578L99.5837 52.9581L94.4877 48.822Z" fill="#C76526"/>
<path fill-rule="evenodd" clip-rule="evenodd" d="M102.642 52.6822L94.2841 46.1106L80.0662 60.0809L79.9132 60.3567C78.6902 62.6545 77.6711 65.0901 76.8558 67.5257C76.7538 68.0772 76.7538 68.6745 76.8558 69.226C76.9575 69.6855 77.2125 70.1451 77.6201 70.4668C78.0788 70.7884 78.6392 70.9723 79.2508 71.0183C79.8114 71.0642 80.4228 70.9723 80.9835 70.7884C83.3785 69.8695 85.6718 68.7664 87.8121 67.4339C88.1688 67.2499 88.5255 67.0202 88.8314 66.7444C88.9842 66.5607 101.317 54.2447 101.317 54.2447L102.794 52.7741L102.642 52.6822ZM94.539 48.822L81.9518 61.184C81.9518 61.184 78.1805 68.3069 79.0469 69.0422C79.9132 69.7315 86.9458 65.6416 87.0478 65.4576L99.635 52.958L94.539 48.822Z" fill="#1E1E1E"/>
<path fill-rule="evenodd" clip-rule="evenodd" d="M104.527 38.2062L95.915 47.2135L101.062 51.4873L109.776 42.1124C109.776 41.515 109.675 40.9176 109.42 40.3662C109.165 39.8148 108.757 39.3552 108.248 38.9416C107.738 38.5739 107.126 38.2983 106.515 38.1603C105.852 38.0684 105.19 38.0684 104.527 38.2062Z" fill="#C76526"/>
<path fill-rule="evenodd" clip-rule="evenodd" d="M103.763 36.4141L103.253 36.5978L92.959 47.3974L101.317 54.3365L111.865 43.0315L111.967 42.5721C112.12 41.607 111.967 40.642 111.56 39.7688C111.152 38.8956 110.489 38.1143 109.623 37.517C108.859 36.8736 107.89 36.46 106.871 36.2763C105.801 36.0923 104.731 36.1383 103.763 36.4141ZM104.527 38.2064L95.9149 47.2134L101.062 51.4873L109.776 42.1125C109.776 41.515 109.674 40.9176 109.419 40.3662C109.165 39.8147 108.757 39.3552 108.247 38.9416C107.738 38.5739 107.126 38.2983 106.515 38.1603C105.852 38.1143 105.19 38.0684 104.527 38.2064Z" fill="#1E1E1E"/>
<path fill-rule="evenodd" clip-rule="evenodd" d="M95.2523 44.2264L92.6533 47.0757L102.03 54.1528L104.68 51.3495L95.2523 44.2264Z" fill="#4C5EFD"/>
<path fill-rule="evenodd" clip-rule="evenodd" d="M107.737 51.1194L94.9464 41.4689L89.6465 47.3051L102.285 56.8638L107.737 51.1194ZM95.2521 44.2262L92.6531 47.0755L102.03 54.1524L104.68 51.3493L95.2521 44.2262Z" fill="#1E1E1E"/>
</svg>
