<svg width="130" height="118" viewBox="0 0 130 118" fill="none" xmlns="http://www.w3.org/2000/svg">
<path fill-rule="evenodd" clip-rule="evenodd" d="M74.7412 36.483L29.4707 53.8277L46.4471 90.3337L90.851 72.9888L74.7412 36.483Z" fill="#1E1E1E"/>
<path fill-rule="evenodd" clip-rule="evenodd" d="M85.1914 50.6948C88.4032 49.7867 91.819 49.6959 95.0306 50.4679C98.2424 51.2396 101.199 52.8742 103.391 55.0991C105.635 57.3239 107.062 60.0938 107.521 63.0452C107.98 65.9964 107.521 69.0385 106.093 71.7174C104.666 74.3965 102.372 76.7121 99.517 78.256C96.6621 79.7997 93.3483 80.617 89.9835 80.5262C86.619 80.4355 83.3562 79.4818 80.6542 77.7564C77.9013 76.031 75.7601 73.67 74.5365 70.9003C73.7209 68.9478 73.3641 66.8591 73.517 64.816C73.619 62.7273 74.1796 60.7294 75.1483 58.8224C76.117 56.9608 77.5444 55.2354 79.2267 53.8733C80.9601 52.511 82.9993 51.4213 85.1914 50.6948Z" fill="#1E1E1E"/>
<path fill-rule="evenodd" clip-rule="evenodd" d="M78.6672 29.3542L33.3965 46.7899L50.3731 83.3413L94.675 65.9966L78.5652 29.4452L78.6672 29.3542Z" fill="#E9E3DC"/>
<path fill-rule="evenodd" clip-rule="evenodd" d="M96.8163 66.632L79.5338 27.4927L31.3574 45.9726L49.5574 85.1121L96.8163 66.632ZM77.8005 31.125L92.7887 65.0883L51.2397 81.3434L35.4358 47.3801L77.8005 31.125Z" fill="#1E1E1E"/>
<path fill-rule="evenodd" clip-rule="evenodd" d="M36.9131 56.9606L84.2739 38.7076L82.9993 36.1195L35.6895 54.3725L36.9131 56.9606Z" fill="#1E1E1E"/>
<path fill-rule="evenodd" clip-rule="evenodd" d="M86.2628 47.6073C89.2705 46.563 92.5842 46.3815 95.7451 47.0171C98.9059 47.6528 101.812 49.1058 104.004 51.1944C106.247 53.2829 107.725 55.9165 108.286 58.7771C108.847 61.6377 108.439 64.5435 107.165 67.177C105.839 69.8105 103.698 72.0809 100.996 73.6246C98.2431 75.1685 95.0823 75.9858 91.8197 75.9402C88.5569 75.8949 85.447 74.9868 82.7451 73.3521C80.0941 71.7177 78.0039 69.4019 76.8313 66.723C76.0157 64.9068 75.6589 62.9998 75.7098 61.0473C75.7608 59.095 76.2197 57.1878 77.0862 55.417C77.953 53.6462 79.2274 52.0572 80.8079 50.6948C82.3882 49.3781 84.2234 48.3338 86.2628 47.6073Z" fill="#A694FE"/>
<path fill-rule="evenodd" clip-rule="evenodd" d="M85.7017 46.3357C82.4389 47.5617 79.6349 49.605 77.6468 52.2385C75.6586 54.872 74.5879 57.9595 74.5879 61.1379C74.5879 64.3164 75.6076 67.4039 77.5448 70.0374C79.482 72.6709 82.2859 74.7596 85.5487 75.9856C88.8115 77.2114 92.431 77.5747 95.8977 76.9845C99.3645 76.3943 102.627 74.8958 105.125 72.6709C107.674 70.4461 109.408 67.6309 110.172 64.5433C110.886 61.4558 110.58 58.232 109.306 55.2807C108.388 53.3283 107.113 51.5119 105.431 50.0136C103.749 48.5152 101.761 47.2894 99.5684 46.472C97.3761 45.6547 95.031 45.2007 92.6349 45.2007C90.2389 45.1099 87.8938 45.5186 85.7017 46.3357ZM86.8231 48.9238C89.5761 47.9703 92.533 47.7888 95.3879 48.379C98.2428 48.9694 100.843 50.2861 102.882 52.1477C104.921 54.0547 106.247 56.4159 106.757 59.004C107.266 61.5921 106.91 64.2256 105.737 66.632C104.564 69.0386 102.627 71.0363 100.18 72.4438C97.733 73.8515 94.8271 74.5779 91.9214 74.5325C89.0154 74.4871 86.1605 73.6698 83.7135 72.2169C81.3174 70.7184 79.431 68.6753 78.3605 66.2233C76.933 62.9088 77.0349 59.2763 78.6155 56.0072C80.1958 52.7833 83.1527 50.2406 86.8231 48.9238Z" fill="#1E1E1E"/>
<path fill-rule="evenodd" clip-rule="evenodd" d="M85.2433 47.4258C83.2041 51.7847 83.8669 57.8236 86.4159 63.2268C88.6591 68.4484 93.1453 72.7166 98.8551 75.0776C99.0081 75.1229 99.11 75.1229 99.263 75.1229C99.4159 75.1229 99.5179 75.0776 99.6709 75.0322C99.7726 74.9868 99.9256 74.896 100.028 74.8052C100.13 74.7145 100.181 74.6235 100.231 74.4874C100.282 74.3512 100.282 74.2602 100.282 74.1241C100.282 73.9879 100.231 73.8971 100.181 73.7608C100.13 73.67 100.028 73.5339 99.9256 73.4431C99.8236 73.3521 99.7219 73.3068 99.5689 73.2614C94.3179 71.0819 90.2904 67.177 88.3022 62.3641C85.9571 57.4603 85.2433 52.0116 87.1295 48.016C87.2315 47.789 87.2315 47.5165 87.1295 47.335C87.0276 47.1079 86.8236 46.9263 86.5689 46.8356C86.314 46.7446 86.0081 46.7446 85.8041 46.8356C85.5492 46.9263 85.3453 47.1079 85.2433 47.335V47.4258Z" fill="#1E1E1E"/>
<path fill-rule="evenodd" clip-rule="evenodd" d="M85.9059 48.5606C88.7098 49.6958 91.2588 51.3304 93.298 53.4191C95.3372 55.5076 96.8667 57.9596 97.7332 60.5931C99.5177 65.0428 99.8744 69.8104 98.7529 74.3964C98.7019 74.5325 98.7019 74.6233 98.7019 74.7597C98.7019 74.8958 98.7529 74.9866 98.8039 75.0774C98.8549 75.1683 98.9568 75.2591 99.0588 75.3499C99.1608 75.4406 99.2628 75.486 99.4157 75.5314C99.6706 75.5768 99.9763 75.5768 100.18 75.4406C100.435 75.3045 100.588 75.1227 100.69 74.8958C101.914 69.9467 101.557 64.7705 99.6706 60.0029C98.7019 57.0969 97.0196 54.4634 94.8273 52.1931C92.5842 49.9229 89.8313 48.1065 86.7216 46.9261C86.4667 46.8352 86.1608 46.8352 85.9059 46.9261C85.6509 47.0169 85.447 47.1984 85.345 47.4256C85.2431 47.6525 85.2431 47.8796 85.345 48.1065C85.498 48.3337 85.7019 48.5152 85.9059 48.5606Z" fill="#1E1E1E"/>
<path fill-rule="evenodd" clip-rule="evenodd" d="M87.2317 74.9868C89.7807 72.3986 92.9925 70.4007 96.5612 69.084C100.13 67.7672 104.004 67.2224 107.879 67.4949C108.032 67.5403 108.185 67.5403 108.338 67.4949C108.491 67.4493 108.593 67.4039 108.745 67.3132C108.847 67.2224 108.949 67.1316 109.051 66.9953C109.102 66.8591 109.153 66.7684 109.153 66.6322C109.153 66.4959 109.153 66.3597 109.102 66.2235C109.051 66.0872 108.949 65.9964 108.847 65.9056C108.745 65.8149 108.644 65.7241 108.491 65.6785C108.338 65.6331 108.185 65.5878 108.083 65.6331C103.902 65.3608 99.7221 65.951 95.7965 67.3586C91.9221 68.7663 88.4553 70.9457 85.6514 73.7608C85.4475 73.9423 85.3965 74.2148 85.3965 74.4419C85.3965 74.6689 85.5494 74.896 85.7534 75.0775C85.9573 75.2591 86.2632 75.3046 86.5181 75.3046C86.7731 75.2591 87.0278 75.1683 87.2317 74.9868Z" fill="#1E1E1E"/>
<path fill-rule="evenodd" clip-rule="evenodd" d="M97.3762 47.5165C93.6548 52.0116 85.9058 54.7814 78.4117 54.4181C78.1567 54.4635 77.9528 54.5543 77.7998 54.736C77.6469 54.9176 77.5449 55.0991 77.5449 55.3262C77.5449 55.5532 77.6469 55.7803 77.7998 55.9164C77.9528 56.0982 78.2077 56.1889 78.4117 56.2343C86.6705 56.5976 95.0821 53.51 99.1607 48.5607C99.2626 48.47 99.3646 48.3338 99.4156 48.243C99.4666 48.1067 99.4666 47.9705 99.4666 47.8344C99.4666 47.698 99.4156 47.5619 99.3136 47.4711C99.2626 47.3349 99.1607 47.244 99.0077 47.1532C98.9057 47.0624 98.7528 47.017 98.5998 46.9717C98.4469 46.9263 98.2939 46.9263 98.141 46.9717C97.988 47.017 97.8351 47.0624 97.7331 47.1532C97.6311 47.244 97.5292 47.3349 97.4272 47.4711H97.3762V47.5165Z" fill="#1E1E1E"/>
<path fill-rule="evenodd" clip-rule="evenodd" d="M79.6347 69.5834C81.6231 66.3596 84.7327 63.7715 88.5053 62.1823C94.776 59.0947 102.729 57.3239 108.082 58.232C108.235 58.2774 108.337 58.2774 108.49 58.232C108.643 58.1866 108.745 58.1412 108.846 58.0959C108.948 58.0505 109.05 57.9595 109.152 57.8234C109.254 57.6872 109.254 57.5964 109.305 57.5055C109.356 57.3693 109.356 57.2785 109.305 57.1424C109.254 57.006 109.203 56.9153 109.152 56.8245C109.101 56.7337 108.999 56.6428 108.846 56.552C108.745 56.5066 108.592 56.4612 108.49 56.4158C102.78 55.3714 94.2152 57.1878 87.4857 60.5022C83.3563 62.273 79.9406 65.1791 77.7994 68.8114C77.7484 68.9478 77.6975 69.0385 77.6465 69.1747C77.6465 69.311 77.6465 69.4472 77.6975 69.5834C77.7484 69.7195 77.7994 69.8105 77.9014 69.9012C78.0034 69.992 78.1053 70.0828 78.2583 70.1282C78.4112 70.1736 78.5642 70.2191 78.6662 70.2191C78.8191 70.2191 78.9721 70.1736 79.074 70.1282C79.2268 70.0828 79.3288 69.992 79.4307 69.9012C79.5327 69.8105 79.5837 69.6741 79.6347 69.538V69.5834Z" fill="#1E1E1E"/>
<path fill-rule="evenodd" clip-rule="evenodd" d="M39.2078 51.6483L42.5726 50.3315L41.3999 47.7888L38.0352 49.0602L39.2078 51.6483Z" fill="#1E1E1E"/>
<path fill-rule="evenodd" clip-rule="evenodd" d="M45.1221 49.4688L48.4866 48.1976L47.2632 45.6095L43.8984 46.8809L45.1221 49.4688Z" fill="#1E1E1E"/>
<path fill-rule="evenodd" clip-rule="evenodd" d="M45.9334 47.3347L49.2981 46.0179L48.0747 43.4298L44.71 44.7012L45.9334 47.3347Z" fill="#1E1E1E"/>
</svg>
