<svg width="130" height="119" viewBox="0 0 130 119" fill="none" xmlns="http://www.w3.org/2000/svg">
<path fill-rule="evenodd" clip-rule="evenodd" d="M73.649 37.0166L29.0586 54.3417L45.7735 90.83L89.4466 73.5049L73.547 37.0166H73.649Z" fill="#1E1E1E"/>
<path fill-rule="evenodd" clip-rule="evenodd" d="M77.5218 29.8477L32.9824 47.2646L49.6974 83.7529L93.5234 66.4279L77.6236 29.9395L77.5218 29.8477Z" fill="#E9E3DC"/>
<path fill-rule="evenodd" clip-rule="evenodd" d="M95.4099 67.1172L78.389 28.0095L30.792 46.4834L48.7302 85.5451L95.3079 67.1172H95.4099ZM76.6564 31.6399L91.435 65.5087L50.4628 81.8227L34.9199 47.9539L76.7074 31.7317L76.6564 31.6399Z" fill="#1E1E1E"/>
<path fill-rule="evenodd" clip-rule="evenodd" d="M87.4088 41.3365L68.6045 48.5974L75.3822 63.3489L93.8298 56.088L87.4088 41.3365Z" fill="#A694FE"/>
<path fill-rule="evenodd" clip-rule="evenodd" d="M95.8164 56.8234L88.2744 39.4065L66.6162 47.8162L74.5661 65.1412L95.8164 56.7314V56.8234ZM86.5418 43.1747L91.7907 55.3067L76.1968 61.4648L70.6422 49.3327L86.5418 43.1747Z" fill="#1E1E1E"/>
<path fill-rule="evenodd" clip-rule="evenodd" d="M58.3105 67.9903C59.9412 67.4848 61.7248 67.4389 63.4065 67.8066C65.0882 68.2202 66.6169 69.0474 67.7381 70.1962C68.9102 71.345 69.6745 72.8156 69.9294 74.3323C70.1842 75.8947 69.9294 77.4571 69.2159 78.8817C68.5025 80.3063 67.3305 81.5011 65.8525 82.3283C64.3748 83.1556 62.6929 83.5692 60.9603 83.5232C59.2276 83.4771 57.5459 82.9716 56.1192 82.0527C54.6922 81.1336 53.622 79.8927 52.9596 78.4222C52.1442 76.4002 52.2462 74.1483 53.2653 72.1723C54.2336 70.2881 56.0682 68.7716 58.3105 67.9903Z" fill="#A694FE"/>
<path fill-rule="evenodd" clip-rule="evenodd" d="M57.8514 66.9333C56.017 67.6226 54.4881 68.8175 53.418 70.334C52.3477 71.8505 51.7871 73.5969 51.7871 75.343C51.7871 77.1353 52.3987 78.8817 53.4688 80.3522C54.539 81.8228 56.1187 82.9716 57.9534 83.6608C59.788 84.3503 61.7754 84.534 63.712 84.2125C65.6484 83.8907 67.432 83.0175 68.859 81.7767C70.2859 80.536 71.254 78.9276 71.6617 77.1813C72.0693 75.4349 71.9166 73.5969 71.203 71.9424C70.1839 69.6905 68.1964 67.8525 65.6484 66.8874C63.2023 66.0142 60.3994 66.0142 57.8514 66.9333ZM58.7687 69.0472C60.1957 68.6336 61.7244 68.5877 63.1513 68.9094C64.5783 69.2311 65.9033 69.9663 66.8714 70.9773C67.8907 71.9883 68.5023 73.2292 68.757 74.5619C68.9609 75.8945 68.757 77.2731 68.1454 78.4681C67.534 79.7088 66.5147 80.7197 65.2407 81.4092C63.9667 82.0984 62.489 82.4661 61.011 82.4202C59.5331 82.3742 58.0553 81.9606 56.8323 81.1793C55.6093 80.3982 54.692 79.2951 54.1314 78.0545C53.418 76.3081 53.5198 74.378 54.3861 72.6777C55.2524 70.9773 56.8323 69.6905 58.7687 69.0472Z" fill="#1E1E1E"/>
<path fill-rule="evenodd" clip-rule="evenodd" d="M61.164 51.5844L44.1943 58.0639L48.424 67.209L65.088 60.7753L61.164 51.5844Z" fill="#D1EF53"/>
<path fill-rule="evenodd" clip-rule="evenodd" d="M67.0756 61.5107L62.0306 49.7002L42.207 57.2828L47.6087 69.0932L67.0756 61.5107ZM60.298 53.4226L63.1007 59.9941L49.2904 65.3248L46.2838 58.7993L60.298 53.4226Z" fill="#1E1E1E"/>
<path fill-rule="evenodd" clip-rule="evenodd" d="M95.8679 60.6835L77.3691 67.7147L81.0894 75.8485L99.2313 68.8635L95.8679 60.6835Z" fill="#D1EF53"/>
<path fill-rule="evenodd" clip-rule="evenodd" d="M101.27 69.6448L96.7343 58.8452L75.3311 66.9793L80.2743 77.6868L101.27 69.6448ZM94.9509 62.5676L97.295 68.1283L82.007 74.0564L79.4588 68.5417L94.9509 62.5676Z" fill="#1E1E1E"/>
<path fill-rule="evenodd" clip-rule="evenodd" d="M36.3459 57.4206L83.0256 39.2225L81.8026 36.6489L35.1738 54.8472L36.3459 57.4206Z" fill="#1E1E1E"/>
<path fill-rule="evenodd" clip-rule="evenodd" d="M38.5883 52.1357L41.9516 50.8491L40.7286 48.2755L37.3652 49.5623L38.5883 52.1357Z" fill="#1E1E1E"/>
<path fill-rule="evenodd" clip-rule="evenodd" d="M44.4486 49.9759L47.8119 48.6893L46.5889 46.1157L43.2256 47.4025L44.4486 49.9759Z" fill="#1E1E1E"/>
<path fill-rule="evenodd" clip-rule="evenodd" d="M50.1566 47.8162L53.5202 46.5294L52.2971 43.9559L48.9336 45.2427L50.1566 47.8162Z" fill="#1E1E1E"/>
</svg>
