<svg width="130" height="119" viewBox="0 0 130 119" fill="none" xmlns="http://www.w3.org/2000/svg">
<path fill-rule="evenodd" clip-rule="evenodd" d="M27.1172 44.6998L61.7193 31.4647L86.1293 83.5776L51.3744 97.0425L27.1172 44.6998Z" fill="#1E1E1E"/>
<path fill-rule="evenodd" clip-rule="evenodd" d="M31.6016 36.9792L66.2547 23.7442L90.5629 75.811L55.8078 89.2759L31.6016 36.9792Z" fill="#E9E3DC"/>
<path fill-rule="evenodd" clip-rule="evenodd" d="M41.5391 34.1303C41.5391 34.1303 44.342 36.8876 46.1256 36.7496C49.8966 36.0604 53.4639 34.6817 56.6743 32.7516C58.0503 31.7406 57.7956 28.0641 57.7956 28.0641L41.5391 34.1303Z" fill="#4C5EFD"/>
<path fill-rule="evenodd" clip-rule="evenodd" d="M58.8147 26.5018L39.5518 33.7627L40.6728 34.8655C41.5901 35.7387 42.6094 36.52 43.7814 37.1633C44.4948 37.6229 45.4121 37.8066 46.2784 37.7607C50.2534 37.0255 54.0754 35.6468 57.4387 33.6248C58.1013 33.0734 58.509 32.338 58.662 31.5567C58.9167 30.4079 59.0186 29.2132 58.9677 28.0183L58.8147 26.5018ZM41.5391 34.1303C41.5391 34.1303 44.3421 36.8875 46.1257 36.7497C49.8967 36.0604 53.464 34.6818 56.6744 32.7517C58.0504 31.7407 57.7956 28.0642 57.7956 28.0642L41.5391 34.1303Z" fill="#1E1E1E"/>
<path fill-rule="evenodd" clip-rule="evenodd" d="M67.1215 21.8143L29.5127 36.2901L54.9419 91.2521L92.6527 76.6385L67.1215 21.8143ZM33.6914 37.7606L65.4398 25.6745L88.474 75.076L56.7256 87.4838L33.7934 37.8525L33.6914 37.7606Z" fill="#1E1E1E"/>
<path fill-rule="evenodd" clip-rule="evenodd" d="M75.0207 73.1002L62.5864 77.7874L60.2932 72.4107L79.5561 64.9202L78.6898 63.1279L57.4902 71.3997L61.4652 80.3151L75.8871 74.8923L75.0207 73.1002Z" fill="#1E1E1E"/>
<path fill-rule="evenodd" clip-rule="evenodd" d="M77.7724 59.4516L83.6839 57.1538L88.7289 60.3246L84.754 66.5286L76.957 64.9202L77.7724 59.4516Z" fill="#A694FE"/>
<path fill-rule="evenodd" clip-rule="evenodd" d="M83.8363 55.8209L76.5998 58.6242L75.4277 65.7473L85.365 67.8152L90.41 59.957L83.8363 55.8209ZM78.995 60.2787L83.5814 58.5323L86.9447 60.6923L84.04 65.1499L78.3324 63.955L78.995 60.2787Z" fill="#1E1E1E"/>
<path fill-rule="evenodd" clip-rule="evenodd" d="M73.0329 71.0321L77.9252 69.102L82.1549 71.7675L78.8425 76.9143L72.2686 75.5358L73.0329 71.0321Z" fill="#C76526"/>
<path fill-rule="evenodd" clip-rule="evenodd" d="M78.0783 67.7692L71.8101 70.2048L70.791 76.4088L79.4543 78.247L83.8369 71.3996L78.0783 67.7692ZM74.2053 71.9051L77.8234 70.4805L80.4224 72.1349L78.1293 75.6275L73.6957 74.7084L74.2053 71.9051Z" fill="#1E1E1E"/>
<path fill-rule="evenodd" clip-rule="evenodd" d="M60.2413 57.5213L64.2163 56.1426L67.4269 58.3945L64.624 62.3925L59.375 61.1057L60.2413 57.5213Z" fill="#1E1E1E"/>
<path d="M48.9795 33.9464L52.2409 32.7055" stroke="#1E1E1E" stroke-width="3.77548" stroke-miterlimit="10" stroke-linecap="square"/>
</svg>
