<svg width="44" height="44" viewBox="0 0 44 44" fill="none" xmlns="http://www.w3.org/2000/svg">
<g style="mix-blend-mode:luminosity" clip-path="url(#clip0_2011_437)">
<path d="M28.8621 21.982L36.3963 8.97822L40.0379 21.9892L36.3963 34.9948L28.8621 21.9892V21.982ZM25.19 24.0934L32.7261 37.1062L19.6021 33.7408L10.1215 24.0934H25.19ZM32.7243 6.85786L25.19 19.8688H10.1215L19.6021 10.2214L32.7225 6.85786H32.7243ZM43.4875 17.5547L38.8844 0.453735L21.7278 5.03708L19.1877 9.50203L14.0339 9.46436L1.47681 21.982L14.0339 34.4979L19.1841 34.4584L21.7278 38.9233L38.8844 43.5049L43.4768 26.4075L40.8703 21.9802L43.4875 17.5547Z" fill="#E9E3DC"/>
</g>
<defs>
<clipPath id="clip0_2011_437">
<rect width="43.053" height="43.053" fill="white" transform="translate(0.579834 0.453735)"/>
</clipPath>
</defs>
</svg>
