<svg width="52" height="52" viewBox="0 0 52 52" fill="none" xmlns="http://www.w3.org/2000/svg">
<g style="mix-blend-mode:luminosity">
<path d="M26.3424 45.9854C25.6937 45.8926 24.4506 45.6057 23.5334 45.3396C19.3936 44.1393 15.9995 42.0394 13.8557 39.353C13.5312 38.9466 13.113 38.3569 13.1339 38.3357C13.1339 38.3357 13.3322 38.3391 13.559 38.3728C14.0417 38.4211 14.6749 38.4099 14.9539 38.3209C15.5643 38.1539 15.9429 37.7512 16.0399 37.1655C16.0759 37.0133 16.0759 34.6365 16.0759 28.8841V20.8176L15.9858 20.5541C15.7695 19.9276 15.4212 19.6604 14.7113 19.5795C14.332 19.5349 13.8128 19.7465 13.1422 20.2123C10.7053 21.9084 7.54837 26.0567 4.42824 31.6636C4.28763 31.916 4.16504 32.1146 4.16504 32.1146C4.16504 32.1146 4.16504 31.7694 4.2011 31.3585C4.39939 26.2998 6.51722 21.0024 10.2438 16.2473C11.1513 15.089 12.5199 13.5918 13.5918 12.5837C17.057 9.3247 20.8852 7.0711 24.7372 6.02299L25.0473 5.93762L24.9463 6.0267C24.8923 6.07866 24.6363 6.30506 24.3796 6.5348C23.855 7.0043 22.9489 7.92214 22.5249 8.41428C21.4098 9.70884 20.7496 10.8605 20.6141 11.7475C20.5384 12.2467 20.6141 13.3535 20.7943 14.0011C20.9926 14.7698 21.36 15.2668 21.872 15.4609C22.0162 15.5165 22.1352 15.5314 22.3703 15.5314C22.7236 15.531 22.9799 15.4683 23.3354 15.3013L23.5698 15.1899V25.3842V35.5781L23.6744 35.8008C23.9736 36.4291 24.6795 36.7068 26.0889 36.7524C26.7891 36.7895 27.0166 36.7524 27.5516 36.5743C28.4162 36.2922 29.4776 35.7358 30.6718 34.9386L31.0143 34.7085L31.0146 26.3859C31.015 17.4461 31.0146 17.8807 30.8524 17.3567C30.5495 16.4155 29.5905 15.0905 28.4357 14.0164L28.0585 13.6675H28.246C28.5236 13.6675 29.2195 13.7528 29.6994 13.8753C30.6123 14.1129 31.5507 14.5349 32.2679 15.0329L32.5022 15.1962L32.5851 15.0515C32.7185 14.814 33.0784 14.3678 33.4285 13.9997C35.3126 12.0189 38.3257 10.3903 42.239 9.23711C42.5851 9.1369 42.8811 9.05154 42.8966 9.05154C42.8966 9.05154 42.7308 9.31876 42.4925 9.64426C41.0979 11.5557 39.796 13.6296 39.1319 14.9969C38.793 15.6928 38.635 16.1078 38.5618 16.4834C38.5006 16.8026 38.4501 34.3006 38.5078 34.53C38.6159 34.9412 39.0695 35.1773 39.84 35.224C40.2337 35.2611 40.613 35.1832 41.1783 34.9902C43.1588 34.3203 45.127 33.012 46.8695 31.2067L47.4261 30.6304L47.3865 30.7899C47.2639 31.2706 46.7775 32.1825 46.0236 33.3523C43.6592 37.0219 40.3018 40.7727 37.1319 43.2868C36.5962 43.7118 35.5647 44.4581 35.5131 44.4581C35.477 44.4581 34.4726 43.4249 33.2449 42.1619C31.3384 40.2007 31.0067 39.873 30.9735 39.9179C30.9375 39.955 29.9438 41.3335 28.7335 42.9992C27.5228 44.6649 26.5154 46.0259 26.4945 46.0229C26.4585 46.0203 26.4116 46.0229 26.3611 45.9858L26.3424 45.9854Z" fill="#E9E3DC"/>
</g>
</svg>
