<svg width="133" height="57" viewBox="0 0 133 57" fill="none" xmlns="http://www.w3.org/2000/svg">
<path d="M71.96 14.72C72.056 15.104 72.104 15.584 72.104 16.16C72.104 16.712 72.056 17.192 71.96 17.6C72.056 17.984 72.104 18.464 72.104 19.04C72.104 19.592 72.056 20.072 71.96 20.48C72.056 20.864 72.104 21.344 72.104 21.92C72.104 22.472 72.056 22.952 71.96 23.36H70.88C70.976 23.744 71.024 24.224 71.024 24.8C71.024 25.352 70.976 25.832 70.88 26.24C70.976 26.624 71.024 27.104 71.024 27.68C71.024 28.232 70.976 28.712 70.88 29.12H70.16C70.256 29.504 70.304 29.984 70.304 30.56C70.304 31.112 70.256 31.592 70.16 32H68C67.904 31.592 67.856 31.112 67.856 30.56C67.856 29.984 67.904 29.504 68 29.12H67.28C67.184 28.712 67.136 28.232 67.136 27.68C67.136 27.104 67.184 26.624 67.28 26.24H65.12C65.216 26.624 65.264 27.104 65.264 27.68C65.264 28.232 65.216 28.712 65.12 29.12H64.4C64.496 29.504 64.544 29.984 64.544 30.56C64.544 31.112 64.496 31.592 64.4 32H62.24C62.144 31.592 62.096 31.112 62.096 30.56C62.096 29.984 62.144 29.504 62.24 29.12H61.52C61.424 28.712 61.376 28.232 61.376 27.68C61.376 27.104 61.424 26.624 61.52 26.24C61.424 25.832 61.376 25.352 61.376 24.8C61.376 24.224 61.424 23.744 61.52 23.36H60.44C60.344 22.952 60.296 22.472 60.296 21.92C60.296 21.344 60.344 20.864 60.44 20.48C60.344 20.072 60.296 19.592 60.296 19.04C60.296 18.464 60.344 17.984 60.44 17.6C60.344 17.192 60.296 16.712 60.296 16.16C60.296 15.584 60.344 15.104 60.44 14.72C60.344 14.312 60.296 13.832 60.296 13.28C60.296 12.704 60.344 12.224 60.44 11.84H63.32C63.416 12.224 63.464 12.704 63.464 13.28C63.464 13.832 63.416 14.312 63.32 14.72C63.416 15.104 63.464 15.584 63.464 16.16C63.464 16.712 63.416 17.192 63.32 17.6C63.416 17.984 63.464 18.464 63.464 19.04C63.464 19.592 63.416 20.072 63.32 20.48C63.416 20.864 63.464 21.344 63.464 21.92C63.464 22.472 63.416 22.952 63.32 23.36C63.416 23.744 63.464 24.224 63.464 24.8C63.464 25.352 63.416 25.832 63.32 26.24H64.4C64.304 25.832 64.256 25.352 64.256 24.8C64.256 24.224 64.304 23.744 64.4 23.36H65.12C65.024 22.952 64.976 22.472 64.976 21.92C64.976 21.344 65.024 20.864 65.12 20.48C65.024 20.072 64.976 19.592 64.976 19.04C64.976 18.464 65.024 17.984 65.12 17.6C65.024 17.192 64.976 16.712 64.976 16.16C64.976 15.584 65.024 15.104 65.12 14.72C65.024 14.312 64.976 13.832 64.976 13.28C64.976 12.704 65.024 12.224 65.12 11.84H67.28C67.376 12.224 67.424 12.704 67.424 13.28C67.424 13.832 67.376 14.312 67.28 14.72C67.376 15.104 67.424 15.584 67.424 16.16C67.424 16.712 67.376 17.192 67.28 17.6C67.376 17.984 67.424 18.464 67.424 19.04C67.424 19.592 67.376 20.072 67.28 20.48C67.376 20.864 67.424 21.344 67.424 21.92C67.424 22.472 67.376 22.952 67.28 23.36H68C68.096 23.744 68.144 24.224 68.144 24.8C68.144 25.352 68.096 25.832 68 26.24H69.08C68.984 25.832 68.936 25.352 68.936 24.8C68.936 24.224 68.984 23.744 69.08 23.36C68.984 22.952 68.936 22.472 68.936 21.92C68.936 21.344 68.984 20.864 69.08 20.48C68.984 20.072 68.936 19.592 68.936 19.04C68.936 18.464 68.984 17.984 69.08 17.6C68.984 17.192 68.936 16.712 68.936 16.16C68.936 15.584 68.984 15.104 69.08 14.72C68.984 14.312 68.936 13.832 68.936 13.28C68.936 12.704 68.984 12.224 69.08 11.84H71.96C72.056 12.224 72.104 12.704 72.104 13.28C72.104 13.832 72.056 14.312 71.96 14.72ZM78.4541 23.36C78.5501 23.744 78.5981 24.224 78.5981 24.8C78.5981 25.352 78.5501 25.832 78.4541 26.24C78.5501 26.624 78.5981 27.104 78.5981 27.68C78.5981 28.232 78.5501 28.712 78.4541 29.12H84.2141C84.3101 29.504 84.3581 29.984 84.3581 30.56C84.3581 31.112 84.3101 31.592 84.2141 32H75.5741C75.4781 31.592 75.4301 31.112 75.4301 30.56C75.4301 29.984 75.4781 29.504 75.5741 29.12C75.4781 28.712 75.4301 28.232 75.4301 27.68C75.4301 27.104 75.4781 26.624 75.5741 26.24C75.4781 25.832 75.4301 25.352 75.4301 24.8C75.4301 24.224 75.4781 23.744 75.5741 23.36C75.4781 22.952 75.4301 22.472 75.4301 21.92C75.4301 21.344 75.4781 20.864 75.5741 20.48C75.4781 20.072 75.4301 19.592 75.4301 19.04C75.4301 18.464 75.4781 17.984 75.5741 17.6C75.4781 17.192 75.4301 16.712 75.4301 16.16C75.4301 15.584 75.4781 15.104 75.5741 14.72C75.4781 14.312 75.4301 13.832 75.4301 13.28C75.4301 12.704 75.4781 12.224 75.5741 11.84H84.2141C84.3101 12.224 84.3581 12.704 84.3581 13.28C84.3581 13.832 84.3101 14.312 84.2141 14.72H78.4541C78.5501 15.104 78.5981 15.584 78.5981 16.16C78.5981 16.712 78.5501 17.192 78.4541 17.6C78.5501 17.984 78.5981 18.464 78.5981 19.04C78.5981 19.592 78.5501 20.072 78.4541 20.48H84.2141C84.3101 20.864 84.3581 21.344 84.3581 21.92C84.3581 22.472 84.3101 22.952 84.2141 23.36H78.4541ZM99.4921 19.04C99.4921 19.592 99.4441 20.072 99.3481 20.48H97.9081C98.0041 20.864 98.0521 21.344 98.0521 21.92C98.0521 22.472 98.0041 22.952 97.9081 23.36H99.3481C99.4441 23.744 99.4921 24.224 99.4921 24.8C99.4921 25.352 99.4441 25.832 99.3481 26.24C99.4441 26.624 99.4921 27.104 99.4921 27.68C99.4921 28.232 99.4441 28.712 99.3481 29.12H97.9081C98.0041 29.504 98.0521 29.984 98.0521 30.56C98.0521 31.112 98.0041 31.592 97.9081 32H87.8281C87.7321 31.592 87.6841 31.112 87.6841 30.56C87.6841 29.984 87.7321 29.504 87.8281 29.12C87.7321 28.712 87.6841 28.232 87.6841 27.68C87.6841 27.104 87.7321 26.624 87.8281 26.24C87.7321 25.832 87.6841 25.352 87.6841 24.8C87.6841 24.224 87.7321 23.744 87.8281 23.36C87.7321 22.952 87.6841 22.472 87.6841 21.92C87.6841 21.344 87.7321 20.864 87.8281 20.48C87.7321 20.072 87.6841 19.592 87.6841 19.04C87.6841 18.464 87.7321 17.984 87.8281 17.6C87.7321 17.192 87.6841 16.712 87.6841 16.16C87.6841 15.584 87.7321 15.104 87.8281 14.72C87.7321 14.312 87.6841 13.832 87.6841 13.28C87.6841 12.704 87.7321 12.224 87.8281 11.84H97.9081C98.0041 12.224 98.0521 12.704 98.0521 13.28C98.0521 13.832 98.0041 14.312 97.9081 14.72H99.3481C99.4441 15.104 99.4921 15.584 99.4921 16.16C99.4921 16.712 99.4441 17.192 99.3481 17.6C99.4441 17.984 99.4921 18.464 99.4921 19.04ZM96.4681 20.48C96.3721 20.072 96.3241 19.592 96.3241 19.04C96.3241 18.464 96.3721 17.984 96.4681 17.6C96.3721 17.192 96.3241 16.712 96.3241 16.16C96.3241 15.584 96.3721 15.104 96.4681 14.72H90.7081C90.8041 15.104 90.8521 15.584 90.8521 16.16C90.8521 16.712 90.8041 17.192 90.7081 17.6C90.8041 17.984 90.8521 18.464 90.8521 19.04C90.8521 19.592 90.8041 20.072 90.7081 20.48H96.4681ZM96.4681 26.24C96.3721 25.832 96.3241 25.352 96.3241 24.8C96.3241 24.224 96.3721 23.744 96.4681 23.36H90.7081C90.8041 23.744 90.8521 24.224 90.8521 24.8C90.8521 25.352 90.8041 25.832 90.7081 26.24C90.8041 26.624 90.8521 27.104 90.8521 27.68C90.8521 28.232 90.8041 28.712 90.7081 29.12H96.4681C96.3721 28.712 96.3241 28.232 96.3241 27.68C96.3241 27.104 96.3721 26.624 96.4681 26.24ZM67.64 47.24C67.704 47.496 67.736 47.816 67.736 48.2C67.736 48.568 67.704 48.888 67.64 49.16C67.704 49.416 67.736 49.736 67.736 50.12C67.736 50.488 67.704 50.808 67.64 51.08H66.68C66.744 51.336 66.776 51.656 66.776 52.04C66.776 52.408 66.744 52.728 66.68 53H60.92C60.856 52.728 60.824 52.408 60.824 52.04C60.824 51.656 60.856 51.336 60.92 51.08H59.96C59.896 50.808 59.864 50.488 59.864 50.12C59.864 49.736 59.896 49.416 59.96 49.16H61.88C61.944 49.416 61.976 49.736 61.976 50.12C61.976 50.488 61.944 50.808 61.88 51.08H65.72C65.656 50.808 65.624 50.488 65.624 50.12C65.624 49.736 65.656 49.416 65.72 49.16C65.656 48.888 65.624 48.568 65.624 48.2C65.624 47.816 65.656 47.496 65.72 47.24H60.92C60.856 46.968 60.824 46.648 60.824 46.28C60.824 45.896 60.856 45.576 60.92 45.32H59.96C59.896 45.048 59.864 44.728 59.864 44.36C59.864 43.976 59.896 43.656 59.96 43.4C59.896 43.128 59.864 42.808 59.864 42.44C59.864 42.056 59.896 41.736 59.96 41.48H60.92C60.856 41.208 60.824 40.888 60.824 40.52C60.824 40.136 60.856 39.816 60.92 39.56H66.68C66.744 39.816 66.776 40.136 66.776 40.52C66.776 40.888 66.744 41.208 66.68 41.48H67.64C67.704 41.736 67.736 42.056 67.736 42.44C67.736 42.808 67.704 43.128 67.64 43.4H65.72C65.656 43.128 65.624 42.808 65.624 42.44C65.624 42.056 65.656 41.736 65.72 41.48H61.88C61.944 41.736 61.976 42.056 61.976 42.44C61.976 42.808 61.944 43.128 61.88 43.4C61.944 43.656 61.976 43.976 61.976 44.36C61.976 44.728 61.944 45.048 61.88 45.32H66.68C66.744 45.576 66.776 45.896 66.776 46.28C66.776 46.648 66.744 46.968 66.68 47.24H67.64ZM71.9694 47.24C72.0334 47.496 72.0654 47.816 72.0654 48.2C72.0654 48.568 72.0334 48.888 71.9694 49.16C72.0334 49.416 72.0654 49.736 72.0654 50.12C72.0654 50.488 72.0334 50.808 71.9694 51.08H75.8094C75.8734 51.336 75.9054 51.656 75.9054 52.04C75.9054 52.408 75.8734 52.728 75.8094 53H70.0494C69.9854 52.728 69.9534 52.408 69.9534 52.04C69.9534 51.656 69.9854 51.336 70.0494 51.08C69.9854 50.808 69.9534 50.488 69.9534 50.12C69.9534 49.736 69.9854 49.416 70.0494 49.16C69.9854 48.888 69.9534 48.568 69.9534 48.2C69.9534 47.816 69.9854 47.496 70.0494 47.24C69.9854 46.968 69.9534 46.648 69.9534 46.28C69.9534 45.896 69.9854 45.576 70.0494 45.32C69.9854 45.048 69.9534 44.728 69.9534 44.36C69.9534 43.976 69.9854 43.656 70.0494 43.4C69.9854 43.128 69.9534 42.808 69.9534 42.44C69.9534 42.056 69.9854 41.736 70.0494 41.48C69.9854 41.208 69.9534 40.888 69.9534 40.52C69.9534 40.136 69.9854 39.816 70.0494 39.56H75.8094C75.8734 39.816 75.9054 40.136 75.9054 40.52C75.9054 40.888 75.8734 41.208 75.8094 41.48H71.9694C72.0334 41.736 72.0654 42.056 72.0654 42.44C72.0654 42.808 72.0334 43.128 71.9694 43.4C72.0334 43.656 72.0654 43.976 72.0654 44.36C72.0654 44.728 72.0334 45.048 71.9694 45.32H75.8094C75.8734 45.576 75.9054 45.896 75.9054 46.28C75.9054 46.648 75.8734 46.968 75.8094 47.24H71.9694ZM85.8988 49.16C85.9628 49.416 85.9948 49.736 85.9948 50.12C85.9948 50.488 85.9628 50.808 85.8988 51.08H84.9388C85.0028 51.336 85.0348 51.656 85.0348 52.04C85.0348 52.408 85.0028 52.728 84.9388 53H80.1388C80.0748 52.728 80.0428 52.408 80.0428 52.04C80.0428 51.656 80.0748 51.336 80.1388 51.08H79.1788C79.1148 50.808 79.0828 50.488 79.0828 50.12C79.0828 49.736 79.1148 49.416 79.1788 49.16H78.2188C78.1548 48.888 78.1228 48.568 78.1228 48.2C78.1228 47.816 78.1548 47.496 78.2188 47.24C78.1548 46.968 78.1228 46.648 78.1228 46.28C78.1228 45.896 78.1548 45.576 78.2188 45.32C78.1548 45.048 78.1228 44.728 78.1228 44.36C78.1228 43.976 78.1548 43.656 78.2188 43.4H79.1788C79.1148 43.128 79.0828 42.808 79.0828 42.44C79.0828 42.056 79.1148 41.736 79.1788 41.48H80.1388C80.0748 41.208 80.0428 40.888 80.0428 40.52C80.0428 40.136 80.0748 39.816 80.1388 39.56H84.9388C85.0028 39.816 85.0348 40.136 85.0348 40.52C85.0348 40.888 85.0028 41.208 84.9388 41.48H85.8988C85.9628 41.736 85.9948 42.056 85.9948 42.44C85.9948 42.808 85.9628 43.128 85.8988 43.4H83.9788C83.9148 43.128 83.8828 42.808 83.8828 42.44C83.8828 42.056 83.9148 41.736 83.9788 41.48H81.0988C81.1628 41.736 81.1948 42.056 81.1948 42.44C81.1948 42.808 81.1628 43.128 81.0988 43.4H80.1388C80.2028 43.656 80.2348 43.976 80.2348 44.36C80.2348 44.728 80.2028 45.048 80.1388 45.32C80.2028 45.576 80.2348 45.896 80.2348 46.28C80.2348 46.648 80.2028 46.968 80.1388 47.24C80.2028 47.496 80.2348 47.816 80.2348 48.2C80.2348 48.568 80.2028 48.888 80.1388 49.16H81.0988C81.1628 49.416 81.1948 49.736 81.1948 50.12C81.1948 50.488 81.1628 50.808 81.0988 51.08H83.9788C83.9148 50.808 83.8828 50.488 83.8828 50.12C83.8828 49.736 83.9148 49.416 83.9788 49.16H85.8988ZM95.0281 41.48C95.0921 41.736 95.1241 42.056 95.1241 42.44C95.1241 42.808 95.0921 43.128 95.0281 43.4C95.0921 43.656 95.1241 43.976 95.1241 44.36C95.1241 44.728 95.0921 45.048 95.0281 45.32C95.0921 45.576 95.1241 45.896 95.1241 46.28C95.1241 46.648 95.0921 46.968 95.0281 47.24C95.0921 47.496 95.1241 47.816 95.1241 48.2C95.1241 48.568 95.0921 48.888 95.0281 49.16C95.0921 49.416 95.1241 49.736 95.1241 50.12C95.1241 50.488 95.0921 50.808 95.0281 51.08H94.0681C94.1321 51.336 94.1641 51.656 94.1641 52.04C94.1641 52.408 94.1321 52.728 94.0681 53H88.3081C88.2441 52.728 88.2121 52.408 88.2121 52.04C88.2121 51.656 88.2441 51.336 88.3081 51.08H87.3481C87.2841 50.808 87.2521 50.488 87.2521 50.12C87.2521 49.736 87.2841 49.416 87.3481 49.16C87.2841 48.888 87.2521 48.568 87.2521 48.2C87.2521 47.816 87.2841 47.496 87.3481 47.24C87.2841 46.968 87.2521 46.648 87.2521 46.28C87.2521 45.896 87.2841 45.576 87.3481 45.32C87.2841 45.048 87.2521 44.728 87.2521 44.36C87.2521 43.976 87.2841 43.656 87.3481 43.4C87.2841 43.128 87.2521 42.808 87.2521 42.44C87.2521 42.056 87.2841 41.736 87.3481 41.48C87.2841 41.208 87.2521 40.888 87.2521 40.52C87.2521 40.136 87.2841 39.816 87.3481 39.56H89.2681C89.3321 39.816 89.3641 40.136 89.3641 40.52C89.3641 40.888 89.3321 41.208 89.2681 41.48C89.3321 41.736 89.3641 42.056 89.3641 42.44C89.3641 42.808 89.3321 43.128 89.2681 43.4C89.3321 43.656 89.3641 43.976 89.3641 44.36C89.3641 44.728 89.3321 45.048 89.2681 45.32C89.3321 45.576 89.3641 45.896 89.3641 46.28C89.3641 46.648 89.3321 46.968 89.2681 47.24C89.3321 47.496 89.3641 47.816 89.3641 48.2C89.3641 48.568 89.3321 48.888 89.2681 49.16C89.3321 49.416 89.3641 49.736 89.3641 50.12C89.3641 50.488 89.3321 50.808 89.2681 51.08H93.1081C93.0441 50.808 93.0121 50.488 93.0121 50.12C93.0121 49.736 93.0441 49.416 93.1081 49.16C93.0441 48.888 93.0121 48.568 93.0121 48.2C93.0121 47.816 93.0441 47.496 93.1081 47.24C93.0441 46.968 93.0121 46.648 93.0121 46.28C93.0121 45.896 93.0441 45.576 93.1081 45.32C93.0441 45.048 93.0121 44.728 93.0121 44.36C93.0121 43.976 93.0441 43.656 93.1081 43.4C93.0441 43.128 93.0121 42.808 93.0121 42.44C93.0121 42.056 93.0441 41.736 93.1081 41.48C93.0441 41.208 93.0121 40.888 93.0121 40.52C93.0121 40.136 93.0441 39.816 93.1081 39.56H95.0281C95.0921 39.816 95.1241 40.136 95.1241 40.52C95.1241 40.888 95.0921 41.208 95.0281 41.48ZM104.158 51.08C104.222 51.336 104.254 51.656 104.254 52.04C104.254 52.408 104.222 52.728 104.158 53H102.238C102.174 52.728 102.142 52.408 102.142 52.04C102.142 51.656 102.174 51.336 102.238 51.08H101.518C101.454 50.808 101.422 50.488 101.422 50.12C101.422 49.736 101.454 49.416 101.518 49.16H100.798C100.734 48.888 100.702 48.568 100.702 48.2C100.702 47.816 100.734 47.496 100.798 47.24H98.3975C98.4615 47.496 98.4935 47.816 98.4935 48.2C98.4935 48.568 98.4615 48.888 98.3975 49.16C98.4615 49.416 98.4935 49.736 98.4935 50.12C98.4935 50.488 98.4615 50.808 98.3975 51.08C98.4615 51.336 98.4935 51.656 98.4935 52.04C98.4935 52.408 98.4615 52.728 98.3975 53H96.4775C96.4135 52.728 96.3815 52.408 96.3815 52.04C96.3815 51.656 96.4135 51.336 96.4775 51.08C96.4135 50.808 96.3815 50.488 96.3815 50.12C96.3815 49.736 96.4135 49.416 96.4775 49.16C96.4135 48.888 96.3815 48.568 96.3815 48.2C96.3815 47.816 96.4135 47.496 96.4775 47.24C96.4135 46.968 96.3815 46.648 96.3815 46.28C96.3815 45.896 96.4135 45.576 96.4775 45.32C96.4135 45.048 96.3815 44.728 96.3815 44.36C96.3815 43.976 96.4135 43.656 96.4775 43.4C96.4135 43.128 96.3815 42.808 96.3815 42.44C96.3815 42.056 96.4135 41.736 96.4775 41.48C96.4135 41.208 96.3815 40.888 96.3815 40.52C96.3815 40.136 96.4135 39.816 96.4775 39.56H103.198C103.262 39.816 103.294 40.136 103.294 40.52C103.294 40.888 103.262 41.208 103.198 41.48H104.158C104.222 41.736 104.254 42.056 104.254 42.44C104.254 42.808 104.222 43.128 104.158 43.4H103.678C103.742 43.656 103.774 43.976 103.774 44.36C103.774 44.728 103.742 45.048 103.678 45.32H102.238C102.302 45.576 102.334 45.896 102.334 46.28C102.334 46.648 102.302 46.968 102.238 47.24H102.718C102.782 47.496 102.814 47.816 102.814 48.2C102.814 48.568 102.782 48.888 102.718 49.16H103.438C103.502 49.416 103.534 49.736 103.534 50.12C103.534 50.488 103.502 50.808 103.438 51.08H104.158ZM101.758 45.32C101.694 45.048 101.662 44.728 101.662 44.36C101.662 43.976 101.694 43.656 101.758 43.4C101.694 43.128 101.662 42.808 101.662 42.44C101.662 42.056 101.694 41.736 101.758 41.48H98.3975C98.4615 41.736 98.4935 42.056 98.4935 42.44C98.4935 42.808 98.4615 43.128 98.3975 43.4C98.4615 43.656 98.4935 43.976 98.4935 44.36C98.4935 44.728 98.4615 45.048 98.3975 45.32H101.758ZM111.847 51.08C111.911 51.336 111.943 51.656 111.943 52.04C111.943 52.408 111.911 52.728 111.847 53H107.047C106.983 52.728 106.951 52.408 106.951 52.04C106.951 51.656 106.983 51.336 107.047 51.08H108.487C108.423 50.808 108.391 50.488 108.391 50.12C108.391 49.736 108.423 49.416 108.487 49.16C108.423 48.888 108.391 48.568 108.391 48.2C108.391 47.816 108.423 47.496 108.487 47.24C108.423 46.968 108.391 46.648 108.391 46.28C108.391 45.896 108.423 45.576 108.487 45.32C108.423 45.048 108.391 44.728 108.391 44.36C108.391 43.976 108.423 43.656 108.487 43.4C108.423 43.128 108.391 42.808 108.391 42.44C108.391 42.056 108.423 41.736 108.487 41.48H107.047C106.983 41.208 106.951 40.888 106.951 40.52C106.951 40.136 106.983 39.816 107.047 39.56H111.847C111.911 39.816 111.943 40.136 111.943 40.52C111.943 40.888 111.911 41.208 111.847 41.48H110.407C110.471 41.736 110.503 42.056 110.503 42.44C110.503 42.808 110.471 43.128 110.407 43.4C110.471 43.656 110.503 43.976 110.503 44.36C110.503 44.728 110.471 45.048 110.407 45.32C110.471 45.576 110.503 45.896 110.503 46.28C110.503 46.648 110.471 46.968 110.407 47.24C110.471 47.496 110.503 47.816 110.503 48.2C110.503 48.568 110.471 48.888 110.407 49.16C110.471 49.416 110.503 49.736 110.503 50.12C110.503 50.488 110.471 50.808 110.407 51.08H111.847ZM122.512 40.52C122.512 40.888 122.48 41.208 122.416 41.48H119.536C119.6 41.736 119.632 42.056 119.632 42.44C119.632 42.808 119.6 43.128 119.536 43.4C119.6 43.656 119.632 43.976 119.632 44.36C119.632 44.728 119.6 45.048 119.536 45.32C119.6 45.576 119.632 45.896 119.632 46.28C119.632 46.648 119.6 46.968 119.536 47.24C119.6 47.496 119.632 47.816 119.632 48.2C119.632 48.568 119.6 48.888 119.536 49.16C119.6 49.416 119.632 49.736 119.632 50.12C119.632 50.488 119.6 50.808 119.536 51.08C119.6 51.336 119.632 51.656 119.632 52.04C119.632 52.408 119.6 52.728 119.536 53H117.616C117.552 52.728 117.52 52.408 117.52 52.04C117.52 51.656 117.552 51.336 117.616 51.08C117.552 50.808 117.52 50.488 117.52 50.12C117.52 49.736 117.552 49.416 117.616 49.16C117.552 48.888 117.52 48.568 117.52 48.2C117.52 47.816 117.552 47.496 117.616 47.24C117.552 46.968 117.52 46.648 117.52 46.28C117.52 45.896 117.552 45.576 117.616 45.32C117.552 45.048 117.52 44.728 117.52 44.36C117.52 43.976 117.552 43.656 117.616 43.4C117.552 43.128 117.52 42.808 117.52 42.44C117.52 42.056 117.552 41.736 117.616 41.48H114.736C114.672 41.208 114.64 40.888 114.64 40.52C114.64 40.136 114.672 39.816 114.736 39.56H122.416C122.48 39.816 122.512 40.136 122.512 40.52ZM131.642 40.52C131.642 40.888 131.61 41.208 131.546 41.48C131.61 41.736 131.642 42.056 131.642 42.44C131.642 42.808 131.61 43.128 131.546 43.4H130.586C130.65 43.656 130.682 43.976 130.682 44.36C130.682 44.728 130.65 45.048 130.586 45.32H129.626C129.69 45.576 129.722 45.896 129.722 46.28C129.722 46.648 129.69 46.968 129.626 47.24H128.666C128.73 47.496 128.762 47.816 128.762 48.2C128.762 48.568 128.73 48.888 128.666 49.16C128.73 49.416 128.762 49.736 128.762 50.12C128.762 50.488 128.73 50.808 128.666 51.08C128.73 51.336 128.762 51.656 128.762 52.04C128.762 52.408 128.73 52.728 128.666 53H126.746C126.682 52.728 126.65 52.408 126.65 52.04C126.65 51.656 126.682 51.336 126.746 51.08C126.682 50.808 126.65 50.488 126.65 50.12C126.65 49.736 126.682 49.416 126.746 49.16C126.682 48.888 126.65 48.568 126.65 48.2C126.65 47.816 126.682 47.496 126.746 47.24H125.786C125.722 46.968 125.69 46.648 125.69 46.28C125.69 45.896 125.722 45.576 125.786 45.32H124.826C124.762 45.048 124.73 44.728 124.73 44.36C124.73 43.976 124.762 43.656 124.826 43.4H123.866C123.802 43.128 123.77 42.808 123.77 42.44C123.77 42.056 123.802 41.736 123.866 41.48C123.802 41.208 123.77 40.888 123.77 40.52C123.77 40.136 123.802 39.816 123.866 39.56H125.786C125.85 39.816 125.882 40.136 125.882 40.52C125.882 40.888 125.85 41.208 125.786 41.48C125.85 41.736 125.882 42.056 125.882 42.44C125.882 42.808 125.85 43.128 125.786 43.4H126.746C126.81 43.656 126.842 43.976 126.842 44.36C126.842 44.728 126.81 45.048 126.746 45.32H128.666C128.602 45.048 128.57 44.728 128.57 44.36C128.57 43.976 128.602 43.656 128.666 43.4H129.626C129.562 43.128 129.53 42.808 129.53 42.44C129.53 42.056 129.562 41.736 129.626 41.48C129.562 41.208 129.53 40.888 129.53 40.52C129.53 40.136 129.562 39.816 129.626 39.56H131.546C131.61 39.816 131.642 40.136 131.642 40.52Z" fill="#E9E3DC"/>
<path d="M34.0248 34.0051C34.0706 34.4488 34.0968 34.8782 34.0968 35.2801C34.0968 36.0323 34.0049 36.8819 33.8642 37.7407C32.9953 37.8798 32.136 37.9707 31.375 37.9707C30.6174 37.9707 29.7583 37.8801 28.8857 37.7405C28.7451 36.8816 28.6531 36.0323 28.6531 35.2801C28.6531 34.8783 28.6793 34.4489 28.7252 34.0051C29.641 34.15 30.5546 34.2452 31.375 34.2452C32.1954 34.2452 33.109 34.15 34.0248 34.0051Z" fill="#E9E3DC"/>
<path d="M35.2635 33.7813C35.3201 34.3005 35.353 34.806 35.353 35.2799C35.353 35.9713 35.283 36.7298 35.1715 37.4997C36.7529 37.1735 38.2145 36.7568 38.9975 36.5195C39.2505 36.4429 39.35 36.4124 39.4834 36.3596C39.55 36.3333 39.6111 36.3065 39.6908 36.2689C39.7298 35.9446 39.7499 35.6145 39.7499 35.2799C39.7499 34.3952 39.6095 33.543 39.3497 32.7437L39.282 32.7648C38.4632 33.011 36.9305 33.4463 35.2635 33.7813Z" fill="#E9E3DC"/>
<path d="M38.874 31.5884C38.0509 31.835 36.6225 32.2357 35.0918 32.5476C34.7392 30.4292 34.1212 28.3163 33.8239 27.3594C36.0349 28.0267 37.8575 29.574 38.874 31.5884Z" fill="#E9E3DC"/>
<path d="M33.8569 32.7734C32.9903 32.9118 32.1337 33.0023 31.3749 33.0023C30.6161 33.0023 29.7596 32.9118 28.8931 32.7735C29.2251 30.769 29.8178 28.7213 30.1209 27.7438C30.1984 27.4936 30.2293 27.3954 30.2827 27.2635C30.3093 27.1976 30.3364 27.1372 30.3745 27.0585C30.7025 27.0199 31.0364 27 31.3749 27C31.7286 27 32.0771 27.0217 32.4192 27.0637C32.4265 27.0912 32.4332 27.1157 32.4398 27.139C32.4594 27.2076 32.4901 27.3041 32.5417 27.466L32.5471 27.483C32.8054 28.2949 33.4901 30.5592 33.8569 32.7734Z" fill="#E9E3DC"/>
<path d="M27.6582 32.5476C28.0092 30.4385 28.6231 28.337 28.9199 27.3798L28.9262 27.3594C26.7152 28.0267 24.8925 29.574 23.8761 31.5884C24.6991 31.835 26.1275 32.2356 27.6582 32.5476Z" fill="#E9E3DC"/>
<path d="M23.4003 32.7437C23.1404 33.543 23 34.3952 23 35.2799C23 35.6259 23.0215 35.967 23.0632 36.302L23.1952 36.3455L23.1962 36.3458L23.1975 36.3463L23.1984 36.3465C23.2409 36.3605 24.486 36.7669 26.1257 37.1702C26.5884 37.284 27.0783 37.3964 27.5784 37.4995C27.4669 36.7297 27.3969 35.9713 27.3969 35.2799C27.3969 34.8058 27.4298 34.3003 27.4864 33.7813C25.819 33.4461 24.2859 33.0107 23.4674 32.7645L23.4617 32.7628L23.4003 32.7437Z" fill="#E9E3DC"/>
<path d="M31.375 39.2134C32.0744 39.2134 32.8417 39.1441 33.6205 39.0339C33.2906 40.5971 32.869 42.042 32.629 42.816C32.5515 43.0662 32.5206 43.1644 32.4672 43.2963C32.4406 43.3622 32.4135 43.4226 32.3754 43.5014C32.0474 43.54 31.7135 43.5598 31.375 43.5598C31.0365 43.5598 30.7026 43.54 30.3745 43.5014C30.3365 43.4226 30.3094 43.3622 30.2827 43.2963C30.2294 43.1645 30.1985 43.0662 30.121 42.8161C29.881 42.0421 29.4595 40.5973 29.1295 39.0342C29.9057 39.1441 30.6732 39.2134 31.375 39.2134Z" fill="#E9E3DC"/>
<path d="M25.8225 38.3761C24.7856 38.121 23.9025 37.8649 23.3638 37.7014C24.1746 40.327 26.2702 42.3985 28.9263 43.2001L28.9199 43.1797C28.6608 42.344 28.1599 40.6357 27.8033 38.8117C27.1098 38.6792 26.4356 38.5269 25.8225 38.3761Z" fill="#E9E3DC"/>
<path d="M39.3657 37.7076C38.5202 37.9638 36.792 38.4591 34.9468 38.8115C34.5903 40.6356 34.0893 42.3439 33.8302 43.1797L33.8239 43.2001C36.4799 42.3985 38.5754 40.327 39.3863 37.7014L39.3657 37.7076Z" fill="#E9E3DC"/>
<path d="M23.088 36.3236C23.117 36.3273 23.1406 36.3313 23.1485 36.3331C23.1553 36.3347 23.1661 36.3376 23.17 36.3387L23.1786 36.3411L23.1833 36.3426L23.1882 36.3441L23.1922 36.3454C23.1899 36.3446 23.1434 36.333 23.088 36.3236Z" fill="#E9E3DC"/>
<path d="M47.3333 32.5819C47.3333 34.1306 46.0666 35.3827 44.4999 35.3827H42.4999V29.781H44.4999C46.0666 29.781 47.3333 31.0332 47.3333 32.5819Z" fill="#E9E3DC"/>
<path d="M16.6667 12.7756C13.3 12.7756 10.5833 10.0897 10.5833 6.7611C10.5833 3.43252 13.3 0.746582 16.6667 0.746582C20.0333 0.746582 22.75 3.43252 22.75 6.7611C22.75 10.0732 20.0167 12.7756 16.6667 12.7756Z" fill="#E9E3DC"/>
<path d="M2.83333 44.2818C1.26667 44.2818 0 43.0294 0 41.4805V21.7067C0 17.5213 3.43333 14.1268 7.66667 14.1268H25.3333C29.5667 14.1268 33 17.5213 33 21.7067V23.6676H22V44.2818H7.66667V23.6841H5.66667V41.4805C5.66667 43.0294 4.4 44.2818 2.83333 44.2818Z" fill="#E9E3DC"/>
</svg>
